M48
; DRILL file {KiCad 9.0.6} date 2025-12-26T20:09:29-0700
; FORMAT={-:-/ absolute / metric / decimal}
; #@! TF.CreationDate,2025-12-26T20:09:29-07:00
; #@! TF.GenerationSoftware,Kicad,Pcbnew,9.0.6
; #@! TF.FileFunction,Plated,1,2,PTH
FMAT,2
METRIC
; #@! TA.AperFunction,Plated,PTH,ViaDrill
T1C0.300
; #@! TA.AperFunction,Plated,PTH,ViaDrill
T2C0.400
; #@! TA.AperFunction,Plated,PTH,ComponentDrill
T3C0.800
; #@! TA.AperFunction,Plated,PTH,ComponentDrill
T4C1.000
; #@! TA.AperFunction,Plated,PTH,ComponentDrill
T5C1.100
; #@! TA.AperFunction,Plated,PTH,ComponentDrill
T6C1.300
; #@! TA.AperFunction,Plated,PTH,ComponentDrill
T7C1.750
; #@! TA.AperFunction,Plated,PTH,ComponentDrill
T8C3.500
%
G90
G05
T1
X52.0Y-143.45
X56.2Y-143.45
X60.4Y-143.45
X64.6Y-143.45
X87.45Y-101.375
X92.275Y-100.628
X95.025Y-99.75
X112.525Y-53.0
X114.0Y-59.84
X114.0Y-61.18
X114.0Y-62.5
X114.0Y-63.84
X115.75Y-71.2
X116.0Y-53.0
X116.96Y-68.0
X117.0Y-63.84
X119.5Y-53.0
X119.5Y-68.0
X120.5Y-59.84
X123.0Y-53.0
X126.5Y-53.0
X126.5Y-55.975
X130.522Y-104.16
X134.675Y-73.0
X136.925Y-102.25
T2
X108.4Y-84.4
X109.74Y-84.4
X110.61Y-74.5
X111.06Y-84.4
X111.88Y-74.5
X112.4Y-84.4
X113.15Y-74.5
X114.42Y-74.5
X114.6Y-84.4
X115.69Y-74.5
X115.94Y-84.4
X116.96Y-74.5
X117.26Y-84.4
X118.23Y-74.5
X119.5Y-74.5
T3
X51.38Y-106.132
X51.38Y-108.672
X51.38Y-113.088
X51.38Y-115.628
X51.38Y-120.044
X51.38Y-122.584
X51.38Y-127.0
X51.38Y-129.54
X59.0Y-106.132
X59.0Y-108.672
X59.0Y-113.088
X59.0Y-115.628
X59.0Y-120.044
X59.0Y-122.584
X59.0Y-127.0
X59.0Y-129.54
X77.0Y-87.5
X79.0Y-87.5
X81.0Y-87.5
X83.0Y-87.5
X85.0Y-87.5
X102.522Y-103.16
X104.522Y-103.16
X106.522Y-103.16
X108.522Y-103.16
X110.522Y-103.16
X124.5Y-81.0
X128.0Y-81.0
X133.5Y-81.0
X137.0Y-81.0
T4
X56.0Y-85.5
X56.0Y-88.04
X56.0Y-90.58
X77.222Y-112.66
X77.222Y-115.2
X77.222Y-117.74
X77.222Y-120.28
X77.222Y-122.82
X77.222Y-125.36
X79.87Y-93.73
X79.87Y-96.27
X82.41Y-93.73
X82.41Y-96.27
X84.442Y-141.16
X84.775Y-104.775
X84.775Y-107.315
X84.95Y-93.73
X84.95Y-96.27
X86.982Y-141.16
X87.315Y-104.775
X87.315Y-107.315
X87.49Y-93.73
X87.49Y-96.27
X88.022Y-112.66
X88.022Y-115.2
X88.022Y-117.74
X88.022Y-120.28
X88.022Y-122.82
X88.022Y-125.36
X89.522Y-141.16
X90.03Y-93.73
X90.03Y-96.27
X92.57Y-93.73
X92.57Y-96.27
X94.609Y-141.16
X95.11Y-93.73
X95.11Y-96.27
X95.162Y-124.66
X97.149Y-141.16
X97.65Y-93.73
X97.65Y-96.27
X97.702Y-124.66
X99.689Y-141.16
X100.19Y-93.73
X100.19Y-96.27
X100.242Y-124.66
X102.73Y-93.73
X102.73Y-96.27
X102.782Y-124.66
X104.775Y-141.16
X105.27Y-93.73
X105.27Y-96.27
X105.322Y-124.66
X107.315Y-141.16
X107.81Y-93.73
X107.81Y-96.27
X107.862Y-124.66
X109.855Y-141.16
X110.35Y-93.73
X110.35Y-96.27
X110.402Y-124.66
X112.89Y-93.73
X112.89Y-96.27
X112.942Y-124.66
X114.942Y-141.16
X115.43Y-93.73
X115.43Y-96.27
X115.482Y-124.66
X117.482Y-141.16
X117.97Y-93.73
X117.97Y-96.27
X118.022Y-124.66
X120.022Y-141.16
X120.51Y-93.73
X120.51Y-96.27
X123.05Y-93.73
X123.05Y-96.27
X125.59Y-93.73
X125.59Y-96.27
X128.13Y-93.73
X128.13Y-96.27
X130.022Y-115.58
X130.022Y-118.12
X130.022Y-120.66
X130.022Y-128.66
X130.022Y-131.2
X130.022Y-133.74
T5
X129.88Y-63.5
X137.5Y-63.5
T6
X44.0Y-64.3
X44.0Y-76.5
X45.0Y-54.328
X50.0Y-54.328
X50.0Y-78.5
X55.0Y-54.328
X56.0Y-64.3
X56.0Y-76.5
X60.833Y-64.3
X60.833Y-76.5
X61.0Y-54.328
X66.0Y-54.328
X66.833Y-78.5
X71.0Y-54.328
X72.833Y-64.3
X72.833Y-76.5
X77.667Y-64.3
X77.667Y-76.5
X78.5Y-54.328
X83.5Y-54.328
X83.667Y-78.5
X88.5Y-54.328
X89.667Y-64.3
X89.667Y-76.5
X94.5Y-64.3
X94.5Y-76.5
X95.505Y-54.328
X100.5Y-78.5
X100.505Y-54.328
X105.505Y-54.328
X106.5Y-64.3
X106.5Y-76.5
X131.5Y-55.5
X136.5Y-55.5
T7
X45.62Y-85.6
X45.62Y-90.68
X45.62Y-95.76
X45.62Y-100.84
X45.62Y-105.92
X45.62Y-111.0
X45.62Y-116.08
X45.62Y-121.16
X45.62Y-126.24
X45.62Y-131.32
X45.62Y-136.4
X45.62Y-141.48
T8
X75.0Y-95.0
X75.044Y-144.0
X133.0Y-95.0
X133.044Y-144.0
M30
