%TF.GenerationSoftware,KiCad,Pcbnew,9.0.6*%
%TF.CreationDate,2025-12-26T20:09:27-07:00*%
%TF.ProjectId,electronica,656c6563-7472-46f6-9e69-63612e6b6963,rev?*%
%TF.SameCoordinates,Original*%
%TF.FileFunction,Soldermask,Top*%
%TF.FilePolarity,Negative*%
%FSLAX46Y46*%
G04 Gerber Fmt 4.6, Leading zero omitted, Abs format (unit mm)*
G04 Created by KiCad (PCBNEW 9.0.6) date 2025-12-26 20:09:27*
%MOMM*%
%LPD*%
G01*
G04 APERTURE LIST*
G04 Aperture macros list*
%AMRoundRect*
0 Rectangle with rounded corners*
0 $1 Rounding radius*
0 $2 $3 $4 $5 $6 $7 $8 $9 X,Y pos of 4 corners*
0 Add a 4 corners polygon primitive as box body*
4,1,4,$2,$3,$4,$5,$6,$7,$8,$9,$2,$3,0*
0 Add four circle primitives for the rounded corners*
1,1,$1+$1,$2,$3*
1,1,$1+$1,$4,$5*
1,1,$1+$1,$6,$7*
1,1,$1+$1,$8,$9*
0 Add four rect primitives between the rounded corners*
20,1,$1+$1,$2,$3,$4,$5,0*
20,1,$1+$1,$4,$5,$6,$7,0*
20,1,$1+$1,$6,$7,$8,$9,0*
20,1,$1+$1,$8,$9,$2,$3,0*%
G04 Aperture macros list end*
%ADD10R,1.700000X1.700000*%
%ADD11C,1.700000*%
%ADD12C,1.600000*%
%ADD13C,1.500000*%
%ADD14RoundRect,0.250000X-0.550000X-0.550000X0.550000X-0.550000X0.550000X0.550000X-0.550000X0.550000X0*%
%ADD15O,1.700000X1.700000*%
%ADD16RoundRect,0.249999X-0.850001X-0.850001X0.850001X-0.850001X0.850001X0.850001X-0.850001X0.850001X0*%
%ADD17C,2.200000*%
%ADD18RoundRect,0.250000X-0.325000X-0.650000X0.325000X-0.650000X0.325000X0.650000X-0.325000X0.650000X0*%
%ADD19RoundRect,0.250000X-0.400000X-0.625000X0.400000X-0.625000X0.400000X0.625000X-0.400000X0.625000X0*%
%ADD20RoundRect,0.250001X0.462499X0.624999X-0.462499X0.624999X-0.462499X-0.624999X0.462499X-0.624999X0*%
%ADD21RoundRect,0.250001X0.624999X-0.462499X0.624999X0.462499X-0.624999X0.462499X-0.624999X-0.462499X0*%
%ADD22RoundRect,0.250000X1.050000X1.050000X-1.050000X1.050000X-1.050000X-1.050000X1.050000X-1.050000X0*%
%ADD23C,2.600000*%
%ADD24RoundRect,0.250000X-1.050000X-1.050000X1.050000X-1.050000X1.050000X1.050000X-1.050000X1.050000X0*%
%ADD25R,0.900000X0.900000*%
%ADD26R,2.800000X2.800000*%
%ADD27C,2.800000*%
%ADD28C,2.400000*%
%ADD29RoundRect,0.250000X1.000000X1.000000X-1.000000X1.000000X-1.000000X-1.000000X1.000000X-1.000000X0*%
%ADD30RoundRect,0.250000X-0.375000X-0.625000X0.375000X-0.625000X0.375000X0.625000X-0.375000X0.625000X0*%
%ADD31R,1.350000X1.350000*%
%ADD32C,1.350000*%
%ADD33RoundRect,0.250000X0.325000X0.650000X-0.325000X0.650000X-0.325000X-0.650000X0.325000X-0.650000X0*%
%ADD34RoundRect,0.250000X0.400000X0.625000X-0.400000X0.625000X-0.400000X-0.625000X0.400000X-0.625000X0*%
%ADD35RoundRect,0.218750X-0.218750X-0.256250X0.218750X-0.256250X0.218750X0.256250X-0.218750X0.256250X0*%
%ADD36RoundRect,0.150000X0.150000X-1.050000X0.150000X1.050000X-0.150000X1.050000X-0.150000X-1.050000X0*%
G04 APERTURE END LIST*
D10*
%TO.C,U3*%
X77222000Y-112660000D03*
D11*
X88022000Y-112660000D03*
X77222000Y-115200000D03*
X88022000Y-115200000D03*
X77222000Y-117740000D03*
X88022000Y-117740000D03*
X77222000Y-120280000D03*
X88022000Y-120280000D03*
X77222000Y-122820000D03*
X88022000Y-122820000D03*
X77222000Y-125360000D03*
X88022000Y-125360000D03*
%TD*%
%TO.C,U1*%
X100242000Y-124660000D03*
D10*
X95162000Y-124660000D03*
D11*
X112942000Y-124660000D03*
X97702000Y-124660000D03*
X105322000Y-124660000D03*
X110402000Y-124660000D03*
X102782000Y-124660000D03*
X107862000Y-124660000D03*
X118022000Y-124660000D03*
X115482000Y-124660000D03*
%TD*%
D12*
%TO.C,OPT3*%
X59000000Y-120044074D03*
D13*
X59000000Y-122584074D03*
D12*
X51380000Y-122584074D03*
D14*
X51380000Y-120044074D03*
%TD*%
D15*
%TO.C,J2*%
X128130000Y-93730000D03*
X128130000Y-96270000D03*
X125590000Y-93730000D03*
X125590000Y-96270000D03*
X123050000Y-93730000D03*
X123050000Y-96270000D03*
X120510000Y-93730000D03*
X120510000Y-96270000D03*
X117970000Y-93730000D03*
X117970000Y-96270000D03*
X115430000Y-93730000D03*
X115430000Y-96270000D03*
X112890000Y-93730000D03*
X112890000Y-96270000D03*
X110350000Y-93730000D03*
X110350000Y-96270000D03*
X107810000Y-93730000D03*
X107810000Y-96270000D03*
X105270000Y-93730000D03*
X105270000Y-96270000D03*
X102730000Y-93730000D03*
X102730000Y-96270000D03*
X100190000Y-93730000D03*
X100190000Y-96270000D03*
X97650000Y-93730000D03*
X97650000Y-96270000D03*
X95110000Y-93730000D03*
X95110000Y-96270000D03*
X92570000Y-93730000D03*
X92570000Y-96270000D03*
X90030000Y-93730000D03*
X90030000Y-96270000D03*
X87490000Y-93730000D03*
X87490000Y-96270000D03*
X84950000Y-96270000D03*
X82410000Y-93730000D03*
X82410000Y-96270000D03*
X79870000Y-93730000D03*
D10*
X79870000Y-96270000D03*
D13*
X84950000Y-93730000D03*
%TD*%
D16*
%TO.C,D1*%
X129880000Y-63500000D03*
D17*
X137500000Y-63500000D03*
%TD*%
D18*
%TO.C,CP2*%
X135050000Y-89000000D03*
X138000000Y-89000000D03*
%TD*%
D14*
%TO.C,CP1*%
X124500000Y-81000000D03*
D12*
X128000000Y-81000000D03*
%TD*%
D10*
%TO.C,J1*%
X84775000Y-107315000D03*
D11*
X84775000Y-104775000D03*
X87315000Y-107315000D03*
X87315000Y-104775000D03*
%TD*%
D19*
%TO.C,RP2*%
X127422000Y-104160000D03*
X130522000Y-104160000D03*
%TD*%
D14*
%TO.C,OPT4*%
X51380000Y-127000000D03*
D12*
X51380000Y-129540000D03*
X59000000Y-129540000D03*
X59000000Y-127000000D03*
%TD*%
D20*
%TO.C,PWR-OP1*%
X130522000Y-108160000D03*
X127547000Y-108160000D03*
%TD*%
D21*
%TO.C,CH3*%
X119500000Y-55975000D03*
X119500000Y-53000000D03*
%TD*%
D22*
%TO.C,P3*%
X88500000Y-54327500D03*
D23*
X83500000Y-54327500D03*
X78500000Y-54327500D03*
%TD*%
D14*
%TO.C,OPT2*%
X51380000Y-113088149D03*
D12*
X51380000Y-115628149D03*
X59000000Y-115628149D03*
X59000000Y-113088149D03*
%TD*%
D24*
%TO.C,PP1*%
X131500000Y-55500000D03*
D23*
X136500000Y-55500000D03*
%TD*%
D25*
%TO.C,RA4*%
X120500000Y-59840000D03*
X120500000Y-61180000D03*
X120500000Y-62500000D03*
X120500000Y-63840000D03*
X123500000Y-63840000D03*
X123500000Y-62500000D03*
X123500000Y-61180000D03*
X123500000Y-59840000D03*
%TD*%
%TO.C,RA2*%
X118600000Y-84400000D03*
X117260000Y-84400000D03*
X115940000Y-84400000D03*
X114600000Y-84400000D03*
X114600000Y-87400000D03*
X115940000Y-87400000D03*
X117260000Y-87400000D03*
X118600000Y-87400000D03*
%TD*%
D22*
%TO.C,P2*%
X71000000Y-54327500D03*
D23*
X66000000Y-54327500D03*
X61000000Y-54327500D03*
%TD*%
D25*
%TO.C,RN2-1*%
X52160000Y-136000000D03*
X53500000Y-136000000D03*
X54820000Y-136000000D03*
X56160000Y-136000000D03*
X56160000Y-133000000D03*
X54820000Y-133000000D03*
X53500000Y-133000000D03*
X52160000Y-133000000D03*
%TD*%
D10*
%TO.C,PWM1*%
X130022000Y-128660000D03*
D11*
X130022000Y-131200000D03*
X130022000Y-133740000D03*
%TD*%
D21*
%TO.C,CH2*%
X116000000Y-55975000D03*
X116000000Y-53000000D03*
%TD*%
%TO.C,CH1*%
X112500000Y-55975000D03*
X112500000Y-53000000D03*
%TD*%
D26*
%TO.C,J3*%
X45620000Y-141480000D03*
D27*
X45620000Y-136400000D03*
X45620000Y-131320000D03*
X45620000Y-126240000D03*
X45620000Y-121160000D03*
X45620000Y-116080000D03*
X45620000Y-111000000D03*
X45620000Y-105920000D03*
X45620000Y-100840000D03*
X45620000Y-95760000D03*
X45620000Y-90680000D03*
X45620000Y-85600000D03*
%TD*%
D28*
%TO.C,RELAY1*%
X50000000Y-78500000D03*
X44000000Y-64300000D03*
X56000000Y-64300000D03*
D29*
X56000000Y-76500000D03*
D28*
X44000000Y-76500000D03*
%TD*%
D22*
%TO.C,P4*%
X105505000Y-54327500D03*
D23*
X100505000Y-54327500D03*
X95505000Y-54327500D03*
%TD*%
D25*
%TO.C,RN1-1*%
X67000000Y-88340000D03*
X67000000Y-87000000D03*
X67000000Y-85680000D03*
X67000000Y-84340000D03*
X64000000Y-84340000D03*
X64000000Y-85680000D03*
X64000000Y-87000000D03*
X64000000Y-88340000D03*
%TD*%
D21*
%TO.C,IN2*%
X56200000Y-143450000D03*
X56200000Y-140475000D03*
%TD*%
%TO.C,CH5*%
X126500000Y-55975000D03*
X126500000Y-53000000D03*
%TD*%
%TO.C,CH4*%
X123000000Y-55975000D03*
X123000000Y-53000000D03*
%TD*%
D28*
%TO.C,RELAY4*%
X100500000Y-78500000D03*
X94500000Y-64300000D03*
X106500000Y-64300000D03*
D29*
X106500000Y-76500000D03*
D28*
X94500000Y-76500000D03*
%TD*%
D30*
%TO.C,F3*%
X134600000Y-73000000D03*
X137400000Y-73000000D03*
%TD*%
D31*
%TO.C,J4*%
X102522000Y-103160000D03*
D32*
X104522000Y-103160000D03*
X106522000Y-103160000D03*
X108522000Y-103160000D03*
X110522000Y-103160000D03*
%TD*%
D21*
%TO.C,IN1*%
X52000000Y-143450000D03*
X52000000Y-140475000D03*
%TD*%
D14*
%TO.C,CP3*%
X133500000Y-81000000D03*
D12*
X137000000Y-81000000D03*
%TD*%
D33*
%TO.C,CP4*%
X132650000Y-89000000D03*
X129700000Y-89000000D03*
%TD*%
D10*
%TO.C,AN1*%
X84442000Y-141160000D03*
D11*
X86982000Y-141160000D03*
X89522000Y-141160000D03*
%TD*%
D34*
%TO.C,RP1*%
X132000000Y-68500000D03*
X128900000Y-68500000D03*
%TD*%
D35*
%TO.C,F4*%
X135350000Y-102250000D03*
X136925000Y-102250000D03*
%TD*%
D22*
%TO.C,P1*%
X55000000Y-54327500D03*
D23*
X50000000Y-54327500D03*
X45000000Y-54327500D03*
%TD*%
D10*
%TO.C,AN3*%
X104775333Y-141160000D03*
D11*
X107315333Y-141160000D03*
X109855333Y-141160000D03*
%TD*%
D20*
%TO.C,PWR-IN1*%
X137500000Y-68500000D03*
X134525000Y-68500000D03*
%TD*%
D25*
%TO.C,RA1*%
X112400000Y-84400000D03*
X111060000Y-84400000D03*
X109740000Y-84400000D03*
X108400000Y-84400000D03*
X108400000Y-87400000D03*
X109740000Y-87400000D03*
X111060000Y-87400000D03*
X112400000Y-87400000D03*
%TD*%
D19*
%TO.C,RPwr1*%
X124500000Y-89000000D03*
X127600000Y-89000000D03*
%TD*%
D10*
%TO.C,ON/OFF1*%
X130022000Y-115580000D03*
D11*
X130022000Y-118120000D03*
X130022000Y-120660000D03*
%TD*%
D35*
%TO.C,F1*%
X123925000Y-138500000D03*
X125500000Y-138500000D03*
%TD*%
D10*
%TO.C,Bomba1*%
X56000000Y-85500000D03*
D11*
X56000000Y-88040000D03*
X56000000Y-90580000D03*
%TD*%
D21*
%TO.C,IN3*%
X60400000Y-143450000D03*
X60400000Y-140475000D03*
%TD*%
D14*
%TO.C,OPT1*%
X51380000Y-106132223D03*
D12*
X51380000Y-108672223D03*
X59000000Y-108672223D03*
X59000000Y-106132223D03*
%TD*%
D25*
%TO.C,RA3*%
X114000000Y-59840000D03*
X114000000Y-61180000D03*
X114000000Y-62500000D03*
X114000000Y-63840000D03*
X117000000Y-63840000D03*
X117000000Y-62500000D03*
X117000000Y-61180000D03*
X117000000Y-59840000D03*
%TD*%
D36*
%TO.C,U2*%
X110610000Y-74500000D03*
X111880000Y-74500000D03*
X113150000Y-74500000D03*
X114420000Y-74500000D03*
X115690000Y-74500000D03*
X116960000Y-74500000D03*
X118230000Y-74500000D03*
X119500000Y-74500000D03*
X119500000Y-68000000D03*
X118230000Y-68000000D03*
X116960000Y-68000000D03*
X115690000Y-68000000D03*
X114420000Y-68000000D03*
X113150000Y-68000000D03*
X111880000Y-68000000D03*
X110610000Y-68000000D03*
%TD*%
D21*
%TO.C,IN4*%
X64600000Y-143450000D03*
X64600000Y-140475000D03*
%TD*%
D31*
%TO.C,UART1*%
X77000000Y-87500000D03*
D32*
X79000000Y-87500000D03*
X81000000Y-87500000D03*
X83000000Y-87500000D03*
X85000000Y-87500000D03*
%TD*%
D28*
%TO.C,RELAY3*%
X83666667Y-78500000D03*
X77666667Y-64300000D03*
X89666667Y-64300000D03*
D29*
X89666667Y-76500000D03*
D28*
X77666667Y-76500000D03*
%TD*%
D10*
%TO.C,AN2*%
X94608667Y-141160000D03*
D11*
X97148667Y-141160000D03*
X99688667Y-141160000D03*
%TD*%
D10*
%TO.C,AN4*%
X114942000Y-141160000D03*
D11*
X117482000Y-141160000D03*
X120022000Y-141160000D03*
%TD*%
D28*
%TO.C,RELAY2*%
X66833333Y-78500000D03*
X60833333Y-64300000D03*
X72833333Y-64300000D03*
D29*
X72833333Y-76500000D03*
D28*
X60833333Y-76500000D03*
%TD*%
M02*
