%TF.GenerationSoftware,KiCad,Pcbnew,9.0.6*%
%TF.CreationDate,2025-12-26T20:09:27-07:00*%
%TF.ProjectId,electronica,656c6563-7472-46f6-9e69-63612e6b6963,rev?*%
%TF.SameCoordinates,Original*%
%TF.FileFunction,Paste,Top*%
%TF.FilePolarity,Positive*%
%FSLAX46Y46*%
G04 Gerber Fmt 4.6, Leading zero omitted, Abs format (unit mm)*
G04 Created by KiCad (PCBNEW 9.0.6) date 2025-12-26 20:09:27*
%MOMM*%
%LPD*%
G01*
G04 APERTURE LIST*
G04 Aperture macros list*
%AMRoundRect*
0 Rectangle with rounded corners*
0 $1 Rounding radius*
0 $2 $3 $4 $5 $6 $7 $8 $9 X,Y pos of 4 corners*
0 Add a 4 corners polygon primitive as box body*
4,1,4,$2,$3,$4,$5,$6,$7,$8,$9,$2,$3,0*
0 Add four circle primitives for the rounded corners*
1,1,$1+$1,$2,$3*
1,1,$1+$1,$4,$5*
1,1,$1+$1,$6,$7*
1,1,$1+$1,$8,$9*
0 Add four rect primitives between the rounded corners*
20,1,$1+$1,$2,$3,$4,$5,0*
20,1,$1+$1,$4,$5,$6,$7,0*
20,1,$1+$1,$6,$7,$8,$9,0*
20,1,$1+$1,$8,$9,$2,$3,0*%
G04 Aperture macros list end*
%ADD10RoundRect,0.250000X-0.325000X-0.650000X0.325000X-0.650000X0.325000X0.650000X-0.325000X0.650000X0*%
%ADD11RoundRect,0.250000X-0.400000X-0.625000X0.400000X-0.625000X0.400000X0.625000X-0.400000X0.625000X0*%
%ADD12RoundRect,0.250001X0.462499X0.624999X-0.462499X0.624999X-0.462499X-0.624999X0.462499X-0.624999X0*%
%ADD13RoundRect,0.250001X0.624999X-0.462499X0.624999X0.462499X-0.624999X0.462499X-0.624999X-0.462499X0*%
%ADD14R,0.900000X0.900000*%
%ADD15RoundRect,0.250000X-0.375000X-0.625000X0.375000X-0.625000X0.375000X0.625000X-0.375000X0.625000X0*%
%ADD16RoundRect,0.250000X0.325000X0.650000X-0.325000X0.650000X-0.325000X-0.650000X0.325000X-0.650000X0*%
%ADD17RoundRect,0.250000X0.400000X0.625000X-0.400000X0.625000X-0.400000X-0.625000X0.400000X-0.625000X0*%
%ADD18RoundRect,0.218750X-0.218750X-0.256250X0.218750X-0.256250X0.218750X0.256250X-0.218750X0.256250X0*%
%ADD19RoundRect,0.150000X0.150000X-1.050000X0.150000X1.050000X-0.150000X1.050000X-0.150000X-1.050000X0*%
G04 APERTURE END LIST*
D10*
%TO.C,CP2*%
X135050000Y-89000000D03*
X138000000Y-89000000D03*
%TD*%
D11*
%TO.C,RP2*%
X127422000Y-104160000D03*
X130522000Y-104160000D03*
%TD*%
D12*
%TO.C,PWR-OP1*%
X130522000Y-108160000D03*
X127547000Y-108160000D03*
%TD*%
D13*
%TO.C,CH3*%
X119500000Y-55975000D03*
X119500000Y-53000000D03*
%TD*%
D14*
%TO.C,RA4*%
X120500000Y-59840000D03*
X120500000Y-61180000D03*
X120500000Y-62500000D03*
X120500000Y-63840000D03*
X123500000Y-63840000D03*
X123500000Y-62500000D03*
X123500000Y-61180000D03*
X123500000Y-59840000D03*
%TD*%
%TO.C,RA2*%
X118600000Y-84400000D03*
X117260000Y-84400000D03*
X115940000Y-84400000D03*
X114600000Y-84400000D03*
X114600000Y-87400000D03*
X115940000Y-87400000D03*
X117260000Y-87400000D03*
X118600000Y-87400000D03*
%TD*%
%TO.C,RN2-1*%
X52160000Y-136000000D03*
X53500000Y-136000000D03*
X54820000Y-136000000D03*
X56160000Y-136000000D03*
X56160000Y-133000000D03*
X54820000Y-133000000D03*
X53500000Y-133000000D03*
X52160000Y-133000000D03*
%TD*%
D13*
%TO.C,CH2*%
X116000000Y-55975000D03*
X116000000Y-53000000D03*
%TD*%
%TO.C,CH1*%
X112500000Y-55975000D03*
X112500000Y-53000000D03*
%TD*%
D14*
%TO.C,RN1-1*%
X67000000Y-88340000D03*
X67000000Y-87000000D03*
X67000000Y-85680000D03*
X67000000Y-84340000D03*
X64000000Y-84340000D03*
X64000000Y-85680000D03*
X64000000Y-87000000D03*
X64000000Y-88340000D03*
%TD*%
D13*
%TO.C,IN2*%
X56200000Y-143450000D03*
X56200000Y-140475000D03*
%TD*%
%TO.C,CH5*%
X126500000Y-55975000D03*
X126500000Y-53000000D03*
%TD*%
%TO.C,CH4*%
X123000000Y-55975000D03*
X123000000Y-53000000D03*
%TD*%
D15*
%TO.C,F3*%
X134600000Y-73000000D03*
X137400000Y-73000000D03*
%TD*%
D13*
%TO.C,IN1*%
X52000000Y-143450000D03*
X52000000Y-140475000D03*
%TD*%
D16*
%TO.C,CP4*%
X132650000Y-89000000D03*
X129700000Y-89000000D03*
%TD*%
D17*
%TO.C,RP1*%
X132000000Y-68500000D03*
X128900000Y-68500000D03*
%TD*%
D18*
%TO.C,F4*%
X135350000Y-102250000D03*
X136925000Y-102250000D03*
%TD*%
D12*
%TO.C,PWR-IN1*%
X137500000Y-68500000D03*
X134525000Y-68500000D03*
%TD*%
D14*
%TO.C,RA1*%
X112400000Y-84400000D03*
X111060000Y-84400000D03*
X109740000Y-84400000D03*
X108400000Y-84400000D03*
X108400000Y-87400000D03*
X109740000Y-87400000D03*
X111060000Y-87400000D03*
X112400000Y-87400000D03*
%TD*%
D11*
%TO.C,RPwr1*%
X124500000Y-89000000D03*
X127600000Y-89000000D03*
%TD*%
D18*
%TO.C,F1*%
X123925000Y-138500000D03*
X125500000Y-138500000D03*
%TD*%
D13*
%TO.C,IN3*%
X60400000Y-143450000D03*
X60400000Y-140475000D03*
%TD*%
D14*
%TO.C,RA3*%
X114000000Y-59840000D03*
X114000000Y-61180000D03*
X114000000Y-62500000D03*
X114000000Y-63840000D03*
X117000000Y-63840000D03*
X117000000Y-62500000D03*
X117000000Y-61180000D03*
X117000000Y-59840000D03*
%TD*%
D19*
%TO.C,U2*%
X110610000Y-74500000D03*
X111880000Y-74500000D03*
X113150000Y-74500000D03*
X114420000Y-74500000D03*
X115690000Y-74500000D03*
X116960000Y-74500000D03*
X118230000Y-74500000D03*
X119500000Y-74500000D03*
X119500000Y-68000000D03*
X118230000Y-68000000D03*
X116960000Y-68000000D03*
X115690000Y-68000000D03*
X114420000Y-68000000D03*
X113150000Y-68000000D03*
X111880000Y-68000000D03*
X110610000Y-68000000D03*
%TD*%
D13*
%TO.C,IN4*%
X64600000Y-143450000D03*
X64600000Y-140475000D03*
%TD*%
M02*
