M48
; DRILL file {KiCad 9.0.6} date 2026-01-02T16:59:04-0700
; FORMAT={-:-/ absolute / metric / decimal}
; #@! TF.CreationDate,2026-01-02T16:59:04-07:00
; #@! TF.GenerationSoftware,Kicad,Pcbnew,9.0.6
; #@! TF.FileFunction,Plated,1,2,PTH
FMAT,2
METRIC
; #@! TA.AperFunction,Plated,PTH,ViaDrill
T1C0.300
; #@! TA.AperFunction,Plated,PTH,ViaDrill
T2C0.400
; #@! TA.AperFunction,Plated,PTH,ComponentDrill
T3C0.800
; #@! TA.AperFunction,Plated,PTH,ComponentDrill
T4C1.000
; #@! TA.AperFunction,Plated,PTH,ComponentDrill
T5C1.100
; #@! TA.AperFunction,Plated,PTH,ComponentDrill
T6C1.300
; #@! TA.AperFunction,Plated,PTH,ComponentDrill
T7C1.750
%
G90
G05
T1
X56.35Y-141.075
X70.525Y-103.675
X79.8Y-99.4
X95.725Y-126.475
X98.625Y-139.297
X100.19Y-99.075
X105.825Y-80.95
X112.525Y-53.0
X112.85Y-59.75
X112.925Y-61.18
X112.975Y-62.45
X113.025Y-63.825
X114.525Y-101.5
X115.675Y-69.375
X116.0Y-53.0
X117.0Y-63.84
X119.4Y-69.275
X119.45Y-84.15
X119.5Y-53.0
X121.87Y-58.47
X123.0Y-53.0
X123.812Y-101.162
X125.975Y-55.925
X126.075Y-52.875
X126.075Y-125.31
X126.075Y-127.85
X126.125Y-122.77
X126.2Y-120.23
X133.225Y-72.8
X133.4Y-111.795
X136.6Y-90.55
T2
X119.5Y-74.5
T3
X47.475Y-93.275
X49.475Y-93.275
X51.475Y-93.275
X53.475Y-93.275
X77.0Y-87.5
X79.0Y-87.5
X81.0Y-87.5
X83.0Y-87.5
X85.0Y-87.5
X102.4Y-102.15
X104.4Y-102.15
X106.4Y-102.15
X108.4Y-102.15
X110.4Y-102.15
X124.5Y-81.0
X128.0Y-81.0
X133.5Y-81.0
X137.0Y-81.0
T4
X44.395Y-102.392
X44.395Y-106.886
X44.395Y-111.38
X44.395Y-115.874
X44.395Y-120.368
X44.395Y-124.862
X44.395Y-129.356
X44.395Y-133.85
X44.625Y-85.8
X46.935Y-102.392
X46.935Y-106.886
X46.935Y-111.38
X46.935Y-115.874
X46.935Y-120.368
X46.935Y-124.862
X46.935Y-129.356
X46.935Y-133.85
X47.165Y-85.8
X49.475Y-102.392
X49.475Y-106.886
X49.475Y-111.38
X49.475Y-115.874
X49.475Y-120.368
X49.475Y-124.862
X49.475Y-129.356
X49.475Y-133.85
X49.705Y-85.8
X55.175Y-85.8
X57.45Y-98.225
X57.45Y-109.025
X57.715Y-85.8
X59.315Y-128.5
X59.99Y-98.225
X59.99Y-109.025
X60.255Y-85.8
X61.855Y-128.5
X62.53Y-98.225
X62.53Y-109.025
X64.395Y-128.5
X65.07Y-98.225
X65.07Y-109.025
X65.725Y-85.8
X66.935Y-128.5
X67.61Y-98.225
X67.61Y-109.025
X68.265Y-85.8
X69.475Y-128.5
X70.15Y-98.225
X70.15Y-109.025
X70.805Y-85.8
X72.015Y-128.5
X74.555Y-128.5
X77.095Y-128.5
X77.71Y-104.835
X77.71Y-107.375
X79.635Y-128.5
X79.87Y-93.73
X79.87Y-96.27
X80.25Y-104.835
X80.25Y-107.375
X82.175Y-128.5
X82.41Y-93.73
X82.41Y-96.27
X84.95Y-93.73
X84.95Y-96.27
X87.49Y-93.73
X87.49Y-96.27
X90.03Y-93.73
X90.03Y-96.27
X90.655Y-128.275
X92.57Y-93.73
X92.57Y-96.27
X93.195Y-128.275
X95.11Y-93.73
X95.11Y-96.27
X95.735Y-128.275
X97.65Y-93.73
X97.65Y-96.27
X98.275Y-128.275
X100.19Y-93.73
X100.19Y-96.27
X100.815Y-128.275
X102.73Y-93.73
X102.73Y-96.27
X103.355Y-128.275
X105.27Y-93.73
X105.27Y-96.27
X105.895Y-128.275
X107.81Y-93.73
X107.81Y-96.27
X108.435Y-128.275
X110.35Y-93.73
X110.35Y-96.27
X110.975Y-128.275
X112.89Y-93.73
X112.89Y-96.27
X113.515Y-128.275
X115.43Y-93.73
X115.43Y-96.27
X117.97Y-93.73
X117.97Y-96.27
X120.51Y-93.73
X120.51Y-96.27
X123.05Y-93.73
X123.05Y-96.27
X125.59Y-93.73
X125.59Y-96.27
X128.13Y-93.73
X128.13Y-96.27
T5
X129.88Y-63.5
X137.5Y-63.5
T6
X44.0Y-64.3
X44.0Y-76.5
X45.0Y-54.328
X50.0Y-54.328
X50.0Y-78.5
X55.0Y-54.328
X56.0Y-64.3
X56.0Y-76.5
X60.833Y-64.3
X60.833Y-76.5
X61.0Y-54.328
X66.0Y-54.328
X66.833Y-78.5
X71.0Y-54.328
X72.833Y-64.3
X72.833Y-76.5
X77.667Y-64.3
X77.667Y-76.5
X78.5Y-54.328
X83.5Y-54.328
X83.667Y-78.5
X88.5Y-54.328
X89.667Y-64.3
X89.667Y-76.5
X94.5Y-64.3
X94.5Y-76.5
X95.505Y-54.328
X100.5Y-78.5
X100.505Y-54.328
X105.505Y-54.328
X106.5Y-64.3
X106.5Y-76.5
X131.5Y-55.5
X136.5Y-55.5
T7
X76.04Y-136.675
X81.12Y-136.675
X86.2Y-136.675
X91.28Y-136.675
X96.36Y-136.675
X101.44Y-136.675
X106.52Y-136.675
X111.6Y-136.675
X116.68Y-136.675
X121.76Y-136.675
X126.84Y-136.675
X131.92Y-136.675
M30
