%TF.GenerationSoftware,KiCad,Pcbnew,9.0.6*%
%TF.CreationDate,2026-01-02T16:58:59-07:00*%
%TF.ProjectId,electronica,656c6563-7472-46f6-9e69-63612e6b6963,rev?*%
%TF.SameCoordinates,Original*%
%TF.FileFunction,Soldermask,Top*%
%TF.FilePolarity,Negative*%
%FSLAX46Y46*%
G04 Gerber Fmt 4.6, Leading zero omitted, Abs format (unit mm)*
G04 Created by KiCad (PCBNEW 9.0.6) date 2026-01-02 16:58:59*
%MOMM*%
%LPD*%
G01*
G04 APERTURE LIST*
G04 Aperture macros list*
%AMRoundRect*
0 Rectangle with rounded corners*
0 $1 Rounding radius*
0 $2 $3 $4 $5 $6 $7 $8 $9 X,Y pos of 4 corners*
0 Add a 4 corners polygon primitive as box body*
4,1,4,$2,$3,$4,$5,$6,$7,$8,$9,$2,$3,0*
0 Add four circle primitives for the rounded corners*
1,1,$1+$1,$2,$3*
1,1,$1+$1,$4,$5*
1,1,$1+$1,$6,$7*
1,1,$1+$1,$8,$9*
0 Add four rect primitives between the rounded corners*
20,1,$1+$1,$2,$3,$4,$5,0*
20,1,$1+$1,$4,$5,$6,$7,0*
20,1,$1+$1,$6,$7,$8,$9,0*
20,1,$1+$1,$8,$9,$2,$3,0*%
G04 Aperture macros list end*
%ADD10RoundRect,0.249999X-0.850001X-0.850001X0.850001X-0.850001X0.850001X0.850001X-0.850001X0.850001X0*%
%ADD11C,2.200000*%
%ADD12R,1.700000X1.700000*%
%ADD13C,1.700000*%
%ADD14RoundRect,0.250000X-0.325000X-0.650000X0.325000X-0.650000X0.325000X0.650000X-0.325000X0.650000X0*%
%ADD15RoundRect,0.250000X-0.550000X-0.550000X0.550000X-0.550000X0.550000X0.550000X-0.550000X0.550000X0*%
%ADD16C,1.600000*%
%ADD17RoundRect,0.250000X0.625000X-0.400000X0.625000X0.400000X-0.625000X0.400000X-0.625000X-0.400000X0*%
%ADD18RoundRect,0.250001X0.624999X-0.462499X0.624999X0.462499X-0.624999X0.462499X-0.624999X-0.462499X0*%
%ADD19RoundRect,0.250000X1.050000X1.050000X-1.050000X1.050000X-1.050000X-1.050000X1.050000X-1.050000X0*%
%ADD20C,2.600000*%
%ADD21R,1.350000X1.350000*%
%ADD22C,1.350000*%
%ADD23RoundRect,0.250000X-1.050000X-1.050000X1.050000X-1.050000X1.050000X1.050000X-1.050000X1.050000X0*%
%ADD24RoundRect,0.218750X0.218750X0.256250X-0.218750X0.256250X-0.218750X-0.256250X0.218750X-0.256250X0*%
%ADD25R,0.900000X0.900000*%
%ADD26R,2.800000X2.800000*%
%ADD27C,2.800000*%
%ADD28C,2.400000*%
%ADD29RoundRect,0.250000X1.000000X1.000000X-1.000000X1.000000X-1.000000X-1.000000X1.000000X-1.000000X0*%
%ADD30RoundRect,0.250000X-0.625000X0.400000X-0.625000X-0.400000X0.625000X-0.400000X0.625000X0.400000X0*%
%ADD31RoundRect,0.250001X-0.462499X-0.624999X0.462499X-0.624999X0.462499X0.624999X-0.462499X0.624999X0*%
%ADD32RoundRect,0.250000X-0.375000X-0.625000X0.375000X-0.625000X0.375000X0.625000X-0.375000X0.625000X0*%
%ADD33RoundRect,0.250000X-0.400000X-0.625000X0.400000X-0.625000X0.400000X0.625000X-0.400000X0.625000X0*%
%ADD34RoundRect,0.250000X0.325000X0.650000X-0.325000X0.650000X-0.325000X-0.650000X0.325000X-0.650000X0*%
%ADD35RoundRect,0.250000X0.400000X0.625000X-0.400000X0.625000X-0.400000X-0.625000X0.400000X-0.625000X0*%
%ADD36RoundRect,0.137500X-0.662500X-0.137500X0.662500X-0.137500X0.662500X0.137500X-0.662500X0.137500X0*%
%ADD37RoundRect,0.250001X0.462499X0.624999X-0.462499X0.624999X-0.462499X-0.624999X0.462499X-0.624999X0*%
%ADD38RoundRect,0.218750X-0.256250X0.218750X-0.256250X-0.218750X0.256250X-0.218750X0.256250X0.218750X0*%
%ADD39RoundRect,0.150000X0.150000X-1.050000X0.150000X1.050000X-0.150000X1.050000X-0.150000X-1.050000X0*%
%ADD40RoundRect,0.250001X-0.624999X0.462499X-0.624999X-0.462499X0.624999X-0.462499X0.624999X0.462499X0*%
%ADD41C,4.000000*%
%ADD42C,4.250000*%
%ADD43O,1.700000X1.700000*%
G04 APERTURE END LIST*
D10*
%TO.C,D1*%
X129880000Y-63500000D03*
D11*
X137500000Y-63500000D03*
%TD*%
D12*
%TO.C,AN7*%
X49475000Y-129355952D03*
D13*
X46935000Y-129355952D03*
X44395000Y-129355952D03*
%TD*%
D14*
%TO.C,CP2*%
X135050000Y-89000000D03*
X138000000Y-89000000D03*
%TD*%
D15*
%TO.C,CP1*%
X124500000Y-81000000D03*
D16*
X128000000Y-81000000D03*
%TD*%
D12*
%TO.C,U1*%
X90655000Y-128275000D03*
D13*
X93195000Y-128275000D03*
X95735000Y-128275000D03*
X98275000Y-128275000D03*
X100815000Y-128275000D03*
X103355000Y-128275000D03*
X105895000Y-128275000D03*
X108435000Y-128275000D03*
X110975000Y-128275000D03*
X113515000Y-128275000D03*
%TD*%
D17*
%TO.C,RP2*%
X132550000Y-104100000D03*
X132550000Y-101000000D03*
%TD*%
D12*
%TO.C,ON/OFF1*%
X55175000Y-85800000D03*
D13*
X57715000Y-85800000D03*
X60255000Y-85800000D03*
%TD*%
D18*
%TO.C,CH3*%
X119500000Y-55975000D03*
X119500000Y-53000000D03*
%TD*%
D19*
%TO.C,P3*%
X88500000Y-54327500D03*
D20*
X83500000Y-54327500D03*
X78500000Y-54327500D03*
%TD*%
D18*
%TO.C,CH5*%
X125975000Y-55925000D03*
X125975000Y-52950000D03*
%TD*%
D21*
%TO.C,J4*%
X102400000Y-102150000D03*
D22*
X104400000Y-102150000D03*
X106400000Y-102150000D03*
X108400000Y-102150000D03*
X110400000Y-102150000D03*
%TD*%
D12*
%TO.C,J1*%
X77710000Y-107375000D03*
D13*
X77710000Y-104835000D03*
X80250000Y-107375000D03*
X80250000Y-104835000D03*
%TD*%
D23*
%TO.C,PP1*%
X131500000Y-55500000D03*
D20*
X136500000Y-55500000D03*
%TD*%
D19*
%TO.C,P2*%
X71000000Y-54327500D03*
D20*
X66000000Y-54327500D03*
X61000000Y-54327500D03*
%TD*%
D12*
%TO.C,PWM1*%
X65725000Y-85800000D03*
D13*
X68265000Y-85800000D03*
X70805000Y-85800000D03*
%TD*%
D24*
%TO.C,F-RPB1*%
X123887500Y-101237500D03*
X122312500Y-101237500D03*
%TD*%
D12*
%TO.C,U4*%
X59315000Y-128500000D03*
D13*
X61855000Y-128500000D03*
X64395000Y-128500000D03*
X66935000Y-128500000D03*
X69475000Y-128500000D03*
X72015000Y-128500000D03*
X74555000Y-128500000D03*
X77095000Y-128500000D03*
X79635000Y-128500000D03*
X82175000Y-128500000D03*
%TD*%
D25*
%TO.C,RUpIND1*%
X130400000Y-111795000D03*
X130400000Y-113135000D03*
X130400000Y-114455000D03*
X130400000Y-115795000D03*
X133400000Y-115795000D03*
X133400000Y-114455000D03*
X133400000Y-113135000D03*
X133400000Y-111795000D03*
%TD*%
D18*
%TO.C,CH2*%
X116000000Y-55975000D03*
X116000000Y-53000000D03*
%TD*%
%TO.C,CH1*%
X112500000Y-55975000D03*
X112500000Y-53000000D03*
%TD*%
D26*
%TO.C,J3*%
X131920000Y-136675000D03*
D27*
X126840000Y-136675000D03*
X121760000Y-136675000D03*
X116680000Y-136675000D03*
X111600000Y-136675000D03*
X106520000Y-136675000D03*
X101440000Y-136675000D03*
X96360000Y-136675000D03*
X91280000Y-136675000D03*
X86200000Y-136675000D03*
X81120000Y-136675000D03*
X76040000Y-136675000D03*
%TD*%
D28*
%TO.C,RELAY1*%
X50000000Y-78500000D03*
X44000000Y-64300000D03*
X56000000Y-64300000D03*
D29*
X56000000Y-76500000D03*
D28*
X44000000Y-76500000D03*
%TD*%
D19*
%TO.C,P4*%
X105505000Y-54327500D03*
D20*
X100505000Y-54327500D03*
X95505000Y-54327500D03*
%TD*%
D21*
%TO.C,I2C1*%
X53475000Y-93275000D03*
D22*
X51475000Y-93275000D03*
X49475000Y-93275000D03*
X47475000Y-93275000D03*
%TD*%
D25*
%TO.C,R-IND1*%
X118900000Y-111690000D03*
X118900000Y-113030000D03*
X118900000Y-114350000D03*
X118900000Y-115690000D03*
X121900000Y-115690000D03*
X121900000Y-114350000D03*
X121900000Y-113030000D03*
X121900000Y-111690000D03*
%TD*%
D30*
%TO.C,RP4*%
X115325000Y-83375000D03*
X115325000Y-86475000D03*
%TD*%
D31*
%TO.C,IN2*%
X130150000Y-125733333D03*
X133125000Y-125733333D03*
%TD*%
D18*
%TO.C,CH4*%
X123000000Y-55975000D03*
X123000000Y-53000000D03*
%TD*%
D12*
%TO.C,U3*%
X70150000Y-98225000D03*
D13*
X70150000Y-109025000D03*
X67610000Y-98225000D03*
X67610000Y-109025000D03*
X65070000Y-98225000D03*
X65070000Y-109025000D03*
X62530000Y-98225000D03*
X62530000Y-109025000D03*
X59990000Y-98225000D03*
X59990000Y-109025000D03*
X57450000Y-98225000D03*
X57450000Y-109025000D03*
%TD*%
D28*
%TO.C,RELAY4*%
X100500000Y-78500000D03*
X94500000Y-64300000D03*
X106500000Y-64300000D03*
D29*
X106500000Y-76500000D03*
D28*
X94500000Y-76500000D03*
%TD*%
D12*
%TO.C,AN6*%
X49475000Y-124861905D03*
D13*
X46935000Y-124861905D03*
X44395000Y-124861905D03*
%TD*%
D32*
%TO.C,F-PWR1*%
X134600000Y-73000000D03*
X137400000Y-73000000D03*
%TD*%
D31*
%TO.C,IN1*%
X130100000Y-128925000D03*
X133075000Y-128925000D03*
%TD*%
D15*
%TO.C,CP3*%
X133500000Y-81000000D03*
D16*
X137000000Y-81000000D03*
%TD*%
D33*
%TO.C,R-ADDR-1*%
X64950000Y-141075000D03*
X68050000Y-141075000D03*
%TD*%
D34*
%TO.C,CP4*%
X130475000Y-88925000D03*
X127525000Y-88925000D03*
%TD*%
D12*
%TO.C,AN1*%
X49475000Y-102391667D03*
D13*
X46935000Y-102391667D03*
X44395000Y-102391667D03*
%TD*%
D35*
%TO.C,RP1*%
X132000000Y-68500000D03*
X128900000Y-68500000D03*
%TD*%
D36*
%TO.C,U5*%
X119575000Y-120230000D03*
X119575000Y-121500000D03*
X119575000Y-122770000D03*
X119575000Y-124040000D03*
X119575000Y-125310000D03*
X119575000Y-126580000D03*
X119575000Y-127850000D03*
X119575000Y-129120000D03*
X126075000Y-129120000D03*
X126075000Y-127850000D03*
X126075000Y-126580000D03*
X126075000Y-125310000D03*
X126075000Y-124040000D03*
X126075000Y-122770000D03*
X126075000Y-121500000D03*
X126075000Y-120230000D03*
%TD*%
D19*
%TO.C,P1*%
X55000000Y-54327500D03*
D20*
X50000000Y-54327500D03*
X45000000Y-54327500D03*
%TD*%
D12*
%TO.C,AN3*%
X49475000Y-111379762D03*
D13*
X46935000Y-111379762D03*
X44395000Y-111379762D03*
%TD*%
D37*
%TO.C,PWR-IN1*%
X137500000Y-68500000D03*
X134525000Y-68500000D03*
%TD*%
D12*
%TO.C,AN8*%
X49475000Y-133850000D03*
D13*
X46935000Y-133850000D03*
X44395000Y-133850000D03*
%TD*%
D25*
%TO.C,RA1*%
X112400000Y-84400000D03*
X111060000Y-84400000D03*
X109740000Y-84400000D03*
X108400000Y-84400000D03*
X108400000Y-87400000D03*
X109740000Y-87400000D03*
X111060000Y-87400000D03*
X112400000Y-87400000D03*
%TD*%
D38*
%TO.C,F-Sens1*%
X43675000Y-97450000D03*
X43675000Y-99025000D03*
%TD*%
D33*
%TO.C,R-Pwr-Flag1*%
X114500000Y-101475000D03*
X117600000Y-101475000D03*
%TD*%
D12*
%TO.C,Bomba1*%
X44625000Y-85800000D03*
D13*
X47165000Y-85800000D03*
X49705000Y-85800000D03*
%TD*%
D31*
%TO.C,IN3*%
X130150000Y-122541667D03*
X133125000Y-122541667D03*
%TD*%
D25*
%TO.C,RA3*%
X114000000Y-59840000D03*
X114000000Y-61180000D03*
X114000000Y-62500000D03*
X114000000Y-63840000D03*
X117000000Y-63840000D03*
X117000000Y-62500000D03*
X117000000Y-61180000D03*
X117000000Y-59840000D03*
%TD*%
D30*
%TO.C,RP3*%
X120550000Y-59725000D03*
X120550000Y-62825000D03*
%TD*%
D35*
%TO.C,R-ADDR-2*%
X59450000Y-141075000D03*
X56350000Y-141075000D03*
%TD*%
D39*
%TO.C,U2*%
X110610000Y-74500000D03*
X111880000Y-74500000D03*
X113150000Y-74500000D03*
X114420000Y-74500000D03*
X115690000Y-74500000D03*
X116960000Y-74500000D03*
X118230000Y-74500000D03*
X119500000Y-74500000D03*
X119500000Y-68000000D03*
X118230000Y-68000000D03*
X116960000Y-68000000D03*
X115690000Y-68000000D03*
X114420000Y-68000000D03*
X113150000Y-68000000D03*
X111880000Y-68000000D03*
X110610000Y-68000000D03*
%TD*%
D31*
%TO.C,IN4*%
X130150000Y-119350000D03*
X133125000Y-119350000D03*
%TD*%
D21*
%TO.C,UART1*%
X77000000Y-87500000D03*
D22*
X79000000Y-87500000D03*
X81000000Y-87500000D03*
X83000000Y-87500000D03*
X85000000Y-87500000D03*
%TD*%
D28*
%TO.C,RELAY3*%
X83666667Y-78500000D03*
X77666667Y-64300000D03*
X89666667Y-64300000D03*
D29*
X89666667Y-76500000D03*
D28*
X77666667Y-76500000D03*
%TD*%
D40*
%TO.C,PWR-OP1*%
X128225000Y-101200000D03*
X128225000Y-104175000D03*
%TD*%
D12*
%TO.C,AN2*%
X49475000Y-106885715D03*
D13*
X46935000Y-106885715D03*
X44395000Y-106885715D03*
%TD*%
D41*
%TO.C,J2*%
X75000000Y-95000000D03*
D42*
X75044000Y-144000000D03*
X133000000Y-95000000D03*
X133044000Y-144000000D03*
D12*
X79870000Y-96270000D03*
D43*
X79870000Y-93730000D03*
X82410000Y-96270000D03*
X82410000Y-93730000D03*
X84950000Y-96270000D03*
D13*
X84950000Y-93730000D03*
D43*
X87490000Y-96270000D03*
X87490000Y-93730000D03*
D13*
X90030000Y-96270000D03*
D43*
X90030000Y-93730000D03*
X92570000Y-96270000D03*
X92570000Y-93730000D03*
X95110000Y-96270000D03*
D13*
X95110000Y-93730000D03*
D43*
X97650000Y-96270000D03*
X97650000Y-93730000D03*
X100190000Y-96270000D03*
X100190000Y-93730000D03*
X102730000Y-96270000D03*
D13*
X102730000Y-93730000D03*
D43*
X105270000Y-96270000D03*
X105270000Y-93730000D03*
X107810000Y-96270000D03*
X107810000Y-93730000D03*
D13*
X110350000Y-96270000D03*
D43*
X110350000Y-93730000D03*
X112890000Y-96270000D03*
X112890000Y-93730000D03*
X115430000Y-96270000D03*
D13*
X115430000Y-93730000D03*
D43*
X117970000Y-96270000D03*
X117970000Y-93730000D03*
X120510000Y-96270000D03*
D13*
X120510000Y-93730000D03*
D43*
X123050000Y-96270000D03*
X123050000Y-93730000D03*
X125590000Y-96270000D03*
X125590000Y-93730000D03*
D13*
X128130000Y-96270000D03*
D43*
X128130000Y-93730000D03*
%TD*%
D12*
%TO.C,AN4*%
X49475000Y-115873810D03*
D13*
X46935000Y-115873810D03*
X44395000Y-115873810D03*
%TD*%
D12*
%TO.C,AN5*%
X49475000Y-120367857D03*
D13*
X46935000Y-120367857D03*
X44395000Y-120367857D03*
%TD*%
D28*
%TO.C,RELAY2*%
X66833333Y-78500000D03*
X60833333Y-64300000D03*
X72833333Y-64300000D03*
D29*
X72833333Y-76500000D03*
D28*
X60833333Y-76500000D03*
%TD*%
M02*
