%TF.GenerationSoftware,KiCad,Pcbnew,9.0.6*%
%TF.CreationDate,2026-01-02T16:58:59-07:00*%
%TF.ProjectId,electronica,656c6563-7472-46f6-9e69-63612e6b6963,rev?*%
%TF.SameCoordinates,Original*%
%TF.FileFunction,Soldermask,Bot*%
%TF.FilePolarity,Negative*%
%FSLAX46Y46*%
G04 Gerber Fmt 4.6, Leading zero omitted, Abs format (unit mm)*
G04 Created by KiCad (PCBNEW 9.0.6) date 2026-01-02 16:58:59*
%MOMM*%
%LPD*%
G01*
G04 APERTURE LIST*
G04 Aperture macros list*
%AMRoundRect*
0 Rectangle with rounded corners*
0 $1 Rounding radius*
0 $2 $3 $4 $5 $6 $7 $8 $9 X,Y pos of 4 corners*
0 Add a 4 corners polygon primitive as box body*
4,1,4,$2,$3,$4,$5,$6,$7,$8,$9,$2,$3,0*
0 Add four circle primitives for the rounded corners*
1,1,$1+$1,$2,$3*
1,1,$1+$1,$4,$5*
1,1,$1+$1,$6,$7*
1,1,$1+$1,$8,$9*
0 Add four rect primitives between the rounded corners*
20,1,$1+$1,$2,$3,$4,$5,0*
20,1,$1+$1,$4,$5,$6,$7,0*
20,1,$1+$1,$6,$7,$8,$9,0*
20,1,$1+$1,$8,$9,$2,$3,0*%
G04 Aperture macros list end*
%ADD10RoundRect,0.249999X-0.850001X-0.850001X0.850001X-0.850001X0.850001X0.850001X-0.850001X0.850001X0*%
%ADD11C,2.200000*%
%ADD12R,1.700000X1.700000*%
%ADD13C,1.700000*%
%ADD14RoundRect,0.250000X-0.550000X-0.550000X0.550000X-0.550000X0.550000X0.550000X-0.550000X0.550000X0*%
%ADD15C,1.600000*%
%ADD16RoundRect,0.250000X1.050000X1.050000X-1.050000X1.050000X-1.050000X-1.050000X1.050000X-1.050000X0*%
%ADD17C,2.600000*%
%ADD18R,1.350000X1.350000*%
%ADD19C,1.350000*%
%ADD20RoundRect,0.250000X-1.050000X-1.050000X1.050000X-1.050000X1.050000X1.050000X-1.050000X1.050000X0*%
%ADD21R,2.800000X2.800000*%
%ADD22C,2.800000*%
%ADD23C,2.400000*%
%ADD24RoundRect,0.250000X1.000000X1.000000X-1.000000X1.000000X-1.000000X-1.000000X1.000000X-1.000000X0*%
%ADD25C,4.000000*%
%ADD26C,4.250000*%
%ADD27O,1.700000X1.700000*%
G04 APERTURE END LIST*
D10*
%TO.C,D1*%
X129880000Y-63500000D03*
D11*
X137500000Y-63500000D03*
%TD*%
D12*
%TO.C,AN7*%
X49475000Y-129355952D03*
D13*
X46935000Y-129355952D03*
X44395000Y-129355952D03*
%TD*%
D14*
%TO.C,CP1*%
X124500000Y-81000000D03*
D15*
X128000000Y-81000000D03*
%TD*%
D12*
%TO.C,U1*%
X90655000Y-128275000D03*
D13*
X93195000Y-128275000D03*
X95735000Y-128275000D03*
X98275000Y-128275000D03*
X100815000Y-128275000D03*
X103355000Y-128275000D03*
X105895000Y-128275000D03*
X108435000Y-128275000D03*
X110975000Y-128275000D03*
X113515000Y-128275000D03*
%TD*%
D12*
%TO.C,ON/OFF1*%
X55175000Y-85800000D03*
D13*
X57715000Y-85800000D03*
X60255000Y-85800000D03*
%TD*%
D16*
%TO.C,P3*%
X88500000Y-54327500D03*
D17*
X83500000Y-54327500D03*
X78500000Y-54327500D03*
%TD*%
D18*
%TO.C,J4*%
X102400000Y-102150000D03*
D19*
X104400000Y-102150000D03*
X106400000Y-102150000D03*
X108400000Y-102150000D03*
X110400000Y-102150000D03*
%TD*%
D12*
%TO.C,J1*%
X77710000Y-107375000D03*
D13*
X77710000Y-104835000D03*
X80250000Y-107375000D03*
X80250000Y-104835000D03*
%TD*%
D20*
%TO.C,PP1*%
X131500000Y-55500000D03*
D17*
X136500000Y-55500000D03*
%TD*%
D16*
%TO.C,P2*%
X71000000Y-54327500D03*
D17*
X66000000Y-54327500D03*
X61000000Y-54327500D03*
%TD*%
D12*
%TO.C,PWM1*%
X65725000Y-85800000D03*
D13*
X68265000Y-85800000D03*
X70805000Y-85800000D03*
%TD*%
D12*
%TO.C,U4*%
X59315000Y-128500000D03*
D13*
X61855000Y-128500000D03*
X64395000Y-128500000D03*
X66935000Y-128500000D03*
X69475000Y-128500000D03*
X72015000Y-128500000D03*
X74555000Y-128500000D03*
X77095000Y-128500000D03*
X79635000Y-128500000D03*
X82175000Y-128500000D03*
%TD*%
D21*
%TO.C,J3*%
X131920000Y-136675000D03*
D22*
X126840000Y-136675000D03*
X121760000Y-136675000D03*
X116680000Y-136675000D03*
X111600000Y-136675000D03*
X106520000Y-136675000D03*
X101440000Y-136675000D03*
X96360000Y-136675000D03*
X91280000Y-136675000D03*
X86200000Y-136675000D03*
X81120000Y-136675000D03*
X76040000Y-136675000D03*
%TD*%
D23*
%TO.C,RELAY1*%
X50000000Y-78500000D03*
X44000000Y-64300000D03*
X56000000Y-64300000D03*
D24*
X56000000Y-76500000D03*
D23*
X44000000Y-76500000D03*
%TD*%
D16*
%TO.C,P4*%
X105505000Y-54327500D03*
D17*
X100505000Y-54327500D03*
X95505000Y-54327500D03*
%TD*%
D18*
%TO.C,I2C1*%
X53475000Y-93275000D03*
D19*
X51475000Y-93275000D03*
X49475000Y-93275000D03*
X47475000Y-93275000D03*
%TD*%
D12*
%TO.C,U3*%
X70150000Y-98225000D03*
D13*
X70150000Y-109025000D03*
X67610000Y-98225000D03*
X67610000Y-109025000D03*
X65070000Y-98225000D03*
X65070000Y-109025000D03*
X62530000Y-98225000D03*
X62530000Y-109025000D03*
X59990000Y-98225000D03*
X59990000Y-109025000D03*
X57450000Y-98225000D03*
X57450000Y-109025000D03*
%TD*%
D23*
%TO.C,RELAY4*%
X100500000Y-78500000D03*
X94500000Y-64300000D03*
X106500000Y-64300000D03*
D24*
X106500000Y-76500000D03*
D23*
X94500000Y-76500000D03*
%TD*%
D12*
%TO.C,AN6*%
X49475000Y-124861905D03*
D13*
X46935000Y-124861905D03*
X44395000Y-124861905D03*
%TD*%
D14*
%TO.C,CP3*%
X133500000Y-81000000D03*
D15*
X137000000Y-81000000D03*
%TD*%
D12*
%TO.C,AN1*%
X49475000Y-102391667D03*
D13*
X46935000Y-102391667D03*
X44395000Y-102391667D03*
%TD*%
D16*
%TO.C,P1*%
X55000000Y-54327500D03*
D17*
X50000000Y-54327500D03*
X45000000Y-54327500D03*
%TD*%
D12*
%TO.C,AN3*%
X49475000Y-111379762D03*
D13*
X46935000Y-111379762D03*
X44395000Y-111379762D03*
%TD*%
D12*
%TO.C,AN8*%
X49475000Y-133850000D03*
D13*
X46935000Y-133850000D03*
X44395000Y-133850000D03*
%TD*%
D12*
%TO.C,Bomba1*%
X44625000Y-85800000D03*
D13*
X47165000Y-85800000D03*
X49705000Y-85800000D03*
%TD*%
D18*
%TO.C,UART1*%
X77000000Y-87500000D03*
D19*
X79000000Y-87500000D03*
X81000000Y-87500000D03*
X83000000Y-87500000D03*
X85000000Y-87500000D03*
%TD*%
D23*
%TO.C,RELAY3*%
X83666667Y-78500000D03*
X77666667Y-64300000D03*
X89666667Y-64300000D03*
D24*
X89666667Y-76500000D03*
D23*
X77666667Y-76500000D03*
%TD*%
D12*
%TO.C,AN2*%
X49475000Y-106885715D03*
D13*
X46935000Y-106885715D03*
X44395000Y-106885715D03*
%TD*%
D25*
%TO.C,J2*%
X75000000Y-95000000D03*
D26*
X75044000Y-144000000D03*
X133000000Y-95000000D03*
X133044000Y-144000000D03*
D12*
X79870000Y-96270000D03*
D27*
X79870000Y-93730000D03*
X82410000Y-96270000D03*
X82410000Y-93730000D03*
X84950000Y-96270000D03*
D13*
X84950000Y-93730000D03*
D27*
X87490000Y-96270000D03*
X87490000Y-93730000D03*
D13*
X90030000Y-96270000D03*
D27*
X90030000Y-93730000D03*
X92570000Y-96270000D03*
X92570000Y-93730000D03*
X95110000Y-96270000D03*
D13*
X95110000Y-93730000D03*
D27*
X97650000Y-96270000D03*
X97650000Y-93730000D03*
X100190000Y-96270000D03*
X100190000Y-93730000D03*
X102730000Y-96270000D03*
D13*
X102730000Y-93730000D03*
D27*
X105270000Y-96270000D03*
X105270000Y-93730000D03*
X107810000Y-96270000D03*
X107810000Y-93730000D03*
D13*
X110350000Y-96270000D03*
D27*
X110350000Y-93730000D03*
X112890000Y-96270000D03*
X112890000Y-93730000D03*
X115430000Y-96270000D03*
D13*
X115430000Y-93730000D03*
D27*
X117970000Y-96270000D03*
X117970000Y-93730000D03*
X120510000Y-96270000D03*
D13*
X120510000Y-93730000D03*
D27*
X123050000Y-96270000D03*
X123050000Y-93730000D03*
X125590000Y-96270000D03*
X125590000Y-93730000D03*
D13*
X128130000Y-96270000D03*
D27*
X128130000Y-93730000D03*
%TD*%
D12*
%TO.C,AN4*%
X49475000Y-115873810D03*
D13*
X46935000Y-115873810D03*
X44395000Y-115873810D03*
%TD*%
D12*
%TO.C,AN5*%
X49475000Y-120367857D03*
D13*
X46935000Y-120367857D03*
X44395000Y-120367857D03*
%TD*%
D23*
%TO.C,RELAY2*%
X66833333Y-78500000D03*
X60833333Y-64300000D03*
X72833333Y-64300000D03*
D24*
X72833333Y-76500000D03*
D23*
X60833333Y-76500000D03*
%TD*%
M02*
