%TF.GenerationSoftware,KiCad,Pcbnew,9.0.6*%
%TF.CreationDate,2025-12-26T20:10:20-07:00*%
%TF.ProjectId,electronica,656c6563-7472-46f6-9e69-63612e6b6963,rev?*%
%TF.SameCoordinates,Original*%
%TF.FileFunction,Legend,Top*%
%TF.FilePolarity,Positive*%
%FSLAX46Y46*%
G04 Gerber Fmt 4.6, Leading zero omitted, Abs format (unit mm)*
G04 Created by KiCad (PCBNEW 9.0.6) date 2025-12-26 20:10:20*
%MOMM*%
%LPD*%
G01*
G04 APERTURE LIST*
%ADD10C,0.300000*%
%ADD11C,0.200000*%
%ADD12C,0.150000*%
%ADD13C,0.120000*%
%ADD14C,4.000000*%
G04 APERTURE END LIST*
D10*
X138300828Y-137445489D02*
X136800828Y-137445489D01*
X136800828Y-137445489D02*
X136800828Y-136874060D01*
X136800828Y-136874060D02*
X136872257Y-136731203D01*
X136872257Y-136731203D02*
X136943685Y-136659774D01*
X136943685Y-136659774D02*
X137086542Y-136588346D01*
X137086542Y-136588346D02*
X137300828Y-136588346D01*
X137300828Y-136588346D02*
X137443685Y-136659774D01*
X137443685Y-136659774D02*
X137515114Y-136731203D01*
X137515114Y-136731203D02*
X137586542Y-136874060D01*
X137586542Y-136874060D02*
X137586542Y-137445489D01*
X138300828Y-135088346D02*
X137586542Y-135588346D01*
X138300828Y-135945489D02*
X136800828Y-135945489D01*
X136800828Y-135945489D02*
X136800828Y-135374060D01*
X136800828Y-135374060D02*
X136872257Y-135231203D01*
X136872257Y-135231203D02*
X136943685Y-135159774D01*
X136943685Y-135159774D02*
X137086542Y-135088346D01*
X137086542Y-135088346D02*
X137300828Y-135088346D01*
X137300828Y-135088346D02*
X137443685Y-135159774D01*
X137443685Y-135159774D02*
X137515114Y-135231203D01*
X137515114Y-135231203D02*
X137586542Y-135374060D01*
X137586542Y-135374060D02*
X137586542Y-135945489D01*
X137515114Y-134445489D02*
X137515114Y-133945489D01*
X138300828Y-133731203D02*
X138300828Y-134445489D01*
X138300828Y-134445489D02*
X136800828Y-134445489D01*
X136800828Y-134445489D02*
X136800828Y-133731203D01*
X138157971Y-132231203D02*
X138229400Y-132302631D01*
X138229400Y-132302631D02*
X138300828Y-132516917D01*
X138300828Y-132516917D02*
X138300828Y-132659774D01*
X138300828Y-132659774D02*
X138229400Y-132874060D01*
X138229400Y-132874060D02*
X138086542Y-133016917D01*
X138086542Y-133016917D02*
X137943685Y-133088346D01*
X137943685Y-133088346D02*
X137657971Y-133159774D01*
X137657971Y-133159774D02*
X137443685Y-133159774D01*
X137443685Y-133159774D02*
X137157971Y-133088346D01*
X137157971Y-133088346D02*
X137015114Y-133016917D01*
X137015114Y-133016917D02*
X136872257Y-132874060D01*
X136872257Y-132874060D02*
X136800828Y-132659774D01*
X136800828Y-132659774D02*
X136800828Y-132516917D01*
X136800828Y-132516917D02*
X136872257Y-132302631D01*
X136872257Y-132302631D02*
X136943685Y-132231203D01*
X138300828Y-131588346D02*
X136800828Y-131588346D01*
X138229400Y-130945488D02*
X138300828Y-130731203D01*
X138300828Y-130731203D02*
X138300828Y-130374060D01*
X138300828Y-130374060D02*
X138229400Y-130231203D01*
X138229400Y-130231203D02*
X138157971Y-130159774D01*
X138157971Y-130159774D02*
X138015114Y-130088345D01*
X138015114Y-130088345D02*
X137872257Y-130088345D01*
X137872257Y-130088345D02*
X137729400Y-130159774D01*
X137729400Y-130159774D02*
X137657971Y-130231203D01*
X137657971Y-130231203D02*
X137586542Y-130374060D01*
X137586542Y-130374060D02*
X137515114Y-130659774D01*
X137515114Y-130659774D02*
X137443685Y-130802631D01*
X137443685Y-130802631D02*
X137372257Y-130874060D01*
X137372257Y-130874060D02*
X137229400Y-130945488D01*
X137229400Y-130945488D02*
X137086542Y-130945488D01*
X137086542Y-130945488D02*
X136943685Y-130874060D01*
X136943685Y-130874060D02*
X136872257Y-130802631D01*
X136872257Y-130802631D02*
X136800828Y-130659774D01*
X136800828Y-130659774D02*
X136800828Y-130302631D01*
X136800828Y-130302631D02*
X136872257Y-130088345D01*
X138300828Y-129445489D02*
X136800828Y-129445489D01*
X136800828Y-128445488D02*
X136800828Y-128159774D01*
X136800828Y-128159774D02*
X136872257Y-128016917D01*
X136872257Y-128016917D02*
X137015114Y-127874060D01*
X137015114Y-127874060D02*
X137300828Y-127802631D01*
X137300828Y-127802631D02*
X137800828Y-127802631D01*
X137800828Y-127802631D02*
X138086542Y-127874060D01*
X138086542Y-127874060D02*
X138229400Y-128016917D01*
X138229400Y-128016917D02*
X138300828Y-128159774D01*
X138300828Y-128159774D02*
X138300828Y-128445488D01*
X138300828Y-128445488D02*
X138229400Y-128588346D01*
X138229400Y-128588346D02*
X138086542Y-128731203D01*
X138086542Y-128731203D02*
X137800828Y-128802631D01*
X137800828Y-128802631D02*
X137300828Y-128802631D01*
X137300828Y-128802631D02*
X137015114Y-128731203D01*
X137015114Y-128731203D02*
X136872257Y-128588346D01*
X136872257Y-128588346D02*
X136800828Y-128445488D01*
X138300828Y-127159774D02*
X136800828Y-127159774D01*
X136800828Y-127159774D02*
X138300828Y-126302631D01*
X138300828Y-126302631D02*
X136800828Y-126302631D01*
X137872257Y-124516916D02*
X137872257Y-123802631D01*
X138300828Y-124659773D02*
X136800828Y-124159773D01*
X136800828Y-124159773D02*
X138300828Y-123659773D01*
X136872257Y-122374059D02*
X136800828Y-122516917D01*
X136800828Y-122516917D02*
X136800828Y-122731202D01*
X136800828Y-122731202D02*
X136872257Y-122945488D01*
X136872257Y-122945488D02*
X137015114Y-123088345D01*
X137015114Y-123088345D02*
X137157971Y-123159774D01*
X137157971Y-123159774D02*
X137443685Y-123231202D01*
X137443685Y-123231202D02*
X137657971Y-123231202D01*
X137657971Y-123231202D02*
X137943685Y-123159774D01*
X137943685Y-123159774D02*
X138086542Y-123088345D01*
X138086542Y-123088345D02*
X138229400Y-122945488D01*
X138229400Y-122945488D02*
X138300828Y-122731202D01*
X138300828Y-122731202D02*
X138300828Y-122588345D01*
X138300828Y-122588345D02*
X138229400Y-122374059D01*
X138229400Y-122374059D02*
X138157971Y-122302631D01*
X138157971Y-122302631D02*
X137657971Y-122302631D01*
X137657971Y-122302631D02*
X137657971Y-122588345D01*
X138300828Y-120802631D02*
X137586542Y-121302631D01*
X138300828Y-121659774D02*
X136800828Y-121659774D01*
X136800828Y-121659774D02*
X136800828Y-121088345D01*
X136800828Y-121088345D02*
X136872257Y-120945488D01*
X136872257Y-120945488D02*
X136943685Y-120874059D01*
X136943685Y-120874059D02*
X137086542Y-120802631D01*
X137086542Y-120802631D02*
X137300828Y-120802631D01*
X137300828Y-120802631D02*
X137443685Y-120874059D01*
X137443685Y-120874059D02*
X137515114Y-120945488D01*
X137515114Y-120945488D02*
X137586542Y-121088345D01*
X137586542Y-121088345D02*
X137586542Y-121659774D01*
X138300828Y-120159774D02*
X136800828Y-120159774D01*
X138157971Y-118588345D02*
X138229400Y-118659773D01*
X138229400Y-118659773D02*
X138300828Y-118874059D01*
X138300828Y-118874059D02*
X138300828Y-119016916D01*
X138300828Y-119016916D02*
X138229400Y-119231202D01*
X138229400Y-119231202D02*
X138086542Y-119374059D01*
X138086542Y-119374059D02*
X137943685Y-119445488D01*
X137943685Y-119445488D02*
X137657971Y-119516916D01*
X137657971Y-119516916D02*
X137443685Y-119516916D01*
X137443685Y-119516916D02*
X137157971Y-119445488D01*
X137157971Y-119445488D02*
X137015114Y-119374059D01*
X137015114Y-119374059D02*
X136872257Y-119231202D01*
X136872257Y-119231202D02*
X136800828Y-119016916D01*
X136800828Y-119016916D02*
X136800828Y-118874059D01*
X136800828Y-118874059D02*
X136872257Y-118659773D01*
X136872257Y-118659773D02*
X136943685Y-118588345D01*
X136800828Y-117659773D02*
X136800828Y-117374059D01*
X136800828Y-117374059D02*
X136872257Y-117231202D01*
X136872257Y-117231202D02*
X137015114Y-117088345D01*
X137015114Y-117088345D02*
X137300828Y-117016916D01*
X137300828Y-117016916D02*
X137800828Y-117016916D01*
X137800828Y-117016916D02*
X138086542Y-117088345D01*
X138086542Y-117088345D02*
X138229400Y-117231202D01*
X138229400Y-117231202D02*
X138300828Y-117374059D01*
X138300828Y-117374059D02*
X138300828Y-117659773D01*
X138300828Y-117659773D02*
X138229400Y-117802631D01*
X138229400Y-117802631D02*
X138086542Y-117945488D01*
X138086542Y-117945488D02*
X137800828Y-118016916D01*
X137800828Y-118016916D02*
X137300828Y-118016916D01*
X137300828Y-118016916D02*
X137015114Y-117945488D01*
X137015114Y-117945488D02*
X136872257Y-117802631D01*
X136872257Y-117802631D02*
X136800828Y-117659773D01*
X138300828Y-115659773D02*
X138300828Y-116374059D01*
X138300828Y-116374059D02*
X136800828Y-116374059D01*
X137872257Y-115231201D02*
X137872257Y-114516916D01*
X138300828Y-115374058D02*
X136800828Y-114874058D01*
X136800828Y-114874058D02*
X138300828Y-114374058D01*
X137515114Y-112231202D02*
X137586542Y-112016916D01*
X137586542Y-112016916D02*
X137657971Y-111945487D01*
X137657971Y-111945487D02*
X137800828Y-111874059D01*
X137800828Y-111874059D02*
X138015114Y-111874059D01*
X138015114Y-111874059D02*
X138157971Y-111945487D01*
X138157971Y-111945487D02*
X138229400Y-112016916D01*
X138229400Y-112016916D02*
X138300828Y-112159773D01*
X138300828Y-112159773D02*
X138300828Y-112731202D01*
X138300828Y-112731202D02*
X136800828Y-112731202D01*
X136800828Y-112731202D02*
X136800828Y-112231202D01*
X136800828Y-112231202D02*
X136872257Y-112088345D01*
X136872257Y-112088345D02*
X136943685Y-112016916D01*
X136943685Y-112016916D02*
X137086542Y-111945487D01*
X137086542Y-111945487D02*
X137229400Y-111945487D01*
X137229400Y-111945487D02*
X137372257Y-112016916D01*
X137372257Y-112016916D02*
X137443685Y-112088345D01*
X137443685Y-112088345D02*
X137515114Y-112231202D01*
X137515114Y-112231202D02*
X137515114Y-112731202D01*
X138300828Y-111231202D02*
X136800828Y-111231202D01*
X136800828Y-110231201D02*
X136800828Y-109945487D01*
X136800828Y-109945487D02*
X136872257Y-109802630D01*
X136872257Y-109802630D02*
X137015114Y-109659773D01*
X137015114Y-109659773D02*
X137300828Y-109588344D01*
X137300828Y-109588344D02*
X137800828Y-109588344D01*
X137800828Y-109588344D02*
X138086542Y-109659773D01*
X138086542Y-109659773D02*
X138229400Y-109802630D01*
X138229400Y-109802630D02*
X138300828Y-109945487D01*
X138300828Y-109945487D02*
X138300828Y-110231201D01*
X138300828Y-110231201D02*
X138229400Y-110374059D01*
X138229400Y-110374059D02*
X138086542Y-110516916D01*
X138086542Y-110516916D02*
X137800828Y-110588344D01*
X137800828Y-110588344D02*
X137300828Y-110588344D01*
X137300828Y-110588344D02*
X137015114Y-110516916D01*
X137015114Y-110516916D02*
X136872257Y-110374059D01*
X136872257Y-110374059D02*
X136800828Y-110231201D01*
X137729400Y-108945487D02*
X137729400Y-107802630D01*
X138300828Y-106231201D02*
X137586542Y-106731201D01*
X138300828Y-107088344D02*
X136800828Y-107088344D01*
X136800828Y-107088344D02*
X136800828Y-106516915D01*
X136800828Y-106516915D02*
X136872257Y-106374058D01*
X136872257Y-106374058D02*
X136943685Y-106302629D01*
X136943685Y-106302629D02*
X137086542Y-106231201D01*
X137086542Y-106231201D02*
X137300828Y-106231201D01*
X137300828Y-106231201D02*
X137443685Y-106302629D01*
X137443685Y-106302629D02*
X137515114Y-106374058D01*
X137515114Y-106374058D02*
X137586542Y-106516915D01*
X137586542Y-106516915D02*
X137586542Y-107088344D01*
X138300828Y-105588344D02*
X136800828Y-105588344D01*
X136800828Y-105588344D02*
X136800828Y-105016915D01*
X136800828Y-105016915D02*
X136872257Y-104874058D01*
X136872257Y-104874058D02*
X136943685Y-104802629D01*
X136943685Y-104802629D02*
X137086542Y-104731201D01*
X137086542Y-104731201D02*
X137300828Y-104731201D01*
X137300828Y-104731201D02*
X137443685Y-104802629D01*
X137443685Y-104802629D02*
X137515114Y-104874058D01*
X137515114Y-104874058D02*
X137586542Y-105016915D01*
X137586542Y-105016915D02*
X137586542Y-105588344D01*
X137515114Y-103588344D02*
X137586542Y-103374058D01*
X137586542Y-103374058D02*
X137657971Y-103302629D01*
X137657971Y-103302629D02*
X137800828Y-103231201D01*
X137800828Y-103231201D02*
X138015114Y-103231201D01*
X138015114Y-103231201D02*
X138157971Y-103302629D01*
X138157971Y-103302629D02*
X138229400Y-103374058D01*
X138229400Y-103374058D02*
X138300828Y-103516915D01*
X138300828Y-103516915D02*
X138300828Y-104088344D01*
X138300828Y-104088344D02*
X136800828Y-104088344D01*
X136800828Y-104088344D02*
X136800828Y-103588344D01*
X136800828Y-103588344D02*
X136872257Y-103445487D01*
X136872257Y-103445487D02*
X136943685Y-103374058D01*
X136943685Y-103374058D02*
X137086542Y-103302629D01*
X137086542Y-103302629D02*
X137229400Y-103302629D01*
X137229400Y-103302629D02*
X137372257Y-103374058D01*
X137372257Y-103374058D02*
X137443685Y-103445487D01*
X137443685Y-103445487D02*
X137515114Y-103588344D01*
X137515114Y-103588344D02*
X137515114Y-104088344D01*
X138300828Y-101802629D02*
X138300828Y-102659772D01*
X138300828Y-102231201D02*
X136800828Y-102231201D01*
X136800828Y-102231201D02*
X137015114Y-102374058D01*
X137015114Y-102374058D02*
X137157971Y-102516915D01*
X137157971Y-102516915D02*
X137229400Y-102659772D01*
D11*
X93879824Y-137404761D02*
X93927443Y-137261904D01*
X93927443Y-137261904D02*
X93927443Y-137023809D01*
X93927443Y-137023809D02*
X93879824Y-136928571D01*
X93879824Y-136928571D02*
X93832204Y-136880952D01*
X93832204Y-136880952D02*
X93736966Y-136833333D01*
X93736966Y-136833333D02*
X93641728Y-136833333D01*
X93641728Y-136833333D02*
X93546490Y-136880952D01*
X93546490Y-136880952D02*
X93498871Y-136928571D01*
X93498871Y-136928571D02*
X93451252Y-137023809D01*
X93451252Y-137023809D02*
X93403633Y-137214285D01*
X93403633Y-137214285D02*
X93356014Y-137309523D01*
X93356014Y-137309523D02*
X93308395Y-137357142D01*
X93308395Y-137357142D02*
X93213157Y-137404761D01*
X93213157Y-137404761D02*
X93117919Y-137404761D01*
X93117919Y-137404761D02*
X93022681Y-137357142D01*
X93022681Y-137357142D02*
X92975062Y-137309523D01*
X92975062Y-137309523D02*
X92927443Y-137214285D01*
X92927443Y-137214285D02*
X92927443Y-136976190D01*
X92927443Y-136976190D02*
X92975062Y-136833333D01*
X96766378Y-138785713D02*
X96766378Y-138023809D01*
X97147331Y-138404761D02*
X96385426Y-138404761D01*
X96147331Y-137071428D02*
X96147331Y-137547618D01*
X96147331Y-137547618D02*
X96623521Y-137595237D01*
X96623521Y-137595237D02*
X96575902Y-137547618D01*
X96575902Y-137547618D02*
X96528283Y-137452380D01*
X96528283Y-137452380D02*
X96528283Y-137214285D01*
X96528283Y-137214285D02*
X96575902Y-137119047D01*
X96575902Y-137119047D02*
X96623521Y-137071428D01*
X96623521Y-137071428D02*
X96718759Y-137023809D01*
X96718759Y-137023809D02*
X96956854Y-137023809D01*
X96956854Y-137023809D02*
X97052092Y-137071428D01*
X97052092Y-137071428D02*
X97099712Y-137119047D01*
X97099712Y-137119047D02*
X97147331Y-137214285D01*
X97147331Y-137214285D02*
X97147331Y-137452380D01*
X97147331Y-137452380D02*
X97099712Y-137547618D01*
X97099712Y-137547618D02*
X97052092Y-137595237D01*
X96147331Y-136738094D02*
X97147331Y-136404761D01*
X97147331Y-136404761D02*
X96147331Y-136071428D01*
X99414838Y-138261904D02*
X99367219Y-138357142D01*
X99367219Y-138357142D02*
X99367219Y-138499999D01*
X99367219Y-138499999D02*
X99414838Y-138642856D01*
X99414838Y-138642856D02*
X99510076Y-138738094D01*
X99510076Y-138738094D02*
X99605314Y-138785713D01*
X99605314Y-138785713D02*
X99795790Y-138833332D01*
X99795790Y-138833332D02*
X99938647Y-138833332D01*
X99938647Y-138833332D02*
X100129123Y-138785713D01*
X100129123Y-138785713D02*
X100224361Y-138738094D01*
X100224361Y-138738094D02*
X100319600Y-138642856D01*
X100319600Y-138642856D02*
X100367219Y-138499999D01*
X100367219Y-138499999D02*
X100367219Y-138404761D01*
X100367219Y-138404761D02*
X100319600Y-138261904D01*
X100319600Y-138261904D02*
X100271980Y-138214285D01*
X100271980Y-138214285D02*
X99938647Y-138214285D01*
X99938647Y-138214285D02*
X99938647Y-138404761D01*
X100367219Y-137785713D02*
X99367219Y-137785713D01*
X99367219Y-137785713D02*
X100367219Y-137214285D01*
X100367219Y-137214285D02*
X99367219Y-137214285D01*
X100367219Y-136738094D02*
X99367219Y-136738094D01*
X99367219Y-136738094D02*
X99367219Y-136499999D01*
X99367219Y-136499999D02*
X99414838Y-136357142D01*
X99414838Y-136357142D02*
X99510076Y-136261904D01*
X99510076Y-136261904D02*
X99605314Y-136214285D01*
X99605314Y-136214285D02*
X99795790Y-136166666D01*
X99795790Y-136166666D02*
X99938647Y-136166666D01*
X99938647Y-136166666D02*
X100129123Y-136214285D01*
X100129123Y-136214285D02*
X100224361Y-136261904D01*
X100224361Y-136261904D02*
X100319600Y-136357142D01*
X100319600Y-136357142D02*
X100367219Y-136499999D01*
X100367219Y-136499999D02*
X100367219Y-136738094D01*
D10*
X95290796Y-104960828D02*
X94576510Y-104960828D01*
X94576510Y-104960828D02*
X94505082Y-105675114D01*
X94505082Y-105675114D02*
X94576510Y-105603685D01*
X94576510Y-105603685D02*
X94719368Y-105532257D01*
X94719368Y-105532257D02*
X95076510Y-105532257D01*
X95076510Y-105532257D02*
X95219368Y-105603685D01*
X95219368Y-105603685D02*
X95290796Y-105675114D01*
X95290796Y-105675114D02*
X95362225Y-105817971D01*
X95362225Y-105817971D02*
X95362225Y-106175114D01*
X95362225Y-106175114D02*
X95290796Y-106317971D01*
X95290796Y-106317971D02*
X95219368Y-106389400D01*
X95219368Y-106389400D02*
X95076510Y-106460828D01*
X95076510Y-106460828D02*
X94719368Y-106460828D01*
X94719368Y-106460828D02*
X94576510Y-106389400D01*
X94576510Y-106389400D02*
X94505082Y-106317971D01*
X96005081Y-105889400D02*
X97147939Y-105889400D01*
X97862224Y-106460828D02*
X97862224Y-104960828D01*
X97862224Y-104960828D02*
X98362224Y-106032257D01*
X98362224Y-106032257D02*
X98862224Y-104960828D01*
X98862224Y-104960828D02*
X98862224Y-106460828D01*
X99862225Y-104960828D02*
X100147939Y-104960828D01*
X100147939Y-104960828D02*
X100290796Y-105032257D01*
X100290796Y-105032257D02*
X100433653Y-105175114D01*
X100433653Y-105175114D02*
X100505082Y-105460828D01*
X100505082Y-105460828D02*
X100505082Y-105960828D01*
X100505082Y-105960828D02*
X100433653Y-106246542D01*
X100433653Y-106246542D02*
X100290796Y-106389400D01*
X100290796Y-106389400D02*
X100147939Y-106460828D01*
X100147939Y-106460828D02*
X99862225Y-106460828D01*
X99862225Y-106460828D02*
X99719368Y-106389400D01*
X99719368Y-106389400D02*
X99576510Y-106246542D01*
X99576510Y-106246542D02*
X99505082Y-105960828D01*
X99505082Y-105960828D02*
X99505082Y-105460828D01*
X99505082Y-105460828D02*
X99576510Y-105175114D01*
X99576510Y-105175114D02*
X99719368Y-105032257D01*
X99719368Y-105032257D02*
X99862225Y-104960828D01*
X101076511Y-106389400D02*
X101290797Y-106460828D01*
X101290797Y-106460828D02*
X101647939Y-106460828D01*
X101647939Y-106460828D02*
X101790797Y-106389400D01*
X101790797Y-106389400D02*
X101862225Y-106317971D01*
X101862225Y-106317971D02*
X101933654Y-106175114D01*
X101933654Y-106175114D02*
X101933654Y-106032257D01*
X101933654Y-106032257D02*
X101862225Y-105889400D01*
X101862225Y-105889400D02*
X101790797Y-105817971D01*
X101790797Y-105817971D02*
X101647939Y-105746542D01*
X101647939Y-105746542D02*
X101362225Y-105675114D01*
X101362225Y-105675114D02*
X101219368Y-105603685D01*
X101219368Y-105603685D02*
X101147939Y-105532257D01*
X101147939Y-105532257D02*
X101076511Y-105389400D01*
X101076511Y-105389400D02*
X101076511Y-105246542D01*
X101076511Y-105246542D02*
X101147939Y-105103685D01*
X101147939Y-105103685D02*
X101219368Y-105032257D01*
X101219368Y-105032257D02*
X101362225Y-104960828D01*
X101362225Y-104960828D02*
X101719368Y-104960828D01*
X101719368Y-104960828D02*
X101933654Y-105032257D01*
X102576510Y-106460828D02*
X102576510Y-104960828D01*
X103290796Y-105889400D02*
X104433654Y-105889400D01*
X105147939Y-106460828D02*
X105147939Y-104960828D01*
X105147939Y-104960828D02*
X105647939Y-106032257D01*
X105647939Y-106032257D02*
X106147939Y-104960828D01*
X106147939Y-104960828D02*
X106147939Y-106460828D01*
X106862225Y-106460828D02*
X106862225Y-104960828D01*
X107505083Y-106389400D02*
X107719369Y-106460828D01*
X107719369Y-106460828D02*
X108076511Y-106460828D01*
X108076511Y-106460828D02*
X108219369Y-106389400D01*
X108219369Y-106389400D02*
X108290797Y-106317971D01*
X108290797Y-106317971D02*
X108362226Y-106175114D01*
X108362226Y-106175114D02*
X108362226Y-106032257D01*
X108362226Y-106032257D02*
X108290797Y-105889400D01*
X108290797Y-105889400D02*
X108219369Y-105817971D01*
X108219369Y-105817971D02*
X108076511Y-105746542D01*
X108076511Y-105746542D02*
X107790797Y-105675114D01*
X107790797Y-105675114D02*
X107647940Y-105603685D01*
X107647940Y-105603685D02*
X107576511Y-105532257D01*
X107576511Y-105532257D02*
X107505083Y-105389400D01*
X107505083Y-105389400D02*
X107505083Y-105246542D01*
X107505083Y-105246542D02*
X107576511Y-105103685D01*
X107576511Y-105103685D02*
X107647940Y-105032257D01*
X107647940Y-105032257D02*
X107790797Y-104960828D01*
X107790797Y-104960828D02*
X108147940Y-104960828D01*
X108147940Y-104960828D02*
X108362226Y-105032257D01*
X109290797Y-104960828D02*
X109576511Y-104960828D01*
X109576511Y-104960828D02*
X109719368Y-105032257D01*
X109719368Y-105032257D02*
X109862225Y-105175114D01*
X109862225Y-105175114D02*
X109933654Y-105460828D01*
X109933654Y-105460828D02*
X109933654Y-105960828D01*
X109933654Y-105960828D02*
X109862225Y-106246542D01*
X109862225Y-106246542D02*
X109719368Y-106389400D01*
X109719368Y-106389400D02*
X109576511Y-106460828D01*
X109576511Y-106460828D02*
X109290797Y-106460828D01*
X109290797Y-106460828D02*
X109147940Y-106389400D01*
X109147940Y-106389400D02*
X109005082Y-106246542D01*
X109005082Y-106246542D02*
X108933654Y-105960828D01*
X108933654Y-105960828D02*
X108933654Y-105460828D01*
X108933654Y-105460828D02*
X109005082Y-105175114D01*
X109005082Y-105175114D02*
X109147940Y-105032257D01*
X109147940Y-105032257D02*
X109290797Y-104960828D01*
X110576511Y-105889400D02*
X111719369Y-105889400D01*
X112433654Y-106460828D02*
X112433654Y-104960828D01*
X112433654Y-104960828D02*
X113290797Y-106460828D01*
X113290797Y-106460828D02*
X113290797Y-104960828D01*
X113933655Y-106032257D02*
X114647941Y-106032257D01*
X113790798Y-106460828D02*
X114290798Y-104960828D01*
X114290798Y-104960828D02*
X114790798Y-106460828D01*
X115290797Y-105889400D02*
X116433655Y-105889400D01*
X117933655Y-105032257D02*
X117790798Y-104960828D01*
X117790798Y-104960828D02*
X117576512Y-104960828D01*
X117576512Y-104960828D02*
X117362226Y-105032257D01*
X117362226Y-105032257D02*
X117219369Y-105175114D01*
X117219369Y-105175114D02*
X117147940Y-105317971D01*
X117147940Y-105317971D02*
X117076512Y-105603685D01*
X117076512Y-105603685D02*
X117076512Y-105817971D01*
X117076512Y-105817971D02*
X117147940Y-106103685D01*
X117147940Y-106103685D02*
X117219369Y-106246542D01*
X117219369Y-106246542D02*
X117362226Y-106389400D01*
X117362226Y-106389400D02*
X117576512Y-106460828D01*
X117576512Y-106460828D02*
X117719369Y-106460828D01*
X117719369Y-106460828D02*
X117933655Y-106389400D01*
X117933655Y-106389400D02*
X118005083Y-106317971D01*
X118005083Y-106317971D02*
X118005083Y-105817971D01*
X118005083Y-105817971D02*
X117719369Y-105817971D01*
X118647940Y-106460828D02*
X118647940Y-104960828D01*
X118647940Y-104960828D02*
X119505083Y-106460828D01*
X119505083Y-106460828D02*
X119505083Y-104960828D01*
X120219369Y-106460828D02*
X120219369Y-104960828D01*
X120219369Y-104960828D02*
X120576512Y-104960828D01*
X120576512Y-104960828D02*
X120790798Y-105032257D01*
X120790798Y-105032257D02*
X120933655Y-105175114D01*
X120933655Y-105175114D02*
X121005084Y-105317971D01*
X121005084Y-105317971D02*
X121076512Y-105603685D01*
X121076512Y-105603685D02*
X121076512Y-105817971D01*
X121076512Y-105817971D02*
X121005084Y-106103685D01*
X121005084Y-106103685D02*
X120933655Y-106246542D01*
X120933655Y-106246542D02*
X120790798Y-106389400D01*
X120790798Y-106389400D02*
X120576512Y-106460828D01*
X120576512Y-106460828D02*
X120219369Y-106460828D01*
D11*
X103879824Y-137404761D02*
X103927443Y-137261904D01*
X103927443Y-137261904D02*
X103927443Y-137023809D01*
X103927443Y-137023809D02*
X103879824Y-136928571D01*
X103879824Y-136928571D02*
X103832204Y-136880952D01*
X103832204Y-136880952D02*
X103736966Y-136833333D01*
X103736966Y-136833333D02*
X103641728Y-136833333D01*
X103641728Y-136833333D02*
X103546490Y-136880952D01*
X103546490Y-136880952D02*
X103498871Y-136928571D01*
X103498871Y-136928571D02*
X103451252Y-137023809D01*
X103451252Y-137023809D02*
X103403633Y-137214285D01*
X103403633Y-137214285D02*
X103356014Y-137309523D01*
X103356014Y-137309523D02*
X103308395Y-137357142D01*
X103308395Y-137357142D02*
X103213157Y-137404761D01*
X103213157Y-137404761D02*
X103117919Y-137404761D01*
X103117919Y-137404761D02*
X103022681Y-137357142D01*
X103022681Y-137357142D02*
X102975062Y-137309523D01*
X102975062Y-137309523D02*
X102927443Y-137214285D01*
X102927443Y-137214285D02*
X102927443Y-136976190D01*
X102927443Y-136976190D02*
X102975062Y-136833333D01*
X106766378Y-138785713D02*
X106766378Y-138023809D01*
X107147331Y-138404761D02*
X106385426Y-138404761D01*
X106147331Y-137071428D02*
X106147331Y-137547618D01*
X106147331Y-137547618D02*
X106623521Y-137595237D01*
X106623521Y-137595237D02*
X106575902Y-137547618D01*
X106575902Y-137547618D02*
X106528283Y-137452380D01*
X106528283Y-137452380D02*
X106528283Y-137214285D01*
X106528283Y-137214285D02*
X106575902Y-137119047D01*
X106575902Y-137119047D02*
X106623521Y-137071428D01*
X106623521Y-137071428D02*
X106718759Y-137023809D01*
X106718759Y-137023809D02*
X106956854Y-137023809D01*
X106956854Y-137023809D02*
X107052092Y-137071428D01*
X107052092Y-137071428D02*
X107099712Y-137119047D01*
X107099712Y-137119047D02*
X107147331Y-137214285D01*
X107147331Y-137214285D02*
X107147331Y-137452380D01*
X107147331Y-137452380D02*
X107099712Y-137547618D01*
X107099712Y-137547618D02*
X107052092Y-137595237D01*
X106147331Y-136738094D02*
X107147331Y-136404761D01*
X107147331Y-136404761D02*
X106147331Y-136071428D01*
X109414838Y-138261904D02*
X109367219Y-138357142D01*
X109367219Y-138357142D02*
X109367219Y-138499999D01*
X109367219Y-138499999D02*
X109414838Y-138642856D01*
X109414838Y-138642856D02*
X109510076Y-138738094D01*
X109510076Y-138738094D02*
X109605314Y-138785713D01*
X109605314Y-138785713D02*
X109795790Y-138833332D01*
X109795790Y-138833332D02*
X109938647Y-138833332D01*
X109938647Y-138833332D02*
X110129123Y-138785713D01*
X110129123Y-138785713D02*
X110224361Y-138738094D01*
X110224361Y-138738094D02*
X110319600Y-138642856D01*
X110319600Y-138642856D02*
X110367219Y-138499999D01*
X110367219Y-138499999D02*
X110367219Y-138404761D01*
X110367219Y-138404761D02*
X110319600Y-138261904D01*
X110319600Y-138261904D02*
X110271980Y-138214285D01*
X110271980Y-138214285D02*
X109938647Y-138214285D01*
X109938647Y-138214285D02*
X109938647Y-138404761D01*
X110367219Y-137785713D02*
X109367219Y-137785713D01*
X109367219Y-137785713D02*
X110367219Y-137214285D01*
X110367219Y-137214285D02*
X109367219Y-137214285D01*
X110367219Y-136738094D02*
X109367219Y-136738094D01*
X109367219Y-136738094D02*
X109367219Y-136499999D01*
X109367219Y-136499999D02*
X109414838Y-136357142D01*
X109414838Y-136357142D02*
X109510076Y-136261904D01*
X109510076Y-136261904D02*
X109605314Y-136214285D01*
X109605314Y-136214285D02*
X109795790Y-136166666D01*
X109795790Y-136166666D02*
X109938647Y-136166666D01*
X109938647Y-136166666D02*
X110129123Y-136214285D01*
X110129123Y-136214285D02*
X110224361Y-136261904D01*
X110224361Y-136261904D02*
X110319600Y-136357142D01*
X110319600Y-136357142D02*
X110367219Y-136499999D01*
X110367219Y-136499999D02*
X110367219Y-136738094D01*
X83879824Y-137404761D02*
X83927443Y-137261904D01*
X83927443Y-137261904D02*
X83927443Y-137023809D01*
X83927443Y-137023809D02*
X83879824Y-136928571D01*
X83879824Y-136928571D02*
X83832204Y-136880952D01*
X83832204Y-136880952D02*
X83736966Y-136833333D01*
X83736966Y-136833333D02*
X83641728Y-136833333D01*
X83641728Y-136833333D02*
X83546490Y-136880952D01*
X83546490Y-136880952D02*
X83498871Y-136928571D01*
X83498871Y-136928571D02*
X83451252Y-137023809D01*
X83451252Y-137023809D02*
X83403633Y-137214285D01*
X83403633Y-137214285D02*
X83356014Y-137309523D01*
X83356014Y-137309523D02*
X83308395Y-137357142D01*
X83308395Y-137357142D02*
X83213157Y-137404761D01*
X83213157Y-137404761D02*
X83117919Y-137404761D01*
X83117919Y-137404761D02*
X83022681Y-137357142D01*
X83022681Y-137357142D02*
X82975062Y-137309523D01*
X82975062Y-137309523D02*
X82927443Y-137214285D01*
X82927443Y-137214285D02*
X82927443Y-136976190D01*
X82927443Y-136976190D02*
X82975062Y-136833333D01*
X86766378Y-138785713D02*
X86766378Y-138023809D01*
X87147331Y-138404761D02*
X86385426Y-138404761D01*
X86147331Y-137071428D02*
X86147331Y-137547618D01*
X86147331Y-137547618D02*
X86623521Y-137595237D01*
X86623521Y-137595237D02*
X86575902Y-137547618D01*
X86575902Y-137547618D02*
X86528283Y-137452380D01*
X86528283Y-137452380D02*
X86528283Y-137214285D01*
X86528283Y-137214285D02*
X86575902Y-137119047D01*
X86575902Y-137119047D02*
X86623521Y-137071428D01*
X86623521Y-137071428D02*
X86718759Y-137023809D01*
X86718759Y-137023809D02*
X86956854Y-137023809D01*
X86956854Y-137023809D02*
X87052092Y-137071428D01*
X87052092Y-137071428D02*
X87099712Y-137119047D01*
X87099712Y-137119047D02*
X87147331Y-137214285D01*
X87147331Y-137214285D02*
X87147331Y-137452380D01*
X87147331Y-137452380D02*
X87099712Y-137547618D01*
X87099712Y-137547618D02*
X87052092Y-137595237D01*
X86147331Y-136738094D02*
X87147331Y-136404761D01*
X87147331Y-136404761D02*
X86147331Y-136071428D01*
X89414838Y-138261904D02*
X89367219Y-138357142D01*
X89367219Y-138357142D02*
X89367219Y-138499999D01*
X89367219Y-138499999D02*
X89414838Y-138642856D01*
X89414838Y-138642856D02*
X89510076Y-138738094D01*
X89510076Y-138738094D02*
X89605314Y-138785713D01*
X89605314Y-138785713D02*
X89795790Y-138833332D01*
X89795790Y-138833332D02*
X89938647Y-138833332D01*
X89938647Y-138833332D02*
X90129123Y-138785713D01*
X90129123Y-138785713D02*
X90224361Y-138738094D01*
X90224361Y-138738094D02*
X90319600Y-138642856D01*
X90319600Y-138642856D02*
X90367219Y-138499999D01*
X90367219Y-138499999D02*
X90367219Y-138404761D01*
X90367219Y-138404761D02*
X90319600Y-138261904D01*
X90319600Y-138261904D02*
X90271980Y-138214285D01*
X90271980Y-138214285D02*
X89938647Y-138214285D01*
X89938647Y-138214285D02*
X89938647Y-138404761D01*
X90367219Y-137785713D02*
X89367219Y-137785713D01*
X89367219Y-137785713D02*
X90367219Y-137214285D01*
X90367219Y-137214285D02*
X89367219Y-137214285D01*
X90367219Y-136738094D02*
X89367219Y-136738094D01*
X89367219Y-136738094D02*
X89367219Y-136499999D01*
X89367219Y-136499999D02*
X89414838Y-136357142D01*
X89414838Y-136357142D02*
X89510076Y-136261904D01*
X89510076Y-136261904D02*
X89605314Y-136214285D01*
X89605314Y-136214285D02*
X89795790Y-136166666D01*
X89795790Y-136166666D02*
X89938647Y-136166666D01*
X89938647Y-136166666D02*
X90129123Y-136214285D01*
X90129123Y-136214285D02*
X90224361Y-136261904D01*
X90224361Y-136261904D02*
X90319600Y-136357142D01*
X90319600Y-136357142D02*
X90367219Y-136499999D01*
X90367219Y-136499999D02*
X90367219Y-136738094D01*
X114379824Y-137404761D02*
X114427443Y-137261904D01*
X114427443Y-137261904D02*
X114427443Y-137023809D01*
X114427443Y-137023809D02*
X114379824Y-136928571D01*
X114379824Y-136928571D02*
X114332204Y-136880952D01*
X114332204Y-136880952D02*
X114236966Y-136833333D01*
X114236966Y-136833333D02*
X114141728Y-136833333D01*
X114141728Y-136833333D02*
X114046490Y-136880952D01*
X114046490Y-136880952D02*
X113998871Y-136928571D01*
X113998871Y-136928571D02*
X113951252Y-137023809D01*
X113951252Y-137023809D02*
X113903633Y-137214285D01*
X113903633Y-137214285D02*
X113856014Y-137309523D01*
X113856014Y-137309523D02*
X113808395Y-137357142D01*
X113808395Y-137357142D02*
X113713157Y-137404761D01*
X113713157Y-137404761D02*
X113617919Y-137404761D01*
X113617919Y-137404761D02*
X113522681Y-137357142D01*
X113522681Y-137357142D02*
X113475062Y-137309523D01*
X113475062Y-137309523D02*
X113427443Y-137214285D01*
X113427443Y-137214285D02*
X113427443Y-136976190D01*
X113427443Y-136976190D02*
X113475062Y-136833333D01*
X117266378Y-138785713D02*
X117266378Y-138023809D01*
X117647331Y-138404761D02*
X116885426Y-138404761D01*
X116647331Y-137071428D02*
X116647331Y-137547618D01*
X116647331Y-137547618D02*
X117123521Y-137595237D01*
X117123521Y-137595237D02*
X117075902Y-137547618D01*
X117075902Y-137547618D02*
X117028283Y-137452380D01*
X117028283Y-137452380D02*
X117028283Y-137214285D01*
X117028283Y-137214285D02*
X117075902Y-137119047D01*
X117075902Y-137119047D02*
X117123521Y-137071428D01*
X117123521Y-137071428D02*
X117218759Y-137023809D01*
X117218759Y-137023809D02*
X117456854Y-137023809D01*
X117456854Y-137023809D02*
X117552092Y-137071428D01*
X117552092Y-137071428D02*
X117599712Y-137119047D01*
X117599712Y-137119047D02*
X117647331Y-137214285D01*
X117647331Y-137214285D02*
X117647331Y-137452380D01*
X117647331Y-137452380D02*
X117599712Y-137547618D01*
X117599712Y-137547618D02*
X117552092Y-137595237D01*
X116647331Y-136738094D02*
X117647331Y-136404761D01*
X117647331Y-136404761D02*
X116647331Y-136071428D01*
X119914838Y-138261904D02*
X119867219Y-138357142D01*
X119867219Y-138357142D02*
X119867219Y-138499999D01*
X119867219Y-138499999D02*
X119914838Y-138642856D01*
X119914838Y-138642856D02*
X120010076Y-138738094D01*
X120010076Y-138738094D02*
X120105314Y-138785713D01*
X120105314Y-138785713D02*
X120295790Y-138833332D01*
X120295790Y-138833332D02*
X120438647Y-138833332D01*
X120438647Y-138833332D02*
X120629123Y-138785713D01*
X120629123Y-138785713D02*
X120724361Y-138738094D01*
X120724361Y-138738094D02*
X120819600Y-138642856D01*
X120819600Y-138642856D02*
X120867219Y-138499999D01*
X120867219Y-138499999D02*
X120867219Y-138404761D01*
X120867219Y-138404761D02*
X120819600Y-138261904D01*
X120819600Y-138261904D02*
X120771980Y-138214285D01*
X120771980Y-138214285D02*
X120438647Y-138214285D01*
X120438647Y-138214285D02*
X120438647Y-138404761D01*
X120867219Y-137785713D02*
X119867219Y-137785713D01*
X119867219Y-137785713D02*
X120867219Y-137214285D01*
X120867219Y-137214285D02*
X119867219Y-137214285D01*
X120867219Y-136738094D02*
X119867219Y-136738094D01*
X119867219Y-136738094D02*
X119867219Y-136499999D01*
X119867219Y-136499999D02*
X119914838Y-136357142D01*
X119914838Y-136357142D02*
X120010076Y-136261904D01*
X120010076Y-136261904D02*
X120105314Y-136214285D01*
X120105314Y-136214285D02*
X120295790Y-136166666D01*
X120295790Y-136166666D02*
X120438647Y-136166666D01*
X120438647Y-136166666D02*
X120629123Y-136214285D01*
X120629123Y-136214285D02*
X120724361Y-136261904D01*
X120724361Y-136261904D02*
X120819600Y-136357142D01*
X120819600Y-136357142D02*
X120867219Y-136499999D01*
X120867219Y-136499999D02*
X120867219Y-136738094D01*
D12*
X81460095Y-109114819D02*
X81460095Y-109924342D01*
X81460095Y-109924342D02*
X81507714Y-110019580D01*
X81507714Y-110019580D02*
X81555333Y-110067200D01*
X81555333Y-110067200D02*
X81650571Y-110114819D01*
X81650571Y-110114819D02*
X81841047Y-110114819D01*
X81841047Y-110114819D02*
X81936285Y-110067200D01*
X81936285Y-110067200D02*
X81983904Y-110019580D01*
X81983904Y-110019580D02*
X82031523Y-109924342D01*
X82031523Y-109924342D02*
X82031523Y-109114819D01*
X82412476Y-109114819D02*
X83031523Y-109114819D01*
X83031523Y-109114819D02*
X82698190Y-109495771D01*
X82698190Y-109495771D02*
X82841047Y-109495771D01*
X82841047Y-109495771D02*
X82936285Y-109543390D01*
X82936285Y-109543390D02*
X82983904Y-109591009D01*
X82983904Y-109591009D02*
X83031523Y-109686247D01*
X83031523Y-109686247D02*
X83031523Y-109924342D01*
X83031523Y-109924342D02*
X82983904Y-110019580D01*
X82983904Y-110019580D02*
X82936285Y-110067200D01*
X82936285Y-110067200D02*
X82841047Y-110114819D01*
X82841047Y-110114819D02*
X82555333Y-110114819D01*
X82555333Y-110114819D02*
X82460095Y-110067200D01*
X82460095Y-110067200D02*
X82412476Y-110019580D01*
D11*
X79067863Y-118027219D02*
X78591673Y-118027219D01*
X78591673Y-118027219D02*
X78591673Y-117027219D01*
X79258340Y-117027219D02*
X79591673Y-118027219D01*
X79591673Y-118027219D02*
X79925006Y-117027219D01*
X84615482Y-119574838D02*
X84520244Y-119527219D01*
X84520244Y-119527219D02*
X84377387Y-119527219D01*
X84377387Y-119527219D02*
X84234530Y-119574838D01*
X84234530Y-119574838D02*
X84139292Y-119670076D01*
X84139292Y-119670076D02*
X84091673Y-119765314D01*
X84091673Y-119765314D02*
X84044054Y-119955790D01*
X84044054Y-119955790D02*
X84044054Y-120098647D01*
X84044054Y-120098647D02*
X84091673Y-120289123D01*
X84091673Y-120289123D02*
X84139292Y-120384361D01*
X84139292Y-120384361D02*
X84234530Y-120479600D01*
X84234530Y-120479600D02*
X84377387Y-120527219D01*
X84377387Y-120527219D02*
X84472625Y-120527219D01*
X84472625Y-120527219D02*
X84615482Y-120479600D01*
X84615482Y-120479600D02*
X84663101Y-120431980D01*
X84663101Y-120431980D02*
X84663101Y-120098647D01*
X84663101Y-120098647D02*
X84472625Y-120098647D01*
X85091673Y-120527219D02*
X85091673Y-119527219D01*
X85091673Y-119527219D02*
X85663101Y-120527219D01*
X85663101Y-120527219D02*
X85663101Y-119527219D01*
X86139292Y-120527219D02*
X86139292Y-119527219D01*
X86139292Y-119527219D02*
X86377387Y-119527219D01*
X86377387Y-119527219D02*
X86520244Y-119574838D01*
X86520244Y-119574838D02*
X86615482Y-119670076D01*
X86615482Y-119670076D02*
X86663101Y-119765314D01*
X86663101Y-119765314D02*
X86710720Y-119955790D01*
X86710720Y-119955790D02*
X86710720Y-120098647D01*
X86710720Y-120098647D02*
X86663101Y-120289123D01*
X86663101Y-120289123D02*
X86615482Y-120384361D01*
X86615482Y-120384361D02*
X86520244Y-120479600D01*
X86520244Y-120479600D02*
X86377387Y-120527219D01*
X86377387Y-120527219D02*
X86139292Y-120527219D01*
X84591673Y-113027219D02*
X84591673Y-112027219D01*
X84591673Y-112503409D02*
X85163101Y-112503409D01*
X85163101Y-113027219D02*
X85163101Y-112027219D01*
X85496435Y-112027219D02*
X85829768Y-113027219D01*
X85829768Y-113027219D02*
X86163101Y-112027219D01*
X87020244Y-113027219D02*
X86448816Y-113027219D01*
X86734530Y-113027219D02*
X86734530Y-112027219D01*
X86734530Y-112027219D02*
X86639292Y-112170076D01*
X86639292Y-112170076D02*
X86544054Y-112265314D01*
X86544054Y-112265314D02*
X86448816Y-112312933D01*
X79067863Y-115527219D02*
X78591673Y-115527219D01*
X78591673Y-115527219D02*
X78591673Y-114527219D01*
X79258340Y-114527219D02*
X79591673Y-115527219D01*
X79591673Y-115527219D02*
X79925006Y-114527219D01*
X80210721Y-114622457D02*
X80258340Y-114574838D01*
X80258340Y-114574838D02*
X80353578Y-114527219D01*
X80353578Y-114527219D02*
X80591673Y-114527219D01*
X80591673Y-114527219D02*
X80686911Y-114574838D01*
X80686911Y-114574838D02*
X80734530Y-114622457D01*
X80734530Y-114622457D02*
X80782149Y-114717695D01*
X80782149Y-114717695D02*
X80782149Y-114812933D01*
X80782149Y-114812933D02*
X80734530Y-114955790D01*
X80734530Y-114955790D02*
X80163102Y-115527219D01*
X80163102Y-115527219D02*
X80782149Y-115527219D01*
X79067863Y-126027219D02*
X78591673Y-126027219D01*
X78591673Y-126027219D02*
X78591673Y-125027219D01*
X79258340Y-125027219D02*
X79591673Y-126027219D01*
X79591673Y-126027219D02*
X79925006Y-125027219D01*
X80686911Y-125360552D02*
X80686911Y-126027219D01*
X80448816Y-124979600D02*
X80210721Y-125693885D01*
X80210721Y-125693885D02*
X80829768Y-125693885D01*
X84091673Y-126027219D02*
X84091673Y-125027219D01*
X84091673Y-125503409D02*
X84663101Y-125503409D01*
X84663101Y-126027219D02*
X84663101Y-125027219D01*
X84996435Y-125027219D02*
X85329768Y-126027219D01*
X85329768Y-126027219D02*
X85663101Y-125027219D01*
X86425006Y-125360552D02*
X86425006Y-126027219D01*
X86186911Y-124979600D02*
X85948816Y-125693885D01*
X85948816Y-125693885D02*
X86567863Y-125693885D01*
X84591673Y-118027219D02*
X84591673Y-117027219D01*
X84591673Y-117503409D02*
X85163101Y-117503409D01*
X85163101Y-118027219D02*
X85163101Y-117027219D01*
X85496435Y-117027219D02*
X85829768Y-118027219D01*
X85829768Y-118027219D02*
X86163101Y-117027219D01*
X79115482Y-119574838D02*
X79020244Y-119527219D01*
X79020244Y-119527219D02*
X78877387Y-119527219D01*
X78877387Y-119527219D02*
X78734530Y-119574838D01*
X78734530Y-119574838D02*
X78639292Y-119670076D01*
X78639292Y-119670076D02*
X78591673Y-119765314D01*
X78591673Y-119765314D02*
X78544054Y-119955790D01*
X78544054Y-119955790D02*
X78544054Y-120098647D01*
X78544054Y-120098647D02*
X78591673Y-120289123D01*
X78591673Y-120289123D02*
X78639292Y-120384361D01*
X78639292Y-120384361D02*
X78734530Y-120479600D01*
X78734530Y-120479600D02*
X78877387Y-120527219D01*
X78877387Y-120527219D02*
X78972625Y-120527219D01*
X78972625Y-120527219D02*
X79115482Y-120479600D01*
X79115482Y-120479600D02*
X79163101Y-120431980D01*
X79163101Y-120431980D02*
X79163101Y-120098647D01*
X79163101Y-120098647D02*
X78972625Y-120098647D01*
X79591673Y-120527219D02*
X79591673Y-119527219D01*
X79591673Y-119527219D02*
X80163101Y-120527219D01*
X80163101Y-120527219D02*
X80163101Y-119527219D01*
X80639292Y-120527219D02*
X80639292Y-119527219D01*
X80639292Y-119527219D02*
X80877387Y-119527219D01*
X80877387Y-119527219D02*
X81020244Y-119574838D01*
X81020244Y-119574838D02*
X81115482Y-119670076D01*
X81115482Y-119670076D02*
X81163101Y-119765314D01*
X81163101Y-119765314D02*
X81210720Y-119955790D01*
X81210720Y-119955790D02*
X81210720Y-120098647D01*
X81210720Y-120098647D02*
X81163101Y-120289123D01*
X81163101Y-120289123D02*
X81115482Y-120384361D01*
X81115482Y-120384361D02*
X81020244Y-120479600D01*
X81020244Y-120479600D02*
X80877387Y-120527219D01*
X80877387Y-120527219D02*
X80639292Y-120527219D01*
X84591673Y-115527219D02*
X84591673Y-114527219D01*
X84591673Y-115003409D02*
X85163101Y-115003409D01*
X85163101Y-115527219D02*
X85163101Y-114527219D01*
X85496435Y-114527219D02*
X85829768Y-115527219D01*
X85829768Y-115527219D02*
X86163101Y-114527219D01*
X86448816Y-114622457D02*
X86496435Y-114574838D01*
X86496435Y-114574838D02*
X86591673Y-114527219D01*
X86591673Y-114527219D02*
X86829768Y-114527219D01*
X86829768Y-114527219D02*
X86925006Y-114574838D01*
X86925006Y-114574838D02*
X86972625Y-114622457D01*
X86972625Y-114622457D02*
X87020244Y-114717695D01*
X87020244Y-114717695D02*
X87020244Y-114812933D01*
X87020244Y-114812933D02*
X86972625Y-114955790D01*
X86972625Y-114955790D02*
X86401197Y-115527219D01*
X86401197Y-115527219D02*
X87020244Y-115527219D01*
X84091673Y-123527219D02*
X84091673Y-122527219D01*
X84091673Y-123003409D02*
X84663101Y-123003409D01*
X84663101Y-123527219D02*
X84663101Y-122527219D01*
X84996435Y-122527219D02*
X85329768Y-123527219D01*
X85329768Y-123527219D02*
X85663101Y-122527219D01*
X85901197Y-122527219D02*
X86520244Y-122527219D01*
X86520244Y-122527219D02*
X86186911Y-122908171D01*
X86186911Y-122908171D02*
X86329768Y-122908171D01*
X86329768Y-122908171D02*
X86425006Y-122955790D01*
X86425006Y-122955790D02*
X86472625Y-123003409D01*
X86472625Y-123003409D02*
X86520244Y-123098647D01*
X86520244Y-123098647D02*
X86520244Y-123336742D01*
X86520244Y-123336742D02*
X86472625Y-123431980D01*
X86472625Y-123431980D02*
X86425006Y-123479600D01*
X86425006Y-123479600D02*
X86329768Y-123527219D01*
X86329768Y-123527219D02*
X86044054Y-123527219D01*
X86044054Y-123527219D02*
X85948816Y-123479600D01*
X85948816Y-123479600D02*
X85901197Y-123431980D01*
X79067863Y-113027219D02*
X78591673Y-113027219D01*
X78591673Y-113027219D02*
X78591673Y-112027219D01*
X79258340Y-112027219D02*
X79591673Y-113027219D01*
X79591673Y-113027219D02*
X79925006Y-112027219D01*
X80782149Y-113027219D02*
X80210721Y-113027219D01*
X80496435Y-113027219D02*
X80496435Y-112027219D01*
X80496435Y-112027219D02*
X80401197Y-112170076D01*
X80401197Y-112170076D02*
X80305959Y-112265314D01*
X80305959Y-112265314D02*
X80210721Y-112312933D01*
X79067863Y-123527219D02*
X78591673Y-123527219D01*
X78591673Y-123527219D02*
X78591673Y-122527219D01*
X79258340Y-122527219D02*
X79591673Y-123527219D01*
X79591673Y-123527219D02*
X79925006Y-122527219D01*
X80163102Y-122527219D02*
X80782149Y-122527219D01*
X80782149Y-122527219D02*
X80448816Y-122908171D01*
X80448816Y-122908171D02*
X80591673Y-122908171D01*
X80591673Y-122908171D02*
X80686911Y-122955790D01*
X80686911Y-122955790D02*
X80734530Y-123003409D01*
X80734530Y-123003409D02*
X80782149Y-123098647D01*
X80782149Y-123098647D02*
X80782149Y-123336742D01*
X80782149Y-123336742D02*
X80734530Y-123431980D01*
X80734530Y-123431980D02*
X80686911Y-123479600D01*
X80686911Y-123479600D02*
X80591673Y-123527219D01*
X80591673Y-123527219D02*
X80305959Y-123527219D01*
X80305959Y-123527219D02*
X80210721Y-123479600D01*
X80210721Y-123479600D02*
X80163102Y-123431980D01*
D12*
X92116819Y-117421904D02*
X92926342Y-117421904D01*
X92926342Y-117421904D02*
X93021580Y-117374285D01*
X93021580Y-117374285D02*
X93069200Y-117326666D01*
X93069200Y-117326666D02*
X93116819Y-117231428D01*
X93116819Y-117231428D02*
X93116819Y-117040952D01*
X93116819Y-117040952D02*
X93069200Y-116945714D01*
X93069200Y-116945714D02*
X93021580Y-116898095D01*
X93021580Y-116898095D02*
X92926342Y-116850476D01*
X92926342Y-116850476D02*
X92116819Y-116850476D01*
X93116819Y-115850476D02*
X93116819Y-116421904D01*
X93116819Y-116136190D02*
X92116819Y-116136190D01*
X92116819Y-116136190D02*
X92259676Y-116231428D01*
X92259676Y-116231428D02*
X92354914Y-116326666D01*
X92354914Y-116326666D02*
X92402533Y-116421904D01*
D11*
X94529219Y-121385564D02*
X95529219Y-120885564D01*
X95529219Y-120885564D02*
X94529219Y-120385564D01*
X95529219Y-119885565D02*
X94529219Y-119885565D01*
X94529219Y-119885565D02*
X94529219Y-119528422D01*
X94529219Y-119528422D02*
X94576838Y-119314136D01*
X94576838Y-119314136D02*
X94672076Y-119171279D01*
X94672076Y-119171279D02*
X94767314Y-119099850D01*
X94767314Y-119099850D02*
X94957790Y-119028422D01*
X94957790Y-119028422D02*
X95100647Y-119028422D01*
X95100647Y-119028422D02*
X95291123Y-119099850D01*
X95291123Y-119099850D02*
X95386361Y-119171279D01*
X95386361Y-119171279D02*
X95481600Y-119314136D01*
X95481600Y-119314136D02*
X95529219Y-119528422D01*
X95529219Y-119528422D02*
X95529219Y-119885565D01*
X95529219Y-118385565D02*
X94529219Y-118385565D01*
X94529219Y-118385565D02*
X94529219Y-118028422D01*
X94529219Y-118028422D02*
X94576838Y-117814136D01*
X94576838Y-117814136D02*
X94672076Y-117671279D01*
X94672076Y-117671279D02*
X94767314Y-117599850D01*
X94767314Y-117599850D02*
X94957790Y-117528422D01*
X94957790Y-117528422D02*
X95100647Y-117528422D01*
X95100647Y-117528422D02*
X95291123Y-117599850D01*
X95291123Y-117599850D02*
X95386361Y-117671279D01*
X95386361Y-117671279D02*
X95481600Y-117814136D01*
X95481600Y-117814136D02*
X95529219Y-118028422D01*
X95529219Y-118028422D02*
X95529219Y-118385565D01*
X97076838Y-120766517D02*
X97029219Y-120861755D01*
X97029219Y-120861755D02*
X97029219Y-121004612D01*
X97029219Y-121004612D02*
X97076838Y-121147469D01*
X97076838Y-121147469D02*
X97172076Y-121242707D01*
X97172076Y-121242707D02*
X97267314Y-121290326D01*
X97267314Y-121290326D02*
X97457790Y-121337945D01*
X97457790Y-121337945D02*
X97600647Y-121337945D01*
X97600647Y-121337945D02*
X97791123Y-121290326D01*
X97791123Y-121290326D02*
X97886361Y-121242707D01*
X97886361Y-121242707D02*
X97981600Y-121147469D01*
X97981600Y-121147469D02*
X98029219Y-121004612D01*
X98029219Y-121004612D02*
X98029219Y-120909374D01*
X98029219Y-120909374D02*
X97981600Y-120766517D01*
X97981600Y-120766517D02*
X97933980Y-120718898D01*
X97933980Y-120718898D02*
X97600647Y-120718898D01*
X97600647Y-120718898D02*
X97600647Y-120909374D01*
X98029219Y-120290326D02*
X97029219Y-120290326D01*
X97029219Y-120290326D02*
X98029219Y-119718898D01*
X98029219Y-119718898D02*
X97029219Y-119718898D01*
X98029219Y-119242707D02*
X97029219Y-119242707D01*
X97029219Y-119242707D02*
X97029219Y-119004612D01*
X97029219Y-119004612D02*
X97076838Y-118861755D01*
X97076838Y-118861755D02*
X97172076Y-118766517D01*
X97172076Y-118766517D02*
X97267314Y-118718898D01*
X97267314Y-118718898D02*
X97457790Y-118671279D01*
X97457790Y-118671279D02*
X97600647Y-118671279D01*
X97600647Y-118671279D02*
X97791123Y-118718898D01*
X97791123Y-118718898D02*
X97886361Y-118766517D01*
X97886361Y-118766517D02*
X97981600Y-118861755D01*
X97981600Y-118861755D02*
X98029219Y-119004612D01*
X98029219Y-119004612D02*
X98029219Y-119242707D01*
X105743504Y-121337945D02*
X105743504Y-120861755D01*
X106029219Y-121433183D02*
X105029219Y-121099850D01*
X105029219Y-121099850D02*
X106029219Y-120766517D01*
X106029219Y-120433183D02*
X105029219Y-120433183D01*
X105029219Y-120433183D02*
X105029219Y-120195088D01*
X105029219Y-120195088D02*
X105076838Y-120052231D01*
X105076838Y-120052231D02*
X105172076Y-119956993D01*
X105172076Y-119956993D02*
X105267314Y-119909374D01*
X105267314Y-119909374D02*
X105457790Y-119861755D01*
X105457790Y-119861755D02*
X105600647Y-119861755D01*
X105600647Y-119861755D02*
X105791123Y-119909374D01*
X105791123Y-119909374D02*
X105886361Y-119956993D01*
X105886361Y-119956993D02*
X105981600Y-120052231D01*
X105981600Y-120052231D02*
X106029219Y-120195088D01*
X106029219Y-120195088D02*
X106029219Y-120433183D01*
X106029219Y-119433183D02*
X105029219Y-119433183D01*
X105029219Y-119433183D02*
X105029219Y-119195088D01*
X105029219Y-119195088D02*
X105076838Y-119052231D01*
X105076838Y-119052231D02*
X105172076Y-118956993D01*
X105172076Y-118956993D02*
X105267314Y-118909374D01*
X105267314Y-118909374D02*
X105457790Y-118861755D01*
X105457790Y-118861755D02*
X105600647Y-118861755D01*
X105600647Y-118861755D02*
X105791123Y-118909374D01*
X105791123Y-118909374D02*
X105886361Y-118956993D01*
X105886361Y-118956993D02*
X105981600Y-119052231D01*
X105981600Y-119052231D02*
X106029219Y-119195088D01*
X106029219Y-119195088D02*
X106029219Y-119433183D01*
X106029219Y-117861755D02*
X105553028Y-118195088D01*
X106029219Y-118433183D02*
X105029219Y-118433183D01*
X105029219Y-118433183D02*
X105029219Y-118052231D01*
X105029219Y-118052231D02*
X105076838Y-117956993D01*
X105076838Y-117956993D02*
X105124457Y-117909374D01*
X105124457Y-117909374D02*
X105219695Y-117861755D01*
X105219695Y-117861755D02*
X105362552Y-117861755D01*
X105362552Y-117861755D02*
X105457790Y-117909374D01*
X105457790Y-117909374D02*
X105505409Y-117956993D01*
X105505409Y-117956993D02*
X105553028Y-118052231D01*
X105553028Y-118052231D02*
X105553028Y-118433183D01*
X100481600Y-121337945D02*
X100529219Y-121195088D01*
X100529219Y-121195088D02*
X100529219Y-120956993D01*
X100529219Y-120956993D02*
X100481600Y-120861755D01*
X100481600Y-120861755D02*
X100433980Y-120814136D01*
X100433980Y-120814136D02*
X100338742Y-120766517D01*
X100338742Y-120766517D02*
X100243504Y-120766517D01*
X100243504Y-120766517D02*
X100148266Y-120814136D01*
X100148266Y-120814136D02*
X100100647Y-120861755D01*
X100100647Y-120861755D02*
X100053028Y-120956993D01*
X100053028Y-120956993D02*
X100005409Y-121147469D01*
X100005409Y-121147469D02*
X99957790Y-121242707D01*
X99957790Y-121242707D02*
X99910171Y-121290326D01*
X99910171Y-121290326D02*
X99814933Y-121337945D01*
X99814933Y-121337945D02*
X99719695Y-121337945D01*
X99719695Y-121337945D02*
X99624457Y-121290326D01*
X99624457Y-121290326D02*
X99576838Y-121242707D01*
X99576838Y-121242707D02*
X99529219Y-121147469D01*
X99529219Y-121147469D02*
X99529219Y-120909374D01*
X99529219Y-120909374D02*
X99576838Y-120766517D01*
X100433980Y-119766517D02*
X100481600Y-119814136D01*
X100481600Y-119814136D02*
X100529219Y-119956993D01*
X100529219Y-119956993D02*
X100529219Y-120052231D01*
X100529219Y-120052231D02*
X100481600Y-120195088D01*
X100481600Y-120195088D02*
X100386361Y-120290326D01*
X100386361Y-120290326D02*
X100291123Y-120337945D01*
X100291123Y-120337945D02*
X100100647Y-120385564D01*
X100100647Y-120385564D02*
X99957790Y-120385564D01*
X99957790Y-120385564D02*
X99767314Y-120337945D01*
X99767314Y-120337945D02*
X99672076Y-120290326D01*
X99672076Y-120290326D02*
X99576838Y-120195088D01*
X99576838Y-120195088D02*
X99529219Y-120052231D01*
X99529219Y-120052231D02*
X99529219Y-119956993D01*
X99529219Y-119956993D02*
X99576838Y-119814136D01*
X99576838Y-119814136D02*
X99624457Y-119766517D01*
X100529219Y-118861755D02*
X100529219Y-119337945D01*
X100529219Y-119337945D02*
X99529219Y-119337945D01*
X103481600Y-121337945D02*
X103529219Y-121195088D01*
X103529219Y-121195088D02*
X103529219Y-120956993D01*
X103529219Y-120956993D02*
X103481600Y-120861755D01*
X103481600Y-120861755D02*
X103433980Y-120814136D01*
X103433980Y-120814136D02*
X103338742Y-120766517D01*
X103338742Y-120766517D02*
X103243504Y-120766517D01*
X103243504Y-120766517D02*
X103148266Y-120814136D01*
X103148266Y-120814136D02*
X103100647Y-120861755D01*
X103100647Y-120861755D02*
X103053028Y-120956993D01*
X103053028Y-120956993D02*
X103005409Y-121147469D01*
X103005409Y-121147469D02*
X102957790Y-121242707D01*
X102957790Y-121242707D02*
X102910171Y-121290326D01*
X102910171Y-121290326D02*
X102814933Y-121337945D01*
X102814933Y-121337945D02*
X102719695Y-121337945D01*
X102719695Y-121337945D02*
X102624457Y-121290326D01*
X102624457Y-121290326D02*
X102576838Y-121242707D01*
X102576838Y-121242707D02*
X102529219Y-121147469D01*
X102529219Y-121147469D02*
X102529219Y-120909374D01*
X102529219Y-120909374D02*
X102576838Y-120766517D01*
X103529219Y-120337945D02*
X102529219Y-120337945D01*
X102529219Y-120337945D02*
X102529219Y-120099850D01*
X102529219Y-120099850D02*
X102576838Y-119956993D01*
X102576838Y-119956993D02*
X102672076Y-119861755D01*
X102672076Y-119861755D02*
X102767314Y-119814136D01*
X102767314Y-119814136D02*
X102957790Y-119766517D01*
X102957790Y-119766517D02*
X103100647Y-119766517D01*
X103100647Y-119766517D02*
X103291123Y-119814136D01*
X103291123Y-119814136D02*
X103386361Y-119861755D01*
X103386361Y-119861755D02*
X103481600Y-119956993D01*
X103481600Y-119956993D02*
X103529219Y-120099850D01*
X103529219Y-120099850D02*
X103529219Y-120337945D01*
X103243504Y-119385564D02*
X103243504Y-118909374D01*
X103529219Y-119480802D02*
X102529219Y-119147469D01*
X102529219Y-119147469D02*
X103529219Y-118814136D01*
X115743504Y-121337945D02*
X115743504Y-120861755D01*
X116029219Y-121433183D02*
X115029219Y-121099850D01*
X115029219Y-121099850D02*
X116029219Y-120766517D01*
X115124457Y-120480802D02*
X115076838Y-120433183D01*
X115076838Y-120433183D02*
X115029219Y-120337945D01*
X115029219Y-120337945D02*
X115029219Y-120099850D01*
X115029219Y-120099850D02*
X115076838Y-120004612D01*
X115076838Y-120004612D02*
X115124457Y-119956993D01*
X115124457Y-119956993D02*
X115219695Y-119909374D01*
X115219695Y-119909374D02*
X115314933Y-119909374D01*
X115314933Y-119909374D02*
X115457790Y-119956993D01*
X115457790Y-119956993D02*
X116029219Y-120528421D01*
X116029219Y-120528421D02*
X116029219Y-119909374D01*
X118243504Y-121337945D02*
X118243504Y-120861755D01*
X118529219Y-121433183D02*
X117529219Y-121099850D01*
X117529219Y-121099850D02*
X118529219Y-120766517D01*
X117529219Y-120528421D02*
X117529219Y-119909374D01*
X117529219Y-119909374D02*
X117910171Y-120242707D01*
X117910171Y-120242707D02*
X117910171Y-120099850D01*
X117910171Y-120099850D02*
X117957790Y-120004612D01*
X117957790Y-120004612D02*
X118005409Y-119956993D01*
X118005409Y-119956993D02*
X118100647Y-119909374D01*
X118100647Y-119909374D02*
X118338742Y-119909374D01*
X118338742Y-119909374D02*
X118433980Y-119956993D01*
X118433980Y-119956993D02*
X118481600Y-120004612D01*
X118481600Y-120004612D02*
X118529219Y-120099850D01*
X118529219Y-120099850D02*
X118529219Y-120385564D01*
X118529219Y-120385564D02*
X118481600Y-120480802D01*
X118481600Y-120480802D02*
X118433980Y-120528421D01*
X110743504Y-121337945D02*
X110743504Y-120861755D01*
X111029219Y-121433183D02*
X110029219Y-121099850D01*
X110029219Y-121099850D02*
X111029219Y-120766517D01*
X110029219Y-120242707D02*
X110029219Y-120147469D01*
X110029219Y-120147469D02*
X110076838Y-120052231D01*
X110076838Y-120052231D02*
X110124457Y-120004612D01*
X110124457Y-120004612D02*
X110219695Y-119956993D01*
X110219695Y-119956993D02*
X110410171Y-119909374D01*
X110410171Y-119909374D02*
X110648266Y-119909374D01*
X110648266Y-119909374D02*
X110838742Y-119956993D01*
X110838742Y-119956993D02*
X110933980Y-120004612D01*
X110933980Y-120004612D02*
X110981600Y-120052231D01*
X110981600Y-120052231D02*
X111029219Y-120147469D01*
X111029219Y-120147469D02*
X111029219Y-120242707D01*
X111029219Y-120242707D02*
X110981600Y-120337945D01*
X110981600Y-120337945D02*
X110933980Y-120385564D01*
X110933980Y-120385564D02*
X110838742Y-120433183D01*
X110838742Y-120433183D02*
X110648266Y-120480802D01*
X110648266Y-120480802D02*
X110410171Y-120480802D01*
X110410171Y-120480802D02*
X110219695Y-120433183D01*
X110219695Y-120433183D02*
X110124457Y-120385564D01*
X110124457Y-120385564D02*
X110076838Y-120337945D01*
X110076838Y-120337945D02*
X110029219Y-120242707D01*
X108243504Y-121337945D02*
X108243504Y-120861755D01*
X108529219Y-121433183D02*
X107529219Y-121099850D01*
X107529219Y-121099850D02*
X108529219Y-120766517D01*
X108529219Y-119956993D02*
X108529219Y-120433183D01*
X108529219Y-120433183D02*
X107529219Y-120433183D01*
X108529219Y-119052231D02*
X108053028Y-119385564D01*
X108529219Y-119623659D02*
X107529219Y-119623659D01*
X107529219Y-119623659D02*
X107529219Y-119242707D01*
X107529219Y-119242707D02*
X107576838Y-119147469D01*
X107576838Y-119147469D02*
X107624457Y-119099850D01*
X107624457Y-119099850D02*
X107719695Y-119052231D01*
X107719695Y-119052231D02*
X107862552Y-119052231D01*
X107862552Y-119052231D02*
X107957790Y-119099850D01*
X107957790Y-119099850D02*
X108005409Y-119147469D01*
X108005409Y-119147469D02*
X108053028Y-119242707D01*
X108053028Y-119242707D02*
X108053028Y-119623659D01*
X107529219Y-118766516D02*
X107529219Y-118195088D01*
X108529219Y-118480802D02*
X107529219Y-118480802D01*
X113243504Y-121337945D02*
X113243504Y-120861755D01*
X113529219Y-121433183D02*
X112529219Y-121099850D01*
X112529219Y-121099850D02*
X113529219Y-120766517D01*
X113529219Y-119909374D02*
X113529219Y-120480802D01*
X113529219Y-120195088D02*
X112529219Y-120195088D01*
X112529219Y-120195088D02*
X112672076Y-120290326D01*
X112672076Y-120290326D02*
X112767314Y-120385564D01*
X112767314Y-120385564D02*
X112814933Y-120480802D01*
D12*
X53797619Y-117404819D02*
X53988095Y-117404819D01*
X53988095Y-117404819D02*
X54083333Y-117452438D01*
X54083333Y-117452438D02*
X54178571Y-117547676D01*
X54178571Y-117547676D02*
X54226190Y-117738152D01*
X54226190Y-117738152D02*
X54226190Y-118071485D01*
X54226190Y-118071485D02*
X54178571Y-118261961D01*
X54178571Y-118261961D02*
X54083333Y-118357200D01*
X54083333Y-118357200D02*
X53988095Y-118404819D01*
X53988095Y-118404819D02*
X53797619Y-118404819D01*
X53797619Y-118404819D02*
X53702381Y-118357200D01*
X53702381Y-118357200D02*
X53607143Y-118261961D01*
X53607143Y-118261961D02*
X53559524Y-118071485D01*
X53559524Y-118071485D02*
X53559524Y-117738152D01*
X53559524Y-117738152D02*
X53607143Y-117547676D01*
X53607143Y-117547676D02*
X53702381Y-117452438D01*
X53702381Y-117452438D02*
X53797619Y-117404819D01*
X54654762Y-118404819D02*
X54654762Y-117404819D01*
X54654762Y-117404819D02*
X55035714Y-117404819D01*
X55035714Y-117404819D02*
X55130952Y-117452438D01*
X55130952Y-117452438D02*
X55178571Y-117500057D01*
X55178571Y-117500057D02*
X55226190Y-117595295D01*
X55226190Y-117595295D02*
X55226190Y-117738152D01*
X55226190Y-117738152D02*
X55178571Y-117833390D01*
X55178571Y-117833390D02*
X55130952Y-117881009D01*
X55130952Y-117881009D02*
X55035714Y-117928628D01*
X55035714Y-117928628D02*
X54654762Y-117928628D01*
X55511905Y-117404819D02*
X56083333Y-117404819D01*
X55797619Y-118404819D02*
X55797619Y-117404819D01*
X56321429Y-117404819D02*
X56940476Y-117404819D01*
X56940476Y-117404819D02*
X56607143Y-117785771D01*
X56607143Y-117785771D02*
X56750000Y-117785771D01*
X56750000Y-117785771D02*
X56845238Y-117833390D01*
X56845238Y-117833390D02*
X56892857Y-117881009D01*
X56892857Y-117881009D02*
X56940476Y-117976247D01*
X56940476Y-117976247D02*
X56940476Y-118214342D01*
X56940476Y-118214342D02*
X56892857Y-118309580D01*
X56892857Y-118309580D02*
X56845238Y-118357200D01*
X56845238Y-118357200D02*
X56750000Y-118404819D01*
X56750000Y-118404819D02*
X56464286Y-118404819D01*
X56464286Y-118404819D02*
X56369048Y-118357200D01*
X56369048Y-118357200D02*
X56321429Y-118309580D01*
X103666666Y-99454819D02*
X103666666Y-100169104D01*
X103666666Y-100169104D02*
X103619047Y-100311961D01*
X103619047Y-100311961D02*
X103523809Y-100407200D01*
X103523809Y-100407200D02*
X103380952Y-100454819D01*
X103380952Y-100454819D02*
X103285714Y-100454819D01*
X104095238Y-99550057D02*
X104142857Y-99502438D01*
X104142857Y-99502438D02*
X104238095Y-99454819D01*
X104238095Y-99454819D02*
X104476190Y-99454819D01*
X104476190Y-99454819D02*
X104571428Y-99502438D01*
X104571428Y-99502438D02*
X104619047Y-99550057D01*
X104619047Y-99550057D02*
X104666666Y-99645295D01*
X104666666Y-99645295D02*
X104666666Y-99740533D01*
X104666666Y-99740533D02*
X104619047Y-99883390D01*
X104619047Y-99883390D02*
X104047619Y-100454819D01*
X104047619Y-100454819D02*
X104666666Y-100454819D01*
X132951905Y-61484819D02*
X132951905Y-60484819D01*
X132951905Y-60484819D02*
X133190000Y-60484819D01*
X133190000Y-60484819D02*
X133332857Y-60532438D01*
X133332857Y-60532438D02*
X133428095Y-60627676D01*
X133428095Y-60627676D02*
X133475714Y-60722914D01*
X133475714Y-60722914D02*
X133523333Y-60913390D01*
X133523333Y-60913390D02*
X133523333Y-61056247D01*
X133523333Y-61056247D02*
X133475714Y-61246723D01*
X133475714Y-61246723D02*
X133428095Y-61341961D01*
X133428095Y-61341961D02*
X133332857Y-61437200D01*
X133332857Y-61437200D02*
X133190000Y-61484819D01*
X133190000Y-61484819D02*
X132951905Y-61484819D01*
X134475714Y-61484819D02*
X133904286Y-61484819D01*
X134190000Y-61484819D02*
X134190000Y-60484819D01*
X134190000Y-60484819D02*
X134094762Y-60627676D01*
X134094762Y-60627676D02*
X133999524Y-60722914D01*
X133999524Y-60722914D02*
X133904286Y-60770533D01*
X129618095Y-61854819D02*
X129618095Y-60854819D01*
X130189523Y-61854819D02*
X129760952Y-61283390D01*
X130189523Y-60854819D02*
X129618095Y-61426247D01*
X135858333Y-87509580D02*
X135810714Y-87557200D01*
X135810714Y-87557200D02*
X135667857Y-87604819D01*
X135667857Y-87604819D02*
X135572619Y-87604819D01*
X135572619Y-87604819D02*
X135429762Y-87557200D01*
X135429762Y-87557200D02*
X135334524Y-87461961D01*
X135334524Y-87461961D02*
X135286905Y-87366723D01*
X135286905Y-87366723D02*
X135239286Y-87176247D01*
X135239286Y-87176247D02*
X135239286Y-87033390D01*
X135239286Y-87033390D02*
X135286905Y-86842914D01*
X135286905Y-86842914D02*
X135334524Y-86747676D01*
X135334524Y-86747676D02*
X135429762Y-86652438D01*
X135429762Y-86652438D02*
X135572619Y-86604819D01*
X135572619Y-86604819D02*
X135667857Y-86604819D01*
X135667857Y-86604819D02*
X135810714Y-86652438D01*
X135810714Y-86652438D02*
X135858333Y-86700057D01*
X136286905Y-87604819D02*
X136286905Y-86604819D01*
X136286905Y-86604819D02*
X136667857Y-86604819D01*
X136667857Y-86604819D02*
X136763095Y-86652438D01*
X136763095Y-86652438D02*
X136810714Y-86700057D01*
X136810714Y-86700057D02*
X136858333Y-86795295D01*
X136858333Y-86795295D02*
X136858333Y-86938152D01*
X136858333Y-86938152D02*
X136810714Y-87033390D01*
X136810714Y-87033390D02*
X136763095Y-87081009D01*
X136763095Y-87081009D02*
X136667857Y-87128628D01*
X136667857Y-87128628D02*
X136286905Y-87128628D01*
X137239286Y-86700057D02*
X137286905Y-86652438D01*
X137286905Y-86652438D02*
X137382143Y-86604819D01*
X137382143Y-86604819D02*
X137620238Y-86604819D01*
X137620238Y-86604819D02*
X137715476Y-86652438D01*
X137715476Y-86652438D02*
X137763095Y-86700057D01*
X137763095Y-86700057D02*
X137810714Y-86795295D01*
X137810714Y-86795295D02*
X137810714Y-86890533D01*
X137810714Y-86890533D02*
X137763095Y-87033390D01*
X137763095Y-87033390D02*
X137191667Y-87604819D01*
X137191667Y-87604819D02*
X137810714Y-87604819D01*
X125583333Y-76109580D02*
X125535714Y-76157200D01*
X125535714Y-76157200D02*
X125392857Y-76204819D01*
X125392857Y-76204819D02*
X125297619Y-76204819D01*
X125297619Y-76204819D02*
X125154762Y-76157200D01*
X125154762Y-76157200D02*
X125059524Y-76061961D01*
X125059524Y-76061961D02*
X125011905Y-75966723D01*
X125011905Y-75966723D02*
X124964286Y-75776247D01*
X124964286Y-75776247D02*
X124964286Y-75633390D01*
X124964286Y-75633390D02*
X125011905Y-75442914D01*
X125011905Y-75442914D02*
X125059524Y-75347676D01*
X125059524Y-75347676D02*
X125154762Y-75252438D01*
X125154762Y-75252438D02*
X125297619Y-75204819D01*
X125297619Y-75204819D02*
X125392857Y-75204819D01*
X125392857Y-75204819D02*
X125535714Y-75252438D01*
X125535714Y-75252438D02*
X125583333Y-75300057D01*
X126011905Y-76204819D02*
X126011905Y-75204819D01*
X126011905Y-75204819D02*
X126392857Y-75204819D01*
X126392857Y-75204819D02*
X126488095Y-75252438D01*
X126488095Y-75252438D02*
X126535714Y-75300057D01*
X126535714Y-75300057D02*
X126583333Y-75395295D01*
X126583333Y-75395295D02*
X126583333Y-75538152D01*
X126583333Y-75538152D02*
X126535714Y-75633390D01*
X126535714Y-75633390D02*
X126488095Y-75681009D01*
X126488095Y-75681009D02*
X126392857Y-75728628D01*
X126392857Y-75728628D02*
X126011905Y-75728628D01*
X127535714Y-76204819D02*
X126964286Y-76204819D01*
X127250000Y-76204819D02*
X127250000Y-75204819D01*
X127250000Y-75204819D02*
X127154762Y-75347676D01*
X127154762Y-75347676D02*
X127059524Y-75442914D01*
X127059524Y-75442914D02*
X126964286Y-75490533D01*
X81294819Y-108248333D02*
X82009104Y-108248333D01*
X82009104Y-108248333D02*
X82151961Y-108295952D01*
X82151961Y-108295952D02*
X82247200Y-108391190D01*
X82247200Y-108391190D02*
X82294819Y-108534047D01*
X82294819Y-108534047D02*
X82294819Y-108629285D01*
X82294819Y-107248333D02*
X82294819Y-107819761D01*
X82294819Y-107534047D02*
X81294819Y-107534047D01*
X81294819Y-107534047D02*
X81437676Y-107629285D01*
X81437676Y-107629285D02*
X81532914Y-107724523D01*
X81532914Y-107724523D02*
X81580533Y-107819761D01*
X128305333Y-102504819D02*
X127972000Y-102028628D01*
X127733905Y-102504819D02*
X127733905Y-101504819D01*
X127733905Y-101504819D02*
X128114857Y-101504819D01*
X128114857Y-101504819D02*
X128210095Y-101552438D01*
X128210095Y-101552438D02*
X128257714Y-101600057D01*
X128257714Y-101600057D02*
X128305333Y-101695295D01*
X128305333Y-101695295D02*
X128305333Y-101838152D01*
X128305333Y-101838152D02*
X128257714Y-101933390D01*
X128257714Y-101933390D02*
X128210095Y-101981009D01*
X128210095Y-101981009D02*
X128114857Y-102028628D01*
X128114857Y-102028628D02*
X127733905Y-102028628D01*
X128733905Y-102504819D02*
X128733905Y-101504819D01*
X128733905Y-101504819D02*
X129114857Y-101504819D01*
X129114857Y-101504819D02*
X129210095Y-101552438D01*
X129210095Y-101552438D02*
X129257714Y-101600057D01*
X129257714Y-101600057D02*
X129305333Y-101695295D01*
X129305333Y-101695295D02*
X129305333Y-101838152D01*
X129305333Y-101838152D02*
X129257714Y-101933390D01*
X129257714Y-101933390D02*
X129210095Y-101981009D01*
X129210095Y-101981009D02*
X129114857Y-102028628D01*
X129114857Y-102028628D02*
X128733905Y-102028628D01*
X129686286Y-101600057D02*
X129733905Y-101552438D01*
X129733905Y-101552438D02*
X129829143Y-101504819D01*
X129829143Y-101504819D02*
X130067238Y-101504819D01*
X130067238Y-101504819D02*
X130162476Y-101552438D01*
X130162476Y-101552438D02*
X130210095Y-101600057D01*
X130210095Y-101600057D02*
X130257714Y-101695295D01*
X130257714Y-101695295D02*
X130257714Y-101790533D01*
X130257714Y-101790533D02*
X130210095Y-101933390D01*
X130210095Y-101933390D02*
X129638667Y-102504819D01*
X129638667Y-102504819D02*
X130257714Y-102504819D01*
X53737619Y-124124819D02*
X53928095Y-124124819D01*
X53928095Y-124124819D02*
X54023333Y-124172438D01*
X54023333Y-124172438D02*
X54118571Y-124267676D01*
X54118571Y-124267676D02*
X54166190Y-124458152D01*
X54166190Y-124458152D02*
X54166190Y-124791485D01*
X54166190Y-124791485D02*
X54118571Y-124981961D01*
X54118571Y-124981961D02*
X54023333Y-125077200D01*
X54023333Y-125077200D02*
X53928095Y-125124819D01*
X53928095Y-125124819D02*
X53737619Y-125124819D01*
X53737619Y-125124819D02*
X53642381Y-125077200D01*
X53642381Y-125077200D02*
X53547143Y-124981961D01*
X53547143Y-124981961D02*
X53499524Y-124791485D01*
X53499524Y-124791485D02*
X53499524Y-124458152D01*
X53499524Y-124458152D02*
X53547143Y-124267676D01*
X53547143Y-124267676D02*
X53642381Y-124172438D01*
X53642381Y-124172438D02*
X53737619Y-124124819D01*
X54594762Y-125124819D02*
X54594762Y-124124819D01*
X54594762Y-124124819D02*
X54975714Y-124124819D01*
X54975714Y-124124819D02*
X55070952Y-124172438D01*
X55070952Y-124172438D02*
X55118571Y-124220057D01*
X55118571Y-124220057D02*
X55166190Y-124315295D01*
X55166190Y-124315295D02*
X55166190Y-124458152D01*
X55166190Y-124458152D02*
X55118571Y-124553390D01*
X55118571Y-124553390D02*
X55070952Y-124601009D01*
X55070952Y-124601009D02*
X54975714Y-124648628D01*
X54975714Y-124648628D02*
X54594762Y-124648628D01*
X55451905Y-124124819D02*
X56023333Y-124124819D01*
X55737619Y-125124819D02*
X55737619Y-124124819D01*
X56785238Y-124458152D02*
X56785238Y-125124819D01*
X56547143Y-124077200D02*
X56309048Y-124791485D01*
X56309048Y-124791485D02*
X56928095Y-124791485D01*
X125582119Y-106614819D02*
X125582119Y-105614819D01*
X125582119Y-105614819D02*
X125963071Y-105614819D01*
X125963071Y-105614819D02*
X126058309Y-105662438D01*
X126058309Y-105662438D02*
X126105928Y-105710057D01*
X126105928Y-105710057D02*
X126153547Y-105805295D01*
X126153547Y-105805295D02*
X126153547Y-105948152D01*
X126153547Y-105948152D02*
X126105928Y-106043390D01*
X126105928Y-106043390D02*
X126058309Y-106091009D01*
X126058309Y-106091009D02*
X125963071Y-106138628D01*
X125963071Y-106138628D02*
X125582119Y-106138628D01*
X126486881Y-105614819D02*
X126724976Y-106614819D01*
X126724976Y-106614819D02*
X126915452Y-105900533D01*
X126915452Y-105900533D02*
X127105928Y-106614819D01*
X127105928Y-106614819D02*
X127344024Y-105614819D01*
X128296404Y-106614819D02*
X127963071Y-106138628D01*
X127724976Y-106614819D02*
X127724976Y-105614819D01*
X127724976Y-105614819D02*
X128105928Y-105614819D01*
X128105928Y-105614819D02*
X128201166Y-105662438D01*
X128201166Y-105662438D02*
X128248785Y-105710057D01*
X128248785Y-105710057D02*
X128296404Y-105805295D01*
X128296404Y-105805295D02*
X128296404Y-105948152D01*
X128296404Y-105948152D02*
X128248785Y-106043390D01*
X128248785Y-106043390D02*
X128201166Y-106091009D01*
X128201166Y-106091009D02*
X128105928Y-106138628D01*
X128105928Y-106138628D02*
X127724976Y-106138628D01*
X128724976Y-106233866D02*
X129486881Y-106233866D01*
X130153547Y-105614819D02*
X130344023Y-105614819D01*
X130344023Y-105614819D02*
X130439261Y-105662438D01*
X130439261Y-105662438D02*
X130534499Y-105757676D01*
X130534499Y-105757676D02*
X130582118Y-105948152D01*
X130582118Y-105948152D02*
X130582118Y-106281485D01*
X130582118Y-106281485D02*
X130534499Y-106471961D01*
X130534499Y-106471961D02*
X130439261Y-106567200D01*
X130439261Y-106567200D02*
X130344023Y-106614819D01*
X130344023Y-106614819D02*
X130153547Y-106614819D01*
X130153547Y-106614819D02*
X130058309Y-106567200D01*
X130058309Y-106567200D02*
X129963071Y-106471961D01*
X129963071Y-106471961D02*
X129915452Y-106281485D01*
X129915452Y-106281485D02*
X129915452Y-105948152D01*
X129915452Y-105948152D02*
X129963071Y-105757676D01*
X129963071Y-105757676D02*
X130058309Y-105662438D01*
X130058309Y-105662438D02*
X130153547Y-105614819D01*
X131010690Y-106614819D02*
X131010690Y-105614819D01*
X131010690Y-105614819D02*
X131391642Y-105614819D01*
X131391642Y-105614819D02*
X131486880Y-105662438D01*
X131486880Y-105662438D02*
X131534499Y-105710057D01*
X131534499Y-105710057D02*
X131582118Y-105805295D01*
X131582118Y-105805295D02*
X131582118Y-105948152D01*
X131582118Y-105948152D02*
X131534499Y-106043390D01*
X131534499Y-106043390D02*
X131486880Y-106091009D01*
X131486880Y-106091009D02*
X131391642Y-106138628D01*
X131391642Y-106138628D02*
X131010690Y-106138628D01*
X132534499Y-106614819D02*
X131963071Y-106614819D01*
X132248785Y-106614819D02*
X132248785Y-105614819D01*
X132248785Y-105614819D02*
X132153547Y-105757676D01*
X132153547Y-105757676D02*
X132058309Y-105852914D01*
X132058309Y-105852914D02*
X131963071Y-105900533D01*
X119859580Y-50665476D02*
X119907200Y-50713095D01*
X119907200Y-50713095D02*
X119954819Y-50855952D01*
X119954819Y-50855952D02*
X119954819Y-50951190D01*
X119954819Y-50951190D02*
X119907200Y-51094047D01*
X119907200Y-51094047D02*
X119811961Y-51189285D01*
X119811961Y-51189285D02*
X119716723Y-51236904D01*
X119716723Y-51236904D02*
X119526247Y-51284523D01*
X119526247Y-51284523D02*
X119383390Y-51284523D01*
X119383390Y-51284523D02*
X119192914Y-51236904D01*
X119192914Y-51236904D02*
X119097676Y-51189285D01*
X119097676Y-51189285D02*
X119002438Y-51094047D01*
X119002438Y-51094047D02*
X118954819Y-50951190D01*
X118954819Y-50951190D02*
X118954819Y-50855952D01*
X118954819Y-50855952D02*
X119002438Y-50713095D01*
X119002438Y-50713095D02*
X119050057Y-50665476D01*
X119954819Y-50236904D02*
X118954819Y-50236904D01*
X119431009Y-50236904D02*
X119431009Y-49665476D01*
X119954819Y-49665476D02*
X118954819Y-49665476D01*
X118954819Y-49284523D02*
X118954819Y-48665476D01*
X118954819Y-48665476D02*
X119335771Y-48998809D01*
X119335771Y-48998809D02*
X119335771Y-48855952D01*
X119335771Y-48855952D02*
X119383390Y-48760714D01*
X119383390Y-48760714D02*
X119431009Y-48713095D01*
X119431009Y-48713095D02*
X119526247Y-48665476D01*
X119526247Y-48665476D02*
X119764342Y-48665476D01*
X119764342Y-48665476D02*
X119859580Y-48713095D01*
X119859580Y-48713095D02*
X119907200Y-48760714D01*
X119907200Y-48760714D02*
X119954819Y-48855952D01*
X119954819Y-48855952D02*
X119954819Y-49141666D01*
X119954819Y-49141666D02*
X119907200Y-49236904D01*
X119907200Y-49236904D02*
X119859580Y-49284523D01*
X82761905Y-59279819D02*
X82761905Y-58279819D01*
X82761905Y-58279819D02*
X83142857Y-58279819D01*
X83142857Y-58279819D02*
X83238095Y-58327438D01*
X83238095Y-58327438D02*
X83285714Y-58375057D01*
X83285714Y-58375057D02*
X83333333Y-58470295D01*
X83333333Y-58470295D02*
X83333333Y-58613152D01*
X83333333Y-58613152D02*
X83285714Y-58708390D01*
X83285714Y-58708390D02*
X83238095Y-58756009D01*
X83238095Y-58756009D02*
X83142857Y-58803628D01*
X83142857Y-58803628D02*
X82761905Y-58803628D01*
X83666667Y-58279819D02*
X84285714Y-58279819D01*
X84285714Y-58279819D02*
X83952381Y-58660771D01*
X83952381Y-58660771D02*
X84095238Y-58660771D01*
X84095238Y-58660771D02*
X84190476Y-58708390D01*
X84190476Y-58708390D02*
X84238095Y-58756009D01*
X84238095Y-58756009D02*
X84285714Y-58851247D01*
X84285714Y-58851247D02*
X84285714Y-59089342D01*
X84285714Y-59089342D02*
X84238095Y-59184580D01*
X84238095Y-59184580D02*
X84190476Y-59232200D01*
X84190476Y-59232200D02*
X84095238Y-59279819D01*
X84095238Y-59279819D02*
X83809524Y-59279819D01*
X83809524Y-59279819D02*
X83714286Y-59232200D01*
X83714286Y-59232200D02*
X83666667Y-59184580D01*
X53737619Y-110212968D02*
X53928095Y-110212968D01*
X53928095Y-110212968D02*
X54023333Y-110260587D01*
X54023333Y-110260587D02*
X54118571Y-110355825D01*
X54118571Y-110355825D02*
X54166190Y-110546301D01*
X54166190Y-110546301D02*
X54166190Y-110879634D01*
X54166190Y-110879634D02*
X54118571Y-111070110D01*
X54118571Y-111070110D02*
X54023333Y-111165349D01*
X54023333Y-111165349D02*
X53928095Y-111212968D01*
X53928095Y-111212968D02*
X53737619Y-111212968D01*
X53737619Y-111212968D02*
X53642381Y-111165349D01*
X53642381Y-111165349D02*
X53547143Y-111070110D01*
X53547143Y-111070110D02*
X53499524Y-110879634D01*
X53499524Y-110879634D02*
X53499524Y-110546301D01*
X53499524Y-110546301D02*
X53547143Y-110355825D01*
X53547143Y-110355825D02*
X53642381Y-110260587D01*
X53642381Y-110260587D02*
X53737619Y-110212968D01*
X54594762Y-111212968D02*
X54594762Y-110212968D01*
X54594762Y-110212968D02*
X54975714Y-110212968D01*
X54975714Y-110212968D02*
X55070952Y-110260587D01*
X55070952Y-110260587D02*
X55118571Y-110308206D01*
X55118571Y-110308206D02*
X55166190Y-110403444D01*
X55166190Y-110403444D02*
X55166190Y-110546301D01*
X55166190Y-110546301D02*
X55118571Y-110641539D01*
X55118571Y-110641539D02*
X55070952Y-110689158D01*
X55070952Y-110689158D02*
X54975714Y-110736777D01*
X54975714Y-110736777D02*
X54594762Y-110736777D01*
X55451905Y-110212968D02*
X56023333Y-110212968D01*
X55737619Y-111212968D02*
X55737619Y-110212968D01*
X56309048Y-110308206D02*
X56356667Y-110260587D01*
X56356667Y-110260587D02*
X56451905Y-110212968D01*
X56451905Y-110212968D02*
X56690000Y-110212968D01*
X56690000Y-110212968D02*
X56785238Y-110260587D01*
X56785238Y-110260587D02*
X56832857Y-110308206D01*
X56832857Y-110308206D02*
X56880476Y-110403444D01*
X56880476Y-110403444D02*
X56880476Y-110498682D01*
X56880476Y-110498682D02*
X56832857Y-110641539D01*
X56832857Y-110641539D02*
X56261429Y-111212968D01*
X56261429Y-111212968D02*
X56880476Y-111212968D01*
X132761905Y-49634819D02*
X132761905Y-48634819D01*
X132761905Y-48634819D02*
X133142857Y-48634819D01*
X133142857Y-48634819D02*
X133238095Y-48682438D01*
X133238095Y-48682438D02*
X133285714Y-48730057D01*
X133285714Y-48730057D02*
X133333333Y-48825295D01*
X133333333Y-48825295D02*
X133333333Y-48968152D01*
X133333333Y-48968152D02*
X133285714Y-49063390D01*
X133285714Y-49063390D02*
X133238095Y-49111009D01*
X133238095Y-49111009D02*
X133142857Y-49158628D01*
X133142857Y-49158628D02*
X132761905Y-49158628D01*
X133761905Y-49634819D02*
X133761905Y-48634819D01*
X133761905Y-48634819D02*
X134142857Y-48634819D01*
X134142857Y-48634819D02*
X134238095Y-48682438D01*
X134238095Y-48682438D02*
X134285714Y-48730057D01*
X134285714Y-48730057D02*
X134333333Y-48825295D01*
X134333333Y-48825295D02*
X134333333Y-48968152D01*
X134333333Y-48968152D02*
X134285714Y-49063390D01*
X134285714Y-49063390D02*
X134238095Y-49111009D01*
X134238095Y-49111009D02*
X134142857Y-49158628D01*
X134142857Y-49158628D02*
X133761905Y-49158628D01*
X135285714Y-49634819D02*
X134714286Y-49634819D01*
X135000000Y-49634819D02*
X135000000Y-48634819D01*
X135000000Y-48634819D02*
X134904762Y-48777676D01*
X134904762Y-48777676D02*
X134809524Y-48872914D01*
X134809524Y-48872914D02*
X134714286Y-48920533D01*
X121404761Y-58794819D02*
X121071428Y-58318628D01*
X120833333Y-58794819D02*
X120833333Y-57794819D01*
X120833333Y-57794819D02*
X121214285Y-57794819D01*
X121214285Y-57794819D02*
X121309523Y-57842438D01*
X121309523Y-57842438D02*
X121357142Y-57890057D01*
X121357142Y-57890057D02*
X121404761Y-57985295D01*
X121404761Y-57985295D02*
X121404761Y-58128152D01*
X121404761Y-58128152D02*
X121357142Y-58223390D01*
X121357142Y-58223390D02*
X121309523Y-58271009D01*
X121309523Y-58271009D02*
X121214285Y-58318628D01*
X121214285Y-58318628D02*
X120833333Y-58318628D01*
X121785714Y-58509104D02*
X122261904Y-58509104D01*
X121690476Y-58794819D02*
X122023809Y-57794819D01*
X122023809Y-57794819D02*
X122357142Y-58794819D01*
X123119047Y-58128152D02*
X123119047Y-58794819D01*
X122880952Y-57747200D02*
X122642857Y-58461485D01*
X122642857Y-58461485D02*
X123261904Y-58461485D01*
X115944819Y-90495238D02*
X115468628Y-90828571D01*
X115944819Y-91066666D02*
X114944819Y-91066666D01*
X114944819Y-91066666D02*
X114944819Y-90685714D01*
X114944819Y-90685714D02*
X114992438Y-90590476D01*
X114992438Y-90590476D02*
X115040057Y-90542857D01*
X115040057Y-90542857D02*
X115135295Y-90495238D01*
X115135295Y-90495238D02*
X115278152Y-90495238D01*
X115278152Y-90495238D02*
X115373390Y-90542857D01*
X115373390Y-90542857D02*
X115421009Y-90590476D01*
X115421009Y-90590476D02*
X115468628Y-90685714D01*
X115468628Y-90685714D02*
X115468628Y-91066666D01*
X115659104Y-90114285D02*
X115659104Y-89638095D01*
X115944819Y-90209523D02*
X114944819Y-89876190D01*
X114944819Y-89876190D02*
X115944819Y-89542857D01*
X115040057Y-89257142D02*
X114992438Y-89209523D01*
X114992438Y-89209523D02*
X114944819Y-89114285D01*
X114944819Y-89114285D02*
X114944819Y-88876190D01*
X114944819Y-88876190D02*
X114992438Y-88780952D01*
X114992438Y-88780952D02*
X115040057Y-88733333D01*
X115040057Y-88733333D02*
X115135295Y-88685714D01*
X115135295Y-88685714D02*
X115230533Y-88685714D01*
X115230533Y-88685714D02*
X115373390Y-88733333D01*
X115373390Y-88733333D02*
X115944819Y-89304761D01*
X115944819Y-89304761D02*
X115944819Y-88685714D01*
X65436905Y-59129819D02*
X65436905Y-58129819D01*
X65436905Y-58129819D02*
X65817857Y-58129819D01*
X65817857Y-58129819D02*
X65913095Y-58177438D01*
X65913095Y-58177438D02*
X65960714Y-58225057D01*
X65960714Y-58225057D02*
X66008333Y-58320295D01*
X66008333Y-58320295D02*
X66008333Y-58463152D01*
X66008333Y-58463152D02*
X65960714Y-58558390D01*
X65960714Y-58558390D02*
X65913095Y-58606009D01*
X65913095Y-58606009D02*
X65817857Y-58653628D01*
X65817857Y-58653628D02*
X65436905Y-58653628D01*
X66389286Y-58225057D02*
X66436905Y-58177438D01*
X66436905Y-58177438D02*
X66532143Y-58129819D01*
X66532143Y-58129819D02*
X66770238Y-58129819D01*
X66770238Y-58129819D02*
X66865476Y-58177438D01*
X66865476Y-58177438D02*
X66913095Y-58225057D01*
X66913095Y-58225057D02*
X66960714Y-58320295D01*
X66960714Y-58320295D02*
X66960714Y-58415533D01*
X66960714Y-58415533D02*
X66913095Y-58558390D01*
X66913095Y-58558390D02*
X66341667Y-59129819D01*
X66341667Y-59129819D02*
X66960714Y-59129819D01*
X51114819Y-136285714D02*
X50638628Y-136619047D01*
X51114819Y-136857142D02*
X50114819Y-136857142D01*
X50114819Y-136857142D02*
X50114819Y-136476190D01*
X50114819Y-136476190D02*
X50162438Y-136380952D01*
X50162438Y-136380952D02*
X50210057Y-136333333D01*
X50210057Y-136333333D02*
X50305295Y-136285714D01*
X50305295Y-136285714D02*
X50448152Y-136285714D01*
X50448152Y-136285714D02*
X50543390Y-136333333D01*
X50543390Y-136333333D02*
X50591009Y-136380952D01*
X50591009Y-136380952D02*
X50638628Y-136476190D01*
X50638628Y-136476190D02*
X50638628Y-136857142D01*
X51114819Y-135857142D02*
X50114819Y-135857142D01*
X50114819Y-135857142D02*
X51114819Y-135285714D01*
X51114819Y-135285714D02*
X50114819Y-135285714D01*
X50210057Y-134857142D02*
X50162438Y-134809523D01*
X50162438Y-134809523D02*
X50114819Y-134714285D01*
X50114819Y-134714285D02*
X50114819Y-134476190D01*
X50114819Y-134476190D02*
X50162438Y-134380952D01*
X50162438Y-134380952D02*
X50210057Y-134333333D01*
X50210057Y-134333333D02*
X50305295Y-134285714D01*
X50305295Y-134285714D02*
X50400533Y-134285714D01*
X50400533Y-134285714D02*
X50543390Y-134333333D01*
X50543390Y-134333333D02*
X51114819Y-134904761D01*
X51114819Y-134904761D02*
X51114819Y-134285714D01*
X50733866Y-133857142D02*
X50733866Y-133095238D01*
X51114819Y-132095238D02*
X51114819Y-132666666D01*
X51114819Y-132380952D02*
X50114819Y-132380952D01*
X50114819Y-132380952D02*
X50257676Y-132476190D01*
X50257676Y-132476190D02*
X50352914Y-132571428D01*
X50352914Y-132571428D02*
X50400533Y-132666666D01*
X128141048Y-126734819D02*
X128141048Y-125734819D01*
X128141048Y-125734819D02*
X128522000Y-125734819D01*
X128522000Y-125734819D02*
X128617238Y-125782438D01*
X128617238Y-125782438D02*
X128664857Y-125830057D01*
X128664857Y-125830057D02*
X128712476Y-125925295D01*
X128712476Y-125925295D02*
X128712476Y-126068152D01*
X128712476Y-126068152D02*
X128664857Y-126163390D01*
X128664857Y-126163390D02*
X128617238Y-126211009D01*
X128617238Y-126211009D02*
X128522000Y-126258628D01*
X128522000Y-126258628D02*
X128141048Y-126258628D01*
X129045810Y-125734819D02*
X129283905Y-126734819D01*
X129283905Y-126734819D02*
X129474381Y-126020533D01*
X129474381Y-126020533D02*
X129664857Y-126734819D01*
X129664857Y-126734819D02*
X129902953Y-125734819D01*
X130283905Y-126734819D02*
X130283905Y-125734819D01*
X130283905Y-125734819D02*
X130617238Y-126449104D01*
X130617238Y-126449104D02*
X130950571Y-125734819D01*
X130950571Y-125734819D02*
X130950571Y-126734819D01*
X131950571Y-126734819D02*
X131379143Y-126734819D01*
X131664857Y-126734819D02*
X131664857Y-125734819D01*
X131664857Y-125734819D02*
X131569619Y-125877676D01*
X131569619Y-125877676D02*
X131474381Y-125972914D01*
X131474381Y-125972914D02*
X131379143Y-126020533D01*
X133407200Y-132785713D02*
X133454819Y-132642856D01*
X133454819Y-132642856D02*
X133454819Y-132404761D01*
X133454819Y-132404761D02*
X133407200Y-132309523D01*
X133407200Y-132309523D02*
X133359580Y-132261904D01*
X133359580Y-132261904D02*
X133264342Y-132214285D01*
X133264342Y-132214285D02*
X133169104Y-132214285D01*
X133169104Y-132214285D02*
X133073866Y-132261904D01*
X133073866Y-132261904D02*
X133026247Y-132309523D01*
X133026247Y-132309523D02*
X132978628Y-132404761D01*
X132978628Y-132404761D02*
X132931009Y-132595237D01*
X132931009Y-132595237D02*
X132883390Y-132690475D01*
X132883390Y-132690475D02*
X132835771Y-132738094D01*
X132835771Y-132738094D02*
X132740533Y-132785713D01*
X132740533Y-132785713D02*
X132645295Y-132785713D01*
X132645295Y-132785713D02*
X132550057Y-132738094D01*
X132550057Y-132738094D02*
X132502438Y-132690475D01*
X132502438Y-132690475D02*
X132454819Y-132595237D01*
X132454819Y-132595237D02*
X132454819Y-132357142D01*
X132454819Y-132357142D02*
X132502438Y-132214285D01*
X133169104Y-131833332D02*
X133169104Y-131357142D01*
X133454819Y-131928570D02*
X132454819Y-131595237D01*
X132454819Y-131595237D02*
X133454819Y-131261904D01*
X133454819Y-130452380D02*
X133454819Y-130928570D01*
X133454819Y-130928570D02*
X132454819Y-130928570D01*
X133454819Y-130119046D02*
X132454819Y-130119046D01*
X133454819Y-129642856D02*
X132454819Y-129642856D01*
X132454819Y-129642856D02*
X132454819Y-129404761D01*
X132454819Y-129404761D02*
X132502438Y-129261904D01*
X132502438Y-129261904D02*
X132597676Y-129166666D01*
X132597676Y-129166666D02*
X132692914Y-129119047D01*
X132692914Y-129119047D02*
X132883390Y-129071428D01*
X132883390Y-129071428D02*
X133026247Y-129071428D01*
X133026247Y-129071428D02*
X133216723Y-129119047D01*
X133216723Y-129119047D02*
X133311961Y-129166666D01*
X133311961Y-129166666D02*
X133407200Y-129261904D01*
X133407200Y-129261904D02*
X133454819Y-129404761D01*
X133454819Y-129404761D02*
X133454819Y-129642856D01*
X133169104Y-128690475D02*
X133169104Y-128214285D01*
X133454819Y-128785713D02*
X132454819Y-128452380D01*
X132454819Y-128452380D02*
X133454819Y-128119047D01*
X116359580Y-50665476D02*
X116407200Y-50713095D01*
X116407200Y-50713095D02*
X116454819Y-50855952D01*
X116454819Y-50855952D02*
X116454819Y-50951190D01*
X116454819Y-50951190D02*
X116407200Y-51094047D01*
X116407200Y-51094047D02*
X116311961Y-51189285D01*
X116311961Y-51189285D02*
X116216723Y-51236904D01*
X116216723Y-51236904D02*
X116026247Y-51284523D01*
X116026247Y-51284523D02*
X115883390Y-51284523D01*
X115883390Y-51284523D02*
X115692914Y-51236904D01*
X115692914Y-51236904D02*
X115597676Y-51189285D01*
X115597676Y-51189285D02*
X115502438Y-51094047D01*
X115502438Y-51094047D02*
X115454819Y-50951190D01*
X115454819Y-50951190D02*
X115454819Y-50855952D01*
X115454819Y-50855952D02*
X115502438Y-50713095D01*
X115502438Y-50713095D02*
X115550057Y-50665476D01*
X116454819Y-50236904D02*
X115454819Y-50236904D01*
X115931009Y-50236904D02*
X115931009Y-49665476D01*
X116454819Y-49665476D02*
X115454819Y-49665476D01*
X115550057Y-49236904D02*
X115502438Y-49189285D01*
X115502438Y-49189285D02*
X115454819Y-49094047D01*
X115454819Y-49094047D02*
X115454819Y-48855952D01*
X115454819Y-48855952D02*
X115502438Y-48760714D01*
X115502438Y-48760714D02*
X115550057Y-48713095D01*
X115550057Y-48713095D02*
X115645295Y-48665476D01*
X115645295Y-48665476D02*
X115740533Y-48665476D01*
X115740533Y-48665476D02*
X115883390Y-48713095D01*
X115883390Y-48713095D02*
X116454819Y-49284523D01*
X116454819Y-49284523D02*
X116454819Y-48665476D01*
X112859580Y-50665476D02*
X112907200Y-50713095D01*
X112907200Y-50713095D02*
X112954819Y-50855952D01*
X112954819Y-50855952D02*
X112954819Y-50951190D01*
X112954819Y-50951190D02*
X112907200Y-51094047D01*
X112907200Y-51094047D02*
X112811961Y-51189285D01*
X112811961Y-51189285D02*
X112716723Y-51236904D01*
X112716723Y-51236904D02*
X112526247Y-51284523D01*
X112526247Y-51284523D02*
X112383390Y-51284523D01*
X112383390Y-51284523D02*
X112192914Y-51236904D01*
X112192914Y-51236904D02*
X112097676Y-51189285D01*
X112097676Y-51189285D02*
X112002438Y-51094047D01*
X112002438Y-51094047D02*
X111954819Y-50951190D01*
X111954819Y-50951190D02*
X111954819Y-50855952D01*
X111954819Y-50855952D02*
X112002438Y-50713095D01*
X112002438Y-50713095D02*
X112050057Y-50665476D01*
X112954819Y-50236904D02*
X111954819Y-50236904D01*
X112431009Y-50236904D02*
X112431009Y-49665476D01*
X112954819Y-49665476D02*
X111954819Y-49665476D01*
X112954819Y-48665476D02*
X112954819Y-49236904D01*
X112954819Y-48951190D02*
X111954819Y-48951190D01*
X111954819Y-48951190D02*
X112097676Y-49046428D01*
X112097676Y-49046428D02*
X112192914Y-49141666D01*
X112192914Y-49141666D02*
X112240533Y-49236904D01*
X45286666Y-144584819D02*
X45286666Y-145299104D01*
X45286666Y-145299104D02*
X45239047Y-145441961D01*
X45239047Y-145441961D02*
X45143809Y-145537200D01*
X45143809Y-145537200D02*
X45000952Y-145584819D01*
X45000952Y-145584819D02*
X44905714Y-145584819D01*
X45667619Y-144584819D02*
X46286666Y-144584819D01*
X46286666Y-144584819D02*
X45953333Y-144965771D01*
X45953333Y-144965771D02*
X46096190Y-144965771D01*
X46096190Y-144965771D02*
X46191428Y-145013390D01*
X46191428Y-145013390D02*
X46239047Y-145061009D01*
X46239047Y-145061009D02*
X46286666Y-145156247D01*
X46286666Y-145156247D02*
X46286666Y-145394342D01*
X46286666Y-145394342D02*
X46239047Y-145489580D01*
X46239047Y-145489580D02*
X46191428Y-145537200D01*
X46191428Y-145537200D02*
X46096190Y-145584819D01*
X46096190Y-145584819D02*
X45810476Y-145584819D01*
X45810476Y-145584819D02*
X45715238Y-145537200D01*
X45715238Y-145537200D02*
X45667619Y-145489580D01*
X48119047Y-81154819D02*
X47785714Y-80678628D01*
X47547619Y-81154819D02*
X47547619Y-80154819D01*
X47547619Y-80154819D02*
X47928571Y-80154819D01*
X47928571Y-80154819D02*
X48023809Y-80202438D01*
X48023809Y-80202438D02*
X48071428Y-80250057D01*
X48071428Y-80250057D02*
X48119047Y-80345295D01*
X48119047Y-80345295D02*
X48119047Y-80488152D01*
X48119047Y-80488152D02*
X48071428Y-80583390D01*
X48071428Y-80583390D02*
X48023809Y-80631009D01*
X48023809Y-80631009D02*
X47928571Y-80678628D01*
X47928571Y-80678628D02*
X47547619Y-80678628D01*
X48547619Y-80631009D02*
X48880952Y-80631009D01*
X49023809Y-81154819D02*
X48547619Y-81154819D01*
X48547619Y-81154819D02*
X48547619Y-80154819D01*
X48547619Y-80154819D02*
X49023809Y-80154819D01*
X49928571Y-81154819D02*
X49452381Y-81154819D01*
X49452381Y-81154819D02*
X49452381Y-80154819D01*
X50214286Y-80869104D02*
X50690476Y-80869104D01*
X50119048Y-81154819D02*
X50452381Y-80154819D01*
X50452381Y-80154819D02*
X50785714Y-81154819D01*
X51309524Y-80678628D02*
X51309524Y-81154819D01*
X50976191Y-80154819D02*
X51309524Y-80678628D01*
X51309524Y-80678628D02*
X51642857Y-80154819D01*
X52500000Y-81154819D02*
X51928572Y-81154819D01*
X52214286Y-81154819D02*
X52214286Y-80154819D01*
X52214286Y-80154819D02*
X52119048Y-80297676D01*
X52119048Y-80297676D02*
X52023810Y-80392914D01*
X52023810Y-80392914D02*
X51928572Y-80440533D01*
X99861905Y-59304819D02*
X99861905Y-58304819D01*
X99861905Y-58304819D02*
X100242857Y-58304819D01*
X100242857Y-58304819D02*
X100338095Y-58352438D01*
X100338095Y-58352438D02*
X100385714Y-58400057D01*
X100385714Y-58400057D02*
X100433333Y-58495295D01*
X100433333Y-58495295D02*
X100433333Y-58638152D01*
X100433333Y-58638152D02*
X100385714Y-58733390D01*
X100385714Y-58733390D02*
X100338095Y-58781009D01*
X100338095Y-58781009D02*
X100242857Y-58828628D01*
X100242857Y-58828628D02*
X99861905Y-58828628D01*
X101290476Y-58638152D02*
X101290476Y-59304819D01*
X101052381Y-58257200D02*
X100814286Y-58971485D01*
X100814286Y-58971485D02*
X101433333Y-58971485D01*
X63714285Y-90294819D02*
X63380952Y-89818628D01*
X63142857Y-90294819D02*
X63142857Y-89294819D01*
X63142857Y-89294819D02*
X63523809Y-89294819D01*
X63523809Y-89294819D02*
X63619047Y-89342438D01*
X63619047Y-89342438D02*
X63666666Y-89390057D01*
X63666666Y-89390057D02*
X63714285Y-89485295D01*
X63714285Y-89485295D02*
X63714285Y-89628152D01*
X63714285Y-89628152D02*
X63666666Y-89723390D01*
X63666666Y-89723390D02*
X63619047Y-89771009D01*
X63619047Y-89771009D02*
X63523809Y-89818628D01*
X63523809Y-89818628D02*
X63142857Y-89818628D01*
X64142857Y-90294819D02*
X64142857Y-89294819D01*
X64142857Y-89294819D02*
X64714285Y-90294819D01*
X64714285Y-90294819D02*
X64714285Y-89294819D01*
X65714285Y-90294819D02*
X65142857Y-90294819D01*
X65428571Y-90294819D02*
X65428571Y-89294819D01*
X65428571Y-89294819D02*
X65333333Y-89437676D01*
X65333333Y-89437676D02*
X65238095Y-89532914D01*
X65238095Y-89532914D02*
X65142857Y-89580533D01*
X66142857Y-89913866D02*
X66904762Y-89913866D01*
X67904761Y-90294819D02*
X67333333Y-90294819D01*
X67619047Y-90294819D02*
X67619047Y-89294819D01*
X67619047Y-89294819D02*
X67523809Y-89437676D01*
X67523809Y-89437676D02*
X67428571Y-89532914D01*
X67428571Y-89532914D02*
X67333333Y-89580533D01*
X56321485Y-146974999D02*
X55321485Y-146974999D01*
X56321485Y-146498809D02*
X55321485Y-146498809D01*
X55321485Y-146498809D02*
X56321485Y-145927381D01*
X56321485Y-145927381D02*
X55321485Y-145927381D01*
X55416723Y-145498809D02*
X55369104Y-145451190D01*
X55369104Y-145451190D02*
X55321485Y-145355952D01*
X55321485Y-145355952D02*
X55321485Y-145117857D01*
X55321485Y-145117857D02*
X55369104Y-145022619D01*
X55369104Y-145022619D02*
X55416723Y-144975000D01*
X55416723Y-144975000D02*
X55511961Y-144927381D01*
X55511961Y-144927381D02*
X55607199Y-144927381D01*
X55607199Y-144927381D02*
X55750056Y-144975000D01*
X55750056Y-144975000D02*
X56321485Y-145546428D01*
X56321485Y-145546428D02*
X56321485Y-144927381D01*
X126859580Y-50665476D02*
X126907200Y-50713095D01*
X126907200Y-50713095D02*
X126954819Y-50855952D01*
X126954819Y-50855952D02*
X126954819Y-50951190D01*
X126954819Y-50951190D02*
X126907200Y-51094047D01*
X126907200Y-51094047D02*
X126811961Y-51189285D01*
X126811961Y-51189285D02*
X126716723Y-51236904D01*
X126716723Y-51236904D02*
X126526247Y-51284523D01*
X126526247Y-51284523D02*
X126383390Y-51284523D01*
X126383390Y-51284523D02*
X126192914Y-51236904D01*
X126192914Y-51236904D02*
X126097676Y-51189285D01*
X126097676Y-51189285D02*
X126002438Y-51094047D01*
X126002438Y-51094047D02*
X125954819Y-50951190D01*
X125954819Y-50951190D02*
X125954819Y-50855952D01*
X125954819Y-50855952D02*
X126002438Y-50713095D01*
X126002438Y-50713095D02*
X126050057Y-50665476D01*
X126954819Y-50236904D02*
X125954819Y-50236904D01*
X126431009Y-50236904D02*
X126431009Y-49665476D01*
X126954819Y-49665476D02*
X125954819Y-49665476D01*
X125954819Y-48713095D02*
X125954819Y-49189285D01*
X125954819Y-49189285D02*
X126431009Y-49236904D01*
X126431009Y-49236904D02*
X126383390Y-49189285D01*
X126383390Y-49189285D02*
X126335771Y-49094047D01*
X126335771Y-49094047D02*
X126335771Y-48855952D01*
X126335771Y-48855952D02*
X126383390Y-48760714D01*
X126383390Y-48760714D02*
X126431009Y-48713095D01*
X126431009Y-48713095D02*
X126526247Y-48665476D01*
X126526247Y-48665476D02*
X126764342Y-48665476D01*
X126764342Y-48665476D02*
X126859580Y-48713095D01*
X126859580Y-48713095D02*
X126907200Y-48760714D01*
X126907200Y-48760714D02*
X126954819Y-48855952D01*
X126954819Y-48855952D02*
X126954819Y-49094047D01*
X126954819Y-49094047D02*
X126907200Y-49189285D01*
X126907200Y-49189285D02*
X126859580Y-49236904D01*
X123359580Y-50665476D02*
X123407200Y-50713095D01*
X123407200Y-50713095D02*
X123454819Y-50855952D01*
X123454819Y-50855952D02*
X123454819Y-50951190D01*
X123454819Y-50951190D02*
X123407200Y-51094047D01*
X123407200Y-51094047D02*
X123311961Y-51189285D01*
X123311961Y-51189285D02*
X123216723Y-51236904D01*
X123216723Y-51236904D02*
X123026247Y-51284523D01*
X123026247Y-51284523D02*
X122883390Y-51284523D01*
X122883390Y-51284523D02*
X122692914Y-51236904D01*
X122692914Y-51236904D02*
X122597676Y-51189285D01*
X122597676Y-51189285D02*
X122502438Y-51094047D01*
X122502438Y-51094047D02*
X122454819Y-50951190D01*
X122454819Y-50951190D02*
X122454819Y-50855952D01*
X122454819Y-50855952D02*
X122502438Y-50713095D01*
X122502438Y-50713095D02*
X122550057Y-50665476D01*
X123454819Y-50236904D02*
X122454819Y-50236904D01*
X122931009Y-50236904D02*
X122931009Y-49665476D01*
X123454819Y-49665476D02*
X122454819Y-49665476D01*
X122788152Y-48760714D02*
X123454819Y-48760714D01*
X122407200Y-48998809D02*
X123121485Y-49236904D01*
X123121485Y-49236904D02*
X123121485Y-48617857D01*
X98619047Y-81154819D02*
X98285714Y-80678628D01*
X98047619Y-81154819D02*
X98047619Y-80154819D01*
X98047619Y-80154819D02*
X98428571Y-80154819D01*
X98428571Y-80154819D02*
X98523809Y-80202438D01*
X98523809Y-80202438D02*
X98571428Y-80250057D01*
X98571428Y-80250057D02*
X98619047Y-80345295D01*
X98619047Y-80345295D02*
X98619047Y-80488152D01*
X98619047Y-80488152D02*
X98571428Y-80583390D01*
X98571428Y-80583390D02*
X98523809Y-80631009D01*
X98523809Y-80631009D02*
X98428571Y-80678628D01*
X98428571Y-80678628D02*
X98047619Y-80678628D01*
X99047619Y-80631009D02*
X99380952Y-80631009D01*
X99523809Y-81154819D02*
X99047619Y-81154819D01*
X99047619Y-81154819D02*
X99047619Y-80154819D01*
X99047619Y-80154819D02*
X99523809Y-80154819D01*
X100428571Y-81154819D02*
X99952381Y-81154819D01*
X99952381Y-81154819D02*
X99952381Y-80154819D01*
X100714286Y-80869104D02*
X101190476Y-80869104D01*
X100619048Y-81154819D02*
X100952381Y-80154819D01*
X100952381Y-80154819D02*
X101285714Y-81154819D01*
X101809524Y-80678628D02*
X101809524Y-81154819D01*
X101476191Y-80154819D02*
X101809524Y-80678628D01*
X101809524Y-80678628D02*
X102142857Y-80154819D01*
X102904762Y-80488152D02*
X102904762Y-81154819D01*
X102666667Y-80107200D02*
X102428572Y-80821485D01*
X102428572Y-80821485D02*
X103047619Y-80821485D01*
X132266666Y-72981009D02*
X131933333Y-72981009D01*
X131933333Y-73504819D02*
X131933333Y-72504819D01*
X131933333Y-72504819D02*
X132409523Y-72504819D01*
X132695238Y-72504819D02*
X133314285Y-72504819D01*
X133314285Y-72504819D02*
X132980952Y-72885771D01*
X132980952Y-72885771D02*
X133123809Y-72885771D01*
X133123809Y-72885771D02*
X133219047Y-72933390D01*
X133219047Y-72933390D02*
X133266666Y-72981009D01*
X133266666Y-72981009D02*
X133314285Y-73076247D01*
X133314285Y-73076247D02*
X133314285Y-73314342D01*
X133314285Y-73314342D02*
X133266666Y-73409580D01*
X133266666Y-73409580D02*
X133219047Y-73457200D01*
X133219047Y-73457200D02*
X133123809Y-73504819D01*
X133123809Y-73504819D02*
X132838095Y-73504819D01*
X132838095Y-73504819D02*
X132742857Y-73457200D01*
X132742857Y-73457200D02*
X132695238Y-73409580D01*
X106188666Y-100114819D02*
X106188666Y-100829104D01*
X106188666Y-100829104D02*
X106141047Y-100971961D01*
X106141047Y-100971961D02*
X106045809Y-101067200D01*
X106045809Y-101067200D02*
X105902952Y-101114819D01*
X105902952Y-101114819D02*
X105807714Y-101114819D01*
X107093428Y-100448152D02*
X107093428Y-101114819D01*
X106855333Y-100067200D02*
X106617238Y-100781485D01*
X106617238Y-100781485D02*
X107236285Y-100781485D01*
X52288152Y-146974999D02*
X51288152Y-146974999D01*
X52288152Y-146498809D02*
X51288152Y-146498809D01*
X51288152Y-146498809D02*
X52288152Y-145927381D01*
X52288152Y-145927381D02*
X51288152Y-145927381D01*
X52288152Y-144927381D02*
X52288152Y-145498809D01*
X52288152Y-145213095D02*
X51288152Y-145213095D01*
X51288152Y-145213095D02*
X51431009Y-145308333D01*
X51431009Y-145308333D02*
X51526247Y-145403571D01*
X51526247Y-145403571D02*
X51573866Y-145498809D01*
X134583333Y-76109580D02*
X134535714Y-76157200D01*
X134535714Y-76157200D02*
X134392857Y-76204819D01*
X134392857Y-76204819D02*
X134297619Y-76204819D01*
X134297619Y-76204819D02*
X134154762Y-76157200D01*
X134154762Y-76157200D02*
X134059524Y-76061961D01*
X134059524Y-76061961D02*
X134011905Y-75966723D01*
X134011905Y-75966723D02*
X133964286Y-75776247D01*
X133964286Y-75776247D02*
X133964286Y-75633390D01*
X133964286Y-75633390D02*
X134011905Y-75442914D01*
X134011905Y-75442914D02*
X134059524Y-75347676D01*
X134059524Y-75347676D02*
X134154762Y-75252438D01*
X134154762Y-75252438D02*
X134297619Y-75204819D01*
X134297619Y-75204819D02*
X134392857Y-75204819D01*
X134392857Y-75204819D02*
X134535714Y-75252438D01*
X134535714Y-75252438D02*
X134583333Y-75300057D01*
X135011905Y-76204819D02*
X135011905Y-75204819D01*
X135011905Y-75204819D02*
X135392857Y-75204819D01*
X135392857Y-75204819D02*
X135488095Y-75252438D01*
X135488095Y-75252438D02*
X135535714Y-75300057D01*
X135535714Y-75300057D02*
X135583333Y-75395295D01*
X135583333Y-75395295D02*
X135583333Y-75538152D01*
X135583333Y-75538152D02*
X135535714Y-75633390D01*
X135535714Y-75633390D02*
X135488095Y-75681009D01*
X135488095Y-75681009D02*
X135392857Y-75728628D01*
X135392857Y-75728628D02*
X135011905Y-75728628D01*
X135916667Y-75204819D02*
X136535714Y-75204819D01*
X136535714Y-75204819D02*
X136202381Y-75585771D01*
X136202381Y-75585771D02*
X136345238Y-75585771D01*
X136345238Y-75585771D02*
X136440476Y-75633390D01*
X136440476Y-75633390D02*
X136488095Y-75681009D01*
X136488095Y-75681009D02*
X136535714Y-75776247D01*
X136535714Y-75776247D02*
X136535714Y-76014342D01*
X136535714Y-76014342D02*
X136488095Y-76109580D01*
X136488095Y-76109580D02*
X136440476Y-76157200D01*
X136440476Y-76157200D02*
X136345238Y-76204819D01*
X136345238Y-76204819D02*
X136059524Y-76204819D01*
X136059524Y-76204819D02*
X135964286Y-76157200D01*
X135964286Y-76157200D02*
X135916667Y-76109580D01*
X130508333Y-91209580D02*
X130460714Y-91257200D01*
X130460714Y-91257200D02*
X130317857Y-91304819D01*
X130317857Y-91304819D02*
X130222619Y-91304819D01*
X130222619Y-91304819D02*
X130079762Y-91257200D01*
X130079762Y-91257200D02*
X129984524Y-91161961D01*
X129984524Y-91161961D02*
X129936905Y-91066723D01*
X129936905Y-91066723D02*
X129889286Y-90876247D01*
X129889286Y-90876247D02*
X129889286Y-90733390D01*
X129889286Y-90733390D02*
X129936905Y-90542914D01*
X129936905Y-90542914D02*
X129984524Y-90447676D01*
X129984524Y-90447676D02*
X130079762Y-90352438D01*
X130079762Y-90352438D02*
X130222619Y-90304819D01*
X130222619Y-90304819D02*
X130317857Y-90304819D01*
X130317857Y-90304819D02*
X130460714Y-90352438D01*
X130460714Y-90352438D02*
X130508333Y-90400057D01*
X130936905Y-91304819D02*
X130936905Y-90304819D01*
X130936905Y-90304819D02*
X131317857Y-90304819D01*
X131317857Y-90304819D02*
X131413095Y-90352438D01*
X131413095Y-90352438D02*
X131460714Y-90400057D01*
X131460714Y-90400057D02*
X131508333Y-90495295D01*
X131508333Y-90495295D02*
X131508333Y-90638152D01*
X131508333Y-90638152D02*
X131460714Y-90733390D01*
X131460714Y-90733390D02*
X131413095Y-90781009D01*
X131413095Y-90781009D02*
X131317857Y-90828628D01*
X131317857Y-90828628D02*
X130936905Y-90828628D01*
X132365476Y-90638152D02*
X132365476Y-91304819D01*
X132127381Y-90257200D02*
X131889286Y-90971485D01*
X131889286Y-90971485D02*
X132508333Y-90971485D01*
X82231104Y-142398094D02*
X82231104Y-141921904D01*
X82516819Y-142493332D02*
X81516819Y-142159999D01*
X81516819Y-142159999D02*
X82516819Y-141826666D01*
X82516819Y-141493332D02*
X81516819Y-141493332D01*
X81516819Y-141493332D02*
X82516819Y-140921904D01*
X82516819Y-140921904D02*
X81516819Y-140921904D01*
X82516819Y-139921904D02*
X82516819Y-140493332D01*
X82516819Y-140207618D02*
X81516819Y-140207618D01*
X81516819Y-140207618D02*
X81659676Y-140302856D01*
X81659676Y-140302856D02*
X81754914Y-140398094D01*
X81754914Y-140398094D02*
X81802533Y-140493332D01*
X129783333Y-70784819D02*
X129450000Y-70308628D01*
X129211905Y-70784819D02*
X129211905Y-69784819D01*
X129211905Y-69784819D02*
X129592857Y-69784819D01*
X129592857Y-69784819D02*
X129688095Y-69832438D01*
X129688095Y-69832438D02*
X129735714Y-69880057D01*
X129735714Y-69880057D02*
X129783333Y-69975295D01*
X129783333Y-69975295D02*
X129783333Y-70118152D01*
X129783333Y-70118152D02*
X129735714Y-70213390D01*
X129735714Y-70213390D02*
X129688095Y-70261009D01*
X129688095Y-70261009D02*
X129592857Y-70308628D01*
X129592857Y-70308628D02*
X129211905Y-70308628D01*
X130211905Y-70784819D02*
X130211905Y-69784819D01*
X130211905Y-69784819D02*
X130592857Y-69784819D01*
X130592857Y-69784819D02*
X130688095Y-69832438D01*
X130688095Y-69832438D02*
X130735714Y-69880057D01*
X130735714Y-69880057D02*
X130783333Y-69975295D01*
X130783333Y-69975295D02*
X130783333Y-70118152D01*
X130783333Y-70118152D02*
X130735714Y-70213390D01*
X130735714Y-70213390D02*
X130688095Y-70261009D01*
X130688095Y-70261009D02*
X130592857Y-70308628D01*
X130592857Y-70308628D02*
X130211905Y-70308628D01*
X131735714Y-70784819D02*
X131164286Y-70784819D01*
X131450000Y-70784819D02*
X131450000Y-69784819D01*
X131450000Y-69784819D02*
X131354762Y-69927676D01*
X131354762Y-69927676D02*
X131259524Y-70022914D01*
X131259524Y-70022914D02*
X131164286Y-70070533D01*
X135804166Y-100751009D02*
X135470833Y-100751009D01*
X135470833Y-101274819D02*
X135470833Y-100274819D01*
X135470833Y-100274819D02*
X135947023Y-100274819D01*
X136756547Y-100608152D02*
X136756547Y-101274819D01*
X136518452Y-100227200D02*
X136280357Y-100941485D01*
X136280357Y-100941485D02*
X136899404Y-100941485D01*
X49361905Y-59279819D02*
X49361905Y-58279819D01*
X49361905Y-58279819D02*
X49742857Y-58279819D01*
X49742857Y-58279819D02*
X49838095Y-58327438D01*
X49838095Y-58327438D02*
X49885714Y-58375057D01*
X49885714Y-58375057D02*
X49933333Y-58470295D01*
X49933333Y-58470295D02*
X49933333Y-58613152D01*
X49933333Y-58613152D02*
X49885714Y-58708390D01*
X49885714Y-58708390D02*
X49838095Y-58756009D01*
X49838095Y-58756009D02*
X49742857Y-58803628D01*
X49742857Y-58803628D02*
X49361905Y-58803628D01*
X50885714Y-59279819D02*
X50314286Y-59279819D01*
X50600000Y-59279819D02*
X50600000Y-58279819D01*
X50600000Y-58279819D02*
X50504762Y-58422676D01*
X50504762Y-58422676D02*
X50409524Y-58517914D01*
X50409524Y-58517914D02*
X50314286Y-58565533D01*
X102564437Y-142398094D02*
X102564437Y-141921904D01*
X102850152Y-142493332D02*
X101850152Y-142159999D01*
X101850152Y-142159999D02*
X102850152Y-141826666D01*
X102850152Y-141493332D02*
X101850152Y-141493332D01*
X101850152Y-141493332D02*
X102850152Y-140921904D01*
X102850152Y-140921904D02*
X101850152Y-140921904D01*
X101850152Y-140540951D02*
X101850152Y-139921904D01*
X101850152Y-139921904D02*
X102231104Y-140255237D01*
X102231104Y-140255237D02*
X102231104Y-140112380D01*
X102231104Y-140112380D02*
X102278723Y-140017142D01*
X102278723Y-140017142D02*
X102326342Y-139969523D01*
X102326342Y-139969523D02*
X102421580Y-139921904D01*
X102421580Y-139921904D02*
X102659675Y-139921904D01*
X102659675Y-139921904D02*
X102754913Y-139969523D01*
X102754913Y-139969523D02*
X102802533Y-140017142D01*
X102802533Y-140017142D02*
X102850152Y-140112380D01*
X102850152Y-140112380D02*
X102850152Y-140398094D01*
X102850152Y-140398094D02*
X102802533Y-140493332D01*
X102802533Y-140493332D02*
X102754913Y-140540951D01*
X132822024Y-70784819D02*
X132822024Y-69784819D01*
X132822024Y-69784819D02*
X133202976Y-69784819D01*
X133202976Y-69784819D02*
X133298214Y-69832438D01*
X133298214Y-69832438D02*
X133345833Y-69880057D01*
X133345833Y-69880057D02*
X133393452Y-69975295D01*
X133393452Y-69975295D02*
X133393452Y-70118152D01*
X133393452Y-70118152D02*
X133345833Y-70213390D01*
X133345833Y-70213390D02*
X133298214Y-70261009D01*
X133298214Y-70261009D02*
X133202976Y-70308628D01*
X133202976Y-70308628D02*
X132822024Y-70308628D01*
X133726786Y-69784819D02*
X133964881Y-70784819D01*
X133964881Y-70784819D02*
X134155357Y-70070533D01*
X134155357Y-70070533D02*
X134345833Y-70784819D01*
X134345833Y-70784819D02*
X134583929Y-69784819D01*
X135536309Y-70784819D02*
X135202976Y-70308628D01*
X134964881Y-70784819D02*
X134964881Y-69784819D01*
X134964881Y-69784819D02*
X135345833Y-69784819D01*
X135345833Y-69784819D02*
X135441071Y-69832438D01*
X135441071Y-69832438D02*
X135488690Y-69880057D01*
X135488690Y-69880057D02*
X135536309Y-69975295D01*
X135536309Y-69975295D02*
X135536309Y-70118152D01*
X135536309Y-70118152D02*
X135488690Y-70213390D01*
X135488690Y-70213390D02*
X135441071Y-70261009D01*
X135441071Y-70261009D02*
X135345833Y-70308628D01*
X135345833Y-70308628D02*
X134964881Y-70308628D01*
X135964881Y-70403866D02*
X136726786Y-70403866D01*
X137202976Y-70784819D02*
X137202976Y-69784819D01*
X137679166Y-70784819D02*
X137679166Y-69784819D01*
X137679166Y-69784819D02*
X138250594Y-70784819D01*
X138250594Y-70784819D02*
X138250594Y-69784819D01*
X139250594Y-70784819D02*
X138679166Y-70784819D01*
X138964880Y-70784819D02*
X138964880Y-69784819D01*
X138964880Y-69784819D02*
X138869642Y-69927676D01*
X138869642Y-69927676D02*
X138774404Y-70022914D01*
X138774404Y-70022914D02*
X138679166Y-70070533D01*
X109244819Y-90495238D02*
X108768628Y-90828571D01*
X109244819Y-91066666D02*
X108244819Y-91066666D01*
X108244819Y-91066666D02*
X108244819Y-90685714D01*
X108244819Y-90685714D02*
X108292438Y-90590476D01*
X108292438Y-90590476D02*
X108340057Y-90542857D01*
X108340057Y-90542857D02*
X108435295Y-90495238D01*
X108435295Y-90495238D02*
X108578152Y-90495238D01*
X108578152Y-90495238D02*
X108673390Y-90542857D01*
X108673390Y-90542857D02*
X108721009Y-90590476D01*
X108721009Y-90590476D02*
X108768628Y-90685714D01*
X108768628Y-90685714D02*
X108768628Y-91066666D01*
X108959104Y-90114285D02*
X108959104Y-89638095D01*
X109244819Y-90209523D02*
X108244819Y-89876190D01*
X108244819Y-89876190D02*
X109244819Y-89542857D01*
X109244819Y-88685714D02*
X109244819Y-89257142D01*
X109244819Y-88971428D02*
X108244819Y-88971428D01*
X108244819Y-88971428D02*
X108387676Y-89066666D01*
X108387676Y-89066666D02*
X108482914Y-89161904D01*
X108482914Y-89161904D02*
X108530533Y-89257142D01*
X124549999Y-87624819D02*
X124216666Y-87148628D01*
X123978571Y-87624819D02*
X123978571Y-86624819D01*
X123978571Y-86624819D02*
X124359523Y-86624819D01*
X124359523Y-86624819D02*
X124454761Y-86672438D01*
X124454761Y-86672438D02*
X124502380Y-86720057D01*
X124502380Y-86720057D02*
X124549999Y-86815295D01*
X124549999Y-86815295D02*
X124549999Y-86958152D01*
X124549999Y-86958152D02*
X124502380Y-87053390D01*
X124502380Y-87053390D02*
X124454761Y-87101009D01*
X124454761Y-87101009D02*
X124359523Y-87148628D01*
X124359523Y-87148628D02*
X123978571Y-87148628D01*
X124978571Y-87624819D02*
X124978571Y-86624819D01*
X124978571Y-86624819D02*
X125359523Y-86624819D01*
X125359523Y-86624819D02*
X125454761Y-86672438D01*
X125454761Y-86672438D02*
X125502380Y-86720057D01*
X125502380Y-86720057D02*
X125549999Y-86815295D01*
X125549999Y-86815295D02*
X125549999Y-86958152D01*
X125549999Y-86958152D02*
X125502380Y-87053390D01*
X125502380Y-87053390D02*
X125454761Y-87101009D01*
X125454761Y-87101009D02*
X125359523Y-87148628D01*
X125359523Y-87148628D02*
X124978571Y-87148628D01*
X125883333Y-86958152D02*
X126073809Y-87624819D01*
X126073809Y-87624819D02*
X126264285Y-87148628D01*
X126264285Y-87148628D02*
X126454761Y-87624819D01*
X126454761Y-87624819D02*
X126645237Y-86958152D01*
X127026190Y-87624819D02*
X127026190Y-86958152D01*
X127026190Y-87148628D02*
X127073809Y-87053390D01*
X127073809Y-87053390D02*
X127121428Y-87005771D01*
X127121428Y-87005771D02*
X127216666Y-86958152D01*
X127216666Y-86958152D02*
X127311904Y-86958152D01*
X128169047Y-87624819D02*
X127597619Y-87624819D01*
X127883333Y-87624819D02*
X127883333Y-86624819D01*
X127883333Y-86624819D02*
X127788095Y-86767676D01*
X127788095Y-86767676D02*
X127692857Y-86862914D01*
X127692857Y-86862914D02*
X127597619Y-86910533D01*
X126454819Y-120999999D02*
X126454819Y-120809523D01*
X126454819Y-120809523D02*
X126502438Y-120714285D01*
X126502438Y-120714285D02*
X126597676Y-120619047D01*
X126597676Y-120619047D02*
X126788152Y-120571428D01*
X126788152Y-120571428D02*
X127121485Y-120571428D01*
X127121485Y-120571428D02*
X127311961Y-120619047D01*
X127311961Y-120619047D02*
X127407200Y-120714285D01*
X127407200Y-120714285D02*
X127454819Y-120809523D01*
X127454819Y-120809523D02*
X127454819Y-120999999D01*
X127454819Y-120999999D02*
X127407200Y-121095237D01*
X127407200Y-121095237D02*
X127311961Y-121190475D01*
X127311961Y-121190475D02*
X127121485Y-121238094D01*
X127121485Y-121238094D02*
X126788152Y-121238094D01*
X126788152Y-121238094D02*
X126597676Y-121190475D01*
X126597676Y-121190475D02*
X126502438Y-121095237D01*
X126502438Y-121095237D02*
X126454819Y-120999999D01*
X127454819Y-120142856D02*
X126454819Y-120142856D01*
X126454819Y-120142856D02*
X127454819Y-119571428D01*
X127454819Y-119571428D02*
X126454819Y-119571428D01*
X126407200Y-118380952D02*
X127692914Y-119238094D01*
X126454819Y-117857142D02*
X126454819Y-117666666D01*
X126454819Y-117666666D02*
X126502438Y-117571428D01*
X126502438Y-117571428D02*
X126597676Y-117476190D01*
X126597676Y-117476190D02*
X126788152Y-117428571D01*
X126788152Y-117428571D02*
X127121485Y-117428571D01*
X127121485Y-117428571D02*
X127311961Y-117476190D01*
X127311961Y-117476190D02*
X127407200Y-117571428D01*
X127407200Y-117571428D02*
X127454819Y-117666666D01*
X127454819Y-117666666D02*
X127454819Y-117857142D01*
X127454819Y-117857142D02*
X127407200Y-117952380D01*
X127407200Y-117952380D02*
X127311961Y-118047618D01*
X127311961Y-118047618D02*
X127121485Y-118095237D01*
X127121485Y-118095237D02*
X126788152Y-118095237D01*
X126788152Y-118095237D02*
X126597676Y-118047618D01*
X126597676Y-118047618D02*
X126502438Y-117952380D01*
X126502438Y-117952380D02*
X126454819Y-117857142D01*
X126931009Y-116666666D02*
X126931009Y-116999999D01*
X127454819Y-116999999D02*
X126454819Y-116999999D01*
X126454819Y-116999999D02*
X126454819Y-116523809D01*
X126931009Y-115809523D02*
X126931009Y-116142856D01*
X127454819Y-116142856D02*
X126454819Y-116142856D01*
X126454819Y-116142856D02*
X126454819Y-115666666D01*
X127454819Y-114761904D02*
X127454819Y-115333332D01*
X127454819Y-115047618D02*
X126454819Y-115047618D01*
X126454819Y-115047618D02*
X126597676Y-115142856D01*
X126597676Y-115142856D02*
X126692914Y-115238094D01*
X126692914Y-115238094D02*
X126740533Y-115333332D01*
X133407200Y-122142856D02*
X133454819Y-121999999D01*
X133454819Y-121999999D02*
X133454819Y-121761904D01*
X133454819Y-121761904D02*
X133407200Y-121666666D01*
X133407200Y-121666666D02*
X133359580Y-121619047D01*
X133359580Y-121619047D02*
X133264342Y-121571428D01*
X133264342Y-121571428D02*
X133169104Y-121571428D01*
X133169104Y-121571428D02*
X133073866Y-121619047D01*
X133073866Y-121619047D02*
X133026247Y-121666666D01*
X133026247Y-121666666D02*
X132978628Y-121761904D01*
X132978628Y-121761904D02*
X132931009Y-121952380D01*
X132931009Y-121952380D02*
X132883390Y-122047618D01*
X132883390Y-122047618D02*
X132835771Y-122095237D01*
X132835771Y-122095237D02*
X132740533Y-122142856D01*
X132740533Y-122142856D02*
X132645295Y-122142856D01*
X132645295Y-122142856D02*
X132550057Y-122095237D01*
X132550057Y-122095237D02*
X132502438Y-122047618D01*
X132502438Y-122047618D02*
X132454819Y-121952380D01*
X132454819Y-121952380D02*
X132454819Y-121714285D01*
X132454819Y-121714285D02*
X132502438Y-121571428D01*
X133169104Y-121190475D02*
X133169104Y-120714285D01*
X133454819Y-121285713D02*
X132454819Y-120952380D01*
X132454819Y-120952380D02*
X133454819Y-120619047D01*
X133454819Y-119809523D02*
X133454819Y-120285713D01*
X133454819Y-120285713D02*
X132454819Y-120285713D01*
X133454819Y-119476189D02*
X132454819Y-119476189D01*
X133454819Y-118999999D02*
X132454819Y-118999999D01*
X132454819Y-118999999D02*
X132454819Y-118761904D01*
X132454819Y-118761904D02*
X132502438Y-118619047D01*
X132502438Y-118619047D02*
X132597676Y-118523809D01*
X132597676Y-118523809D02*
X132692914Y-118476190D01*
X132692914Y-118476190D02*
X132883390Y-118428571D01*
X132883390Y-118428571D02*
X133026247Y-118428571D01*
X133026247Y-118428571D02*
X133216723Y-118476190D01*
X133216723Y-118476190D02*
X133311961Y-118523809D01*
X133311961Y-118523809D02*
X133407200Y-118619047D01*
X133407200Y-118619047D02*
X133454819Y-118761904D01*
X133454819Y-118761904D02*
X133454819Y-118999999D01*
X133169104Y-118047618D02*
X133169104Y-117571428D01*
X133454819Y-118142856D02*
X132454819Y-117809523D01*
X132454819Y-117809523D02*
X133454819Y-117476190D01*
X133454819Y-115857142D02*
X133454819Y-116428570D01*
X133454819Y-116142856D02*
X132454819Y-116142856D01*
X132454819Y-116142856D02*
X132597676Y-116238094D01*
X132597676Y-116238094D02*
X132692914Y-116333332D01*
X132692914Y-116333332D02*
X132740533Y-116428570D01*
X132407200Y-114714285D02*
X133692914Y-115571427D01*
X132454819Y-114190475D02*
X132454819Y-114095237D01*
X132454819Y-114095237D02*
X132502438Y-113999999D01*
X132502438Y-113999999D02*
X132550057Y-113952380D01*
X132550057Y-113952380D02*
X132645295Y-113904761D01*
X132645295Y-113904761D02*
X132835771Y-113857142D01*
X132835771Y-113857142D02*
X133073866Y-113857142D01*
X133073866Y-113857142D02*
X133264342Y-113904761D01*
X133264342Y-113904761D02*
X133359580Y-113952380D01*
X133359580Y-113952380D02*
X133407200Y-113999999D01*
X133407200Y-113999999D02*
X133454819Y-114095237D01*
X133454819Y-114095237D02*
X133454819Y-114190475D01*
X133454819Y-114190475D02*
X133407200Y-114285713D01*
X133407200Y-114285713D02*
X133359580Y-114333332D01*
X133359580Y-114333332D02*
X133264342Y-114380951D01*
X133264342Y-114380951D02*
X133073866Y-114428570D01*
X133073866Y-114428570D02*
X132835771Y-114428570D01*
X132835771Y-114428570D02*
X132645295Y-114380951D01*
X132645295Y-114380951D02*
X132550057Y-114333332D01*
X132550057Y-114333332D02*
X132502438Y-114285713D01*
X132502438Y-114285713D02*
X132454819Y-114190475D01*
X122666666Y-139931009D02*
X122333333Y-139931009D01*
X122333333Y-140454819D02*
X122333333Y-139454819D01*
X122333333Y-139454819D02*
X122809523Y-139454819D01*
X123714285Y-140454819D02*
X123142857Y-140454819D01*
X123428571Y-140454819D02*
X123428571Y-139454819D01*
X123428571Y-139454819D02*
X123333333Y-139597676D01*
X123333333Y-139597676D02*
X123238095Y-139692914D01*
X123238095Y-139692914D02*
X123142857Y-139740533D01*
X123642857Y-136431009D02*
X123309524Y-136431009D01*
X123309524Y-136954819D02*
X123309524Y-135954819D01*
X123309524Y-135954819D02*
X123785714Y-135954819D01*
X124166667Y-135954819D02*
X124166667Y-136764342D01*
X124166667Y-136764342D02*
X124214286Y-136859580D01*
X124214286Y-136859580D02*
X124261905Y-136907200D01*
X124261905Y-136907200D02*
X124357143Y-136954819D01*
X124357143Y-136954819D02*
X124547619Y-136954819D01*
X124547619Y-136954819D02*
X124642857Y-136907200D01*
X124642857Y-136907200D02*
X124690476Y-136859580D01*
X124690476Y-136859580D02*
X124738095Y-136764342D01*
X124738095Y-136764342D02*
X124738095Y-135954819D01*
X125166667Y-136907200D02*
X125309524Y-136954819D01*
X125309524Y-136954819D02*
X125547619Y-136954819D01*
X125547619Y-136954819D02*
X125642857Y-136907200D01*
X125642857Y-136907200D02*
X125690476Y-136859580D01*
X125690476Y-136859580D02*
X125738095Y-136764342D01*
X125738095Y-136764342D02*
X125738095Y-136669104D01*
X125738095Y-136669104D02*
X125690476Y-136573866D01*
X125690476Y-136573866D02*
X125642857Y-136526247D01*
X125642857Y-136526247D02*
X125547619Y-136478628D01*
X125547619Y-136478628D02*
X125357143Y-136431009D01*
X125357143Y-136431009D02*
X125261905Y-136383390D01*
X125261905Y-136383390D02*
X125214286Y-136335771D01*
X125214286Y-136335771D02*
X125166667Y-136240533D01*
X125166667Y-136240533D02*
X125166667Y-136145295D01*
X125166667Y-136145295D02*
X125214286Y-136050057D01*
X125214286Y-136050057D02*
X125261905Y-136002438D01*
X125261905Y-136002438D02*
X125357143Y-135954819D01*
X125357143Y-135954819D02*
X125595238Y-135954819D01*
X125595238Y-135954819D02*
X125738095Y-136002438D01*
X126166667Y-136573866D02*
X126928572Y-136573866D01*
X127357143Y-136907200D02*
X127500000Y-136954819D01*
X127500000Y-136954819D02*
X127738095Y-136954819D01*
X127738095Y-136954819D02*
X127833333Y-136907200D01*
X127833333Y-136907200D02*
X127880952Y-136859580D01*
X127880952Y-136859580D02*
X127928571Y-136764342D01*
X127928571Y-136764342D02*
X127928571Y-136669104D01*
X127928571Y-136669104D02*
X127880952Y-136573866D01*
X127880952Y-136573866D02*
X127833333Y-136526247D01*
X127833333Y-136526247D02*
X127738095Y-136478628D01*
X127738095Y-136478628D02*
X127547619Y-136431009D01*
X127547619Y-136431009D02*
X127452381Y-136383390D01*
X127452381Y-136383390D02*
X127404762Y-136335771D01*
X127404762Y-136335771D02*
X127357143Y-136240533D01*
X127357143Y-136240533D02*
X127357143Y-136145295D01*
X127357143Y-136145295D02*
X127404762Y-136050057D01*
X127404762Y-136050057D02*
X127452381Y-136002438D01*
X127452381Y-136002438D02*
X127547619Y-135954819D01*
X127547619Y-135954819D02*
X127785714Y-135954819D01*
X127785714Y-135954819D02*
X127928571Y-136002438D01*
X128357143Y-136431009D02*
X128690476Y-136431009D01*
X128833333Y-136954819D02*
X128357143Y-136954819D01*
X128357143Y-136954819D02*
X128357143Y-135954819D01*
X128357143Y-135954819D02*
X128833333Y-135954819D01*
X129261905Y-136954819D02*
X129261905Y-135954819D01*
X129261905Y-135954819D02*
X129833333Y-136954819D01*
X129833333Y-136954819D02*
X129833333Y-135954819D01*
X130261905Y-136907200D02*
X130404762Y-136954819D01*
X130404762Y-136954819D02*
X130642857Y-136954819D01*
X130642857Y-136954819D02*
X130738095Y-136907200D01*
X130738095Y-136907200D02*
X130785714Y-136859580D01*
X130785714Y-136859580D02*
X130833333Y-136764342D01*
X130833333Y-136764342D02*
X130833333Y-136669104D01*
X130833333Y-136669104D02*
X130785714Y-136573866D01*
X130785714Y-136573866D02*
X130738095Y-136526247D01*
X130738095Y-136526247D02*
X130642857Y-136478628D01*
X130642857Y-136478628D02*
X130452381Y-136431009D01*
X130452381Y-136431009D02*
X130357143Y-136383390D01*
X130357143Y-136383390D02*
X130309524Y-136335771D01*
X130309524Y-136335771D02*
X130261905Y-136240533D01*
X130261905Y-136240533D02*
X130261905Y-136145295D01*
X130261905Y-136145295D02*
X130309524Y-136050057D01*
X130309524Y-136050057D02*
X130357143Y-136002438D01*
X130357143Y-136002438D02*
X130452381Y-135954819D01*
X130452381Y-135954819D02*
X130690476Y-135954819D01*
X130690476Y-135954819D02*
X130833333Y-136002438D01*
X131452381Y-135954819D02*
X131642857Y-135954819D01*
X131642857Y-135954819D02*
X131738095Y-136002438D01*
X131738095Y-136002438D02*
X131833333Y-136097676D01*
X131833333Y-136097676D02*
X131880952Y-136288152D01*
X131880952Y-136288152D02*
X131880952Y-136621485D01*
X131880952Y-136621485D02*
X131833333Y-136811961D01*
X131833333Y-136811961D02*
X131738095Y-136907200D01*
X131738095Y-136907200D02*
X131642857Y-136954819D01*
X131642857Y-136954819D02*
X131452381Y-136954819D01*
X131452381Y-136954819D02*
X131357143Y-136907200D01*
X131357143Y-136907200D02*
X131261905Y-136811961D01*
X131261905Y-136811961D02*
X131214286Y-136621485D01*
X131214286Y-136621485D02*
X131214286Y-136288152D01*
X131214286Y-136288152D02*
X131261905Y-136097676D01*
X131261905Y-136097676D02*
X131357143Y-136002438D01*
X131357143Y-136002438D02*
X131452381Y-135954819D01*
X132880952Y-136954819D02*
X132547619Y-136478628D01*
X132309524Y-136954819D02*
X132309524Y-135954819D01*
X132309524Y-135954819D02*
X132690476Y-135954819D01*
X132690476Y-135954819D02*
X132785714Y-136002438D01*
X132785714Y-136002438D02*
X132833333Y-136050057D01*
X132833333Y-136050057D02*
X132880952Y-136145295D01*
X132880952Y-136145295D02*
X132880952Y-136288152D01*
X132880952Y-136288152D02*
X132833333Y-136383390D01*
X132833333Y-136383390D02*
X132785714Y-136431009D01*
X132785714Y-136431009D02*
X132690476Y-136478628D01*
X132690476Y-136478628D02*
X132309524Y-136478628D01*
X133309524Y-136431009D02*
X133642857Y-136431009D01*
X133785714Y-136954819D02*
X133309524Y-136954819D01*
X133309524Y-136954819D02*
X133309524Y-135954819D01*
X133309524Y-135954819D02*
X133785714Y-135954819D01*
X134166667Y-136907200D02*
X134309524Y-136954819D01*
X134309524Y-136954819D02*
X134547619Y-136954819D01*
X134547619Y-136954819D02*
X134642857Y-136907200D01*
X134642857Y-136907200D02*
X134690476Y-136859580D01*
X134690476Y-136859580D02*
X134738095Y-136764342D01*
X134738095Y-136764342D02*
X134738095Y-136669104D01*
X134738095Y-136669104D02*
X134690476Y-136573866D01*
X134690476Y-136573866D02*
X134642857Y-136526247D01*
X134642857Y-136526247D02*
X134547619Y-136478628D01*
X134547619Y-136478628D02*
X134357143Y-136431009D01*
X134357143Y-136431009D02*
X134261905Y-136383390D01*
X134261905Y-136383390D02*
X134214286Y-136335771D01*
X134214286Y-136335771D02*
X134166667Y-136240533D01*
X134166667Y-136240533D02*
X134166667Y-136145295D01*
X134166667Y-136145295D02*
X134214286Y-136050057D01*
X134214286Y-136050057D02*
X134261905Y-136002438D01*
X134261905Y-136002438D02*
X134357143Y-135954819D01*
X134357143Y-135954819D02*
X134595238Y-135954819D01*
X134595238Y-135954819D02*
X134738095Y-136002438D01*
X53571428Y-83051009D02*
X53714285Y-83098628D01*
X53714285Y-83098628D02*
X53761904Y-83146247D01*
X53761904Y-83146247D02*
X53809523Y-83241485D01*
X53809523Y-83241485D02*
X53809523Y-83384342D01*
X53809523Y-83384342D02*
X53761904Y-83479580D01*
X53761904Y-83479580D02*
X53714285Y-83527200D01*
X53714285Y-83527200D02*
X53619047Y-83574819D01*
X53619047Y-83574819D02*
X53238095Y-83574819D01*
X53238095Y-83574819D02*
X53238095Y-82574819D01*
X53238095Y-82574819D02*
X53571428Y-82574819D01*
X53571428Y-82574819D02*
X53666666Y-82622438D01*
X53666666Y-82622438D02*
X53714285Y-82670057D01*
X53714285Y-82670057D02*
X53761904Y-82765295D01*
X53761904Y-82765295D02*
X53761904Y-82860533D01*
X53761904Y-82860533D02*
X53714285Y-82955771D01*
X53714285Y-82955771D02*
X53666666Y-83003390D01*
X53666666Y-83003390D02*
X53571428Y-83051009D01*
X53571428Y-83051009D02*
X53238095Y-83051009D01*
X54380952Y-83574819D02*
X54285714Y-83527200D01*
X54285714Y-83527200D02*
X54238095Y-83479580D01*
X54238095Y-83479580D02*
X54190476Y-83384342D01*
X54190476Y-83384342D02*
X54190476Y-83098628D01*
X54190476Y-83098628D02*
X54238095Y-83003390D01*
X54238095Y-83003390D02*
X54285714Y-82955771D01*
X54285714Y-82955771D02*
X54380952Y-82908152D01*
X54380952Y-82908152D02*
X54523809Y-82908152D01*
X54523809Y-82908152D02*
X54619047Y-82955771D01*
X54619047Y-82955771D02*
X54666666Y-83003390D01*
X54666666Y-83003390D02*
X54714285Y-83098628D01*
X54714285Y-83098628D02*
X54714285Y-83384342D01*
X54714285Y-83384342D02*
X54666666Y-83479580D01*
X54666666Y-83479580D02*
X54619047Y-83527200D01*
X54619047Y-83527200D02*
X54523809Y-83574819D01*
X54523809Y-83574819D02*
X54380952Y-83574819D01*
X55142857Y-83574819D02*
X55142857Y-82908152D01*
X55142857Y-83003390D02*
X55190476Y-82955771D01*
X55190476Y-82955771D02*
X55285714Y-82908152D01*
X55285714Y-82908152D02*
X55428571Y-82908152D01*
X55428571Y-82908152D02*
X55523809Y-82955771D01*
X55523809Y-82955771D02*
X55571428Y-83051009D01*
X55571428Y-83051009D02*
X55571428Y-83574819D01*
X55571428Y-83051009D02*
X55619047Y-82955771D01*
X55619047Y-82955771D02*
X55714285Y-82908152D01*
X55714285Y-82908152D02*
X55857142Y-82908152D01*
X55857142Y-82908152D02*
X55952381Y-82955771D01*
X55952381Y-82955771D02*
X56000000Y-83051009D01*
X56000000Y-83051009D02*
X56000000Y-83574819D01*
X56476190Y-83574819D02*
X56476190Y-82574819D01*
X56476190Y-82955771D02*
X56571428Y-82908152D01*
X56571428Y-82908152D02*
X56761904Y-82908152D01*
X56761904Y-82908152D02*
X56857142Y-82955771D01*
X56857142Y-82955771D02*
X56904761Y-83003390D01*
X56904761Y-83003390D02*
X56952380Y-83098628D01*
X56952380Y-83098628D02*
X56952380Y-83384342D01*
X56952380Y-83384342D02*
X56904761Y-83479580D01*
X56904761Y-83479580D02*
X56857142Y-83527200D01*
X56857142Y-83527200D02*
X56761904Y-83574819D01*
X56761904Y-83574819D02*
X56571428Y-83574819D01*
X56571428Y-83574819D02*
X56476190Y-83527200D01*
X57809523Y-83574819D02*
X57809523Y-83051009D01*
X57809523Y-83051009D02*
X57761904Y-82955771D01*
X57761904Y-82955771D02*
X57666666Y-82908152D01*
X57666666Y-82908152D02*
X57476190Y-82908152D01*
X57476190Y-82908152D02*
X57380952Y-82955771D01*
X57809523Y-83527200D02*
X57714285Y-83574819D01*
X57714285Y-83574819D02*
X57476190Y-83574819D01*
X57476190Y-83574819D02*
X57380952Y-83527200D01*
X57380952Y-83527200D02*
X57333333Y-83431961D01*
X57333333Y-83431961D02*
X57333333Y-83336723D01*
X57333333Y-83336723D02*
X57380952Y-83241485D01*
X57380952Y-83241485D02*
X57476190Y-83193866D01*
X57476190Y-83193866D02*
X57714285Y-83193866D01*
X57714285Y-83193866D02*
X57809523Y-83146247D01*
X58809523Y-83574819D02*
X58238095Y-83574819D01*
X58523809Y-83574819D02*
X58523809Y-82574819D01*
X58523809Y-82574819D02*
X58428571Y-82717676D01*
X58428571Y-82717676D02*
X58333333Y-82812914D01*
X58333333Y-82812914D02*
X58238095Y-82860533D01*
X60854819Y-146974999D02*
X59854819Y-146974999D01*
X60854819Y-146498809D02*
X59854819Y-146498809D01*
X59854819Y-146498809D02*
X60854819Y-145927381D01*
X60854819Y-145927381D02*
X59854819Y-145927381D01*
X59854819Y-145546428D02*
X59854819Y-144927381D01*
X59854819Y-144927381D02*
X60235771Y-145260714D01*
X60235771Y-145260714D02*
X60235771Y-145117857D01*
X60235771Y-145117857D02*
X60283390Y-145022619D01*
X60283390Y-145022619D02*
X60331009Y-144975000D01*
X60331009Y-144975000D02*
X60426247Y-144927381D01*
X60426247Y-144927381D02*
X60664342Y-144927381D01*
X60664342Y-144927381D02*
X60759580Y-144975000D01*
X60759580Y-144975000D02*
X60807200Y-145022619D01*
X60807200Y-145022619D02*
X60854819Y-145117857D01*
X60854819Y-145117857D02*
X60854819Y-145403571D01*
X60854819Y-145403571D02*
X60807200Y-145498809D01*
X60807200Y-145498809D02*
X60759580Y-145546428D01*
X51547619Y-102402042D02*
X51738095Y-102402042D01*
X51738095Y-102402042D02*
X51833333Y-102449661D01*
X51833333Y-102449661D02*
X51928571Y-102544899D01*
X51928571Y-102544899D02*
X51976190Y-102735375D01*
X51976190Y-102735375D02*
X51976190Y-103068708D01*
X51976190Y-103068708D02*
X51928571Y-103259184D01*
X51928571Y-103259184D02*
X51833333Y-103354423D01*
X51833333Y-103354423D02*
X51738095Y-103402042D01*
X51738095Y-103402042D02*
X51547619Y-103402042D01*
X51547619Y-103402042D02*
X51452381Y-103354423D01*
X51452381Y-103354423D02*
X51357143Y-103259184D01*
X51357143Y-103259184D02*
X51309524Y-103068708D01*
X51309524Y-103068708D02*
X51309524Y-102735375D01*
X51309524Y-102735375D02*
X51357143Y-102544899D01*
X51357143Y-102544899D02*
X51452381Y-102449661D01*
X51452381Y-102449661D02*
X51547619Y-102402042D01*
X52404762Y-103402042D02*
X52404762Y-102402042D01*
X52404762Y-102402042D02*
X52785714Y-102402042D01*
X52785714Y-102402042D02*
X52880952Y-102449661D01*
X52880952Y-102449661D02*
X52928571Y-102497280D01*
X52928571Y-102497280D02*
X52976190Y-102592518D01*
X52976190Y-102592518D02*
X52976190Y-102735375D01*
X52976190Y-102735375D02*
X52928571Y-102830613D01*
X52928571Y-102830613D02*
X52880952Y-102878232D01*
X52880952Y-102878232D02*
X52785714Y-102925851D01*
X52785714Y-102925851D02*
X52404762Y-102925851D01*
X53261905Y-102402042D02*
X53833333Y-102402042D01*
X53547619Y-103402042D02*
X53547619Y-102402042D01*
X54690476Y-103402042D02*
X54119048Y-103402042D01*
X54404762Y-103402042D02*
X54404762Y-102402042D01*
X54404762Y-102402042D02*
X54309524Y-102544899D01*
X54309524Y-102544899D02*
X54214286Y-102640137D01*
X54214286Y-102640137D02*
X54119048Y-102687756D01*
X114904761Y-58794819D02*
X114571428Y-58318628D01*
X114333333Y-58794819D02*
X114333333Y-57794819D01*
X114333333Y-57794819D02*
X114714285Y-57794819D01*
X114714285Y-57794819D02*
X114809523Y-57842438D01*
X114809523Y-57842438D02*
X114857142Y-57890057D01*
X114857142Y-57890057D02*
X114904761Y-57985295D01*
X114904761Y-57985295D02*
X114904761Y-58128152D01*
X114904761Y-58128152D02*
X114857142Y-58223390D01*
X114857142Y-58223390D02*
X114809523Y-58271009D01*
X114809523Y-58271009D02*
X114714285Y-58318628D01*
X114714285Y-58318628D02*
X114333333Y-58318628D01*
X115285714Y-58509104D02*
X115761904Y-58509104D01*
X115190476Y-58794819D02*
X115523809Y-57794819D01*
X115523809Y-57794819D02*
X115857142Y-58794819D01*
X116095238Y-57794819D02*
X116714285Y-57794819D01*
X116714285Y-57794819D02*
X116380952Y-58175771D01*
X116380952Y-58175771D02*
X116523809Y-58175771D01*
X116523809Y-58175771D02*
X116619047Y-58223390D01*
X116619047Y-58223390D02*
X116666666Y-58271009D01*
X116666666Y-58271009D02*
X116714285Y-58366247D01*
X116714285Y-58366247D02*
X116714285Y-58604342D01*
X116714285Y-58604342D02*
X116666666Y-58699580D01*
X116666666Y-58699580D02*
X116619047Y-58747200D01*
X116619047Y-58747200D02*
X116523809Y-58794819D01*
X116523809Y-58794819D02*
X116238095Y-58794819D01*
X116238095Y-58794819D02*
X116142857Y-58747200D01*
X116142857Y-58747200D02*
X116095238Y-58699580D01*
X108459819Y-72011904D02*
X109269342Y-72011904D01*
X109269342Y-72011904D02*
X109364580Y-71964285D01*
X109364580Y-71964285D02*
X109412200Y-71916666D01*
X109412200Y-71916666D02*
X109459819Y-71821428D01*
X109459819Y-71821428D02*
X109459819Y-71630952D01*
X109459819Y-71630952D02*
X109412200Y-71535714D01*
X109412200Y-71535714D02*
X109364580Y-71488095D01*
X109364580Y-71488095D02*
X109269342Y-71440476D01*
X109269342Y-71440476D02*
X108459819Y-71440476D01*
X108555057Y-71011904D02*
X108507438Y-70964285D01*
X108507438Y-70964285D02*
X108459819Y-70869047D01*
X108459819Y-70869047D02*
X108459819Y-70630952D01*
X108459819Y-70630952D02*
X108507438Y-70535714D01*
X108507438Y-70535714D02*
X108555057Y-70488095D01*
X108555057Y-70488095D02*
X108650295Y-70440476D01*
X108650295Y-70440476D02*
X108745533Y-70440476D01*
X108745533Y-70440476D02*
X108888390Y-70488095D01*
X108888390Y-70488095D02*
X109459819Y-71059523D01*
X109459819Y-71059523D02*
X109459819Y-70440476D01*
X64888152Y-146974999D02*
X63888152Y-146974999D01*
X64888152Y-146498809D02*
X63888152Y-146498809D01*
X63888152Y-146498809D02*
X64888152Y-145927381D01*
X64888152Y-145927381D02*
X63888152Y-145927381D01*
X64221485Y-145022619D02*
X64888152Y-145022619D01*
X63840533Y-145260714D02*
X64554818Y-145498809D01*
X64554818Y-145498809D02*
X64554818Y-144879762D01*
X78928571Y-82954819D02*
X78928571Y-83764342D01*
X78928571Y-83764342D02*
X78976190Y-83859580D01*
X78976190Y-83859580D02*
X79023809Y-83907200D01*
X79023809Y-83907200D02*
X79119047Y-83954819D01*
X79119047Y-83954819D02*
X79309523Y-83954819D01*
X79309523Y-83954819D02*
X79404761Y-83907200D01*
X79404761Y-83907200D02*
X79452380Y-83859580D01*
X79452380Y-83859580D02*
X79499999Y-83764342D01*
X79499999Y-83764342D02*
X79499999Y-82954819D01*
X79928571Y-83669104D02*
X80404761Y-83669104D01*
X79833333Y-83954819D02*
X80166666Y-82954819D01*
X80166666Y-82954819D02*
X80499999Y-83954819D01*
X81404761Y-83954819D02*
X81071428Y-83478628D01*
X80833333Y-83954819D02*
X80833333Y-82954819D01*
X80833333Y-82954819D02*
X81214285Y-82954819D01*
X81214285Y-82954819D02*
X81309523Y-83002438D01*
X81309523Y-83002438D02*
X81357142Y-83050057D01*
X81357142Y-83050057D02*
X81404761Y-83145295D01*
X81404761Y-83145295D02*
X81404761Y-83288152D01*
X81404761Y-83288152D02*
X81357142Y-83383390D01*
X81357142Y-83383390D02*
X81309523Y-83431009D01*
X81309523Y-83431009D02*
X81214285Y-83478628D01*
X81214285Y-83478628D02*
X80833333Y-83478628D01*
X81690476Y-82954819D02*
X82261904Y-82954819D01*
X81976190Y-83954819D02*
X81976190Y-82954819D01*
X83119047Y-83954819D02*
X82547619Y-83954819D01*
X82833333Y-83954819D02*
X82833333Y-82954819D01*
X82833333Y-82954819D02*
X82738095Y-83097676D01*
X82738095Y-83097676D02*
X82642857Y-83192914D01*
X82642857Y-83192914D02*
X82547619Y-83240533D01*
X72857143Y-85073866D02*
X73619048Y-85073866D01*
X73238095Y-85454819D02*
X73238095Y-84692914D01*
X74571428Y-84454819D02*
X74095238Y-84454819D01*
X74095238Y-84454819D02*
X74047619Y-84931009D01*
X74047619Y-84931009D02*
X74095238Y-84883390D01*
X74095238Y-84883390D02*
X74190476Y-84835771D01*
X74190476Y-84835771D02*
X74428571Y-84835771D01*
X74428571Y-84835771D02*
X74523809Y-84883390D01*
X74523809Y-84883390D02*
X74571428Y-84931009D01*
X74571428Y-84931009D02*
X74619047Y-85026247D01*
X74619047Y-85026247D02*
X74619047Y-85264342D01*
X74619047Y-85264342D02*
X74571428Y-85359580D01*
X74571428Y-85359580D02*
X74523809Y-85407200D01*
X74523809Y-85407200D02*
X74428571Y-85454819D01*
X74428571Y-85454819D02*
X74190476Y-85454819D01*
X74190476Y-85454819D02*
X74095238Y-85407200D01*
X74095238Y-85407200D02*
X74047619Y-85359580D01*
X75047619Y-85073866D02*
X75809524Y-85073866D01*
X76142857Y-84454819D02*
X76714285Y-84454819D01*
X76428571Y-85454819D02*
X76428571Y-84454819D01*
X76952381Y-84454819D02*
X77619047Y-85454819D01*
X77619047Y-84454819D02*
X76952381Y-85454819D01*
X78000000Y-85073866D02*
X78761905Y-85073866D01*
X79809523Y-85454819D02*
X79476190Y-84978628D01*
X79238095Y-85454819D02*
X79238095Y-84454819D01*
X79238095Y-84454819D02*
X79619047Y-84454819D01*
X79619047Y-84454819D02*
X79714285Y-84502438D01*
X79714285Y-84502438D02*
X79761904Y-84550057D01*
X79761904Y-84550057D02*
X79809523Y-84645295D01*
X79809523Y-84645295D02*
X79809523Y-84788152D01*
X79809523Y-84788152D02*
X79761904Y-84883390D01*
X79761904Y-84883390D02*
X79714285Y-84931009D01*
X79714285Y-84931009D02*
X79619047Y-84978628D01*
X79619047Y-84978628D02*
X79238095Y-84978628D01*
X80142857Y-84454819D02*
X80809523Y-85454819D01*
X80809523Y-84454819D02*
X80142857Y-85454819D01*
X81190476Y-85073866D02*
X81952381Y-85073866D01*
X82428571Y-85454819D02*
X82428571Y-84454819D01*
X82428571Y-84454819D02*
X82999999Y-85454819D01*
X82999999Y-85454819D02*
X82999999Y-84454819D01*
X83428571Y-85169104D02*
X83904761Y-85169104D01*
X83333333Y-85454819D02*
X83666666Y-84454819D01*
X83666666Y-84454819D02*
X83999999Y-85454819D01*
X84333333Y-85073866D02*
X85095238Y-85073866D01*
X86095237Y-84502438D02*
X85999999Y-84454819D01*
X85999999Y-84454819D02*
X85857142Y-84454819D01*
X85857142Y-84454819D02*
X85714285Y-84502438D01*
X85714285Y-84502438D02*
X85619047Y-84597676D01*
X85619047Y-84597676D02*
X85571428Y-84692914D01*
X85571428Y-84692914D02*
X85523809Y-84883390D01*
X85523809Y-84883390D02*
X85523809Y-85026247D01*
X85523809Y-85026247D02*
X85571428Y-85216723D01*
X85571428Y-85216723D02*
X85619047Y-85311961D01*
X85619047Y-85311961D02*
X85714285Y-85407200D01*
X85714285Y-85407200D02*
X85857142Y-85454819D01*
X85857142Y-85454819D02*
X85952380Y-85454819D01*
X85952380Y-85454819D02*
X86095237Y-85407200D01*
X86095237Y-85407200D02*
X86142856Y-85359580D01*
X86142856Y-85359580D02*
X86142856Y-85026247D01*
X86142856Y-85026247D02*
X85952380Y-85026247D01*
X86571428Y-85454819D02*
X86571428Y-84454819D01*
X86571428Y-84454819D02*
X87142856Y-85454819D01*
X87142856Y-85454819D02*
X87142856Y-84454819D01*
X87619047Y-85454819D02*
X87619047Y-84454819D01*
X87619047Y-84454819D02*
X87857142Y-84454819D01*
X87857142Y-84454819D02*
X87999999Y-84502438D01*
X87999999Y-84502438D02*
X88095237Y-84597676D01*
X88095237Y-84597676D02*
X88142856Y-84692914D01*
X88142856Y-84692914D02*
X88190475Y-84883390D01*
X88190475Y-84883390D02*
X88190475Y-85026247D01*
X88190475Y-85026247D02*
X88142856Y-85216723D01*
X88142856Y-85216723D02*
X88095237Y-85311961D01*
X88095237Y-85311961D02*
X87999999Y-85407200D01*
X87999999Y-85407200D02*
X87857142Y-85454819D01*
X87857142Y-85454819D02*
X87619047Y-85454819D01*
X81785714Y-81154819D02*
X81452381Y-80678628D01*
X81214286Y-81154819D02*
X81214286Y-80154819D01*
X81214286Y-80154819D02*
X81595238Y-80154819D01*
X81595238Y-80154819D02*
X81690476Y-80202438D01*
X81690476Y-80202438D02*
X81738095Y-80250057D01*
X81738095Y-80250057D02*
X81785714Y-80345295D01*
X81785714Y-80345295D02*
X81785714Y-80488152D01*
X81785714Y-80488152D02*
X81738095Y-80583390D01*
X81738095Y-80583390D02*
X81690476Y-80631009D01*
X81690476Y-80631009D02*
X81595238Y-80678628D01*
X81595238Y-80678628D02*
X81214286Y-80678628D01*
X82214286Y-80631009D02*
X82547619Y-80631009D01*
X82690476Y-81154819D02*
X82214286Y-81154819D01*
X82214286Y-81154819D02*
X82214286Y-80154819D01*
X82214286Y-80154819D02*
X82690476Y-80154819D01*
X83595238Y-81154819D02*
X83119048Y-81154819D01*
X83119048Y-81154819D02*
X83119048Y-80154819D01*
X83880953Y-80869104D02*
X84357143Y-80869104D01*
X83785715Y-81154819D02*
X84119048Y-80154819D01*
X84119048Y-80154819D02*
X84452381Y-81154819D01*
X84976191Y-80678628D02*
X84976191Y-81154819D01*
X84642858Y-80154819D02*
X84976191Y-80678628D01*
X84976191Y-80678628D02*
X85309524Y-80154819D01*
X85547620Y-80154819D02*
X86166667Y-80154819D01*
X86166667Y-80154819D02*
X85833334Y-80535771D01*
X85833334Y-80535771D02*
X85976191Y-80535771D01*
X85976191Y-80535771D02*
X86071429Y-80583390D01*
X86071429Y-80583390D02*
X86119048Y-80631009D01*
X86119048Y-80631009D02*
X86166667Y-80726247D01*
X86166667Y-80726247D02*
X86166667Y-80964342D01*
X86166667Y-80964342D02*
X86119048Y-81059580D01*
X86119048Y-81059580D02*
X86071429Y-81107200D01*
X86071429Y-81107200D02*
X85976191Y-81154819D01*
X85976191Y-81154819D02*
X85690477Y-81154819D01*
X85690477Y-81154819D02*
X85595239Y-81107200D01*
X85595239Y-81107200D02*
X85547620Y-81059580D01*
X92397771Y-142398094D02*
X92397771Y-141921904D01*
X92683486Y-142493332D02*
X91683486Y-142159999D01*
X91683486Y-142159999D02*
X92683486Y-141826666D01*
X92683486Y-141493332D02*
X91683486Y-141493332D01*
X91683486Y-141493332D02*
X92683486Y-140921904D01*
X92683486Y-140921904D02*
X91683486Y-140921904D01*
X91778724Y-140493332D02*
X91731105Y-140445713D01*
X91731105Y-140445713D02*
X91683486Y-140350475D01*
X91683486Y-140350475D02*
X91683486Y-140112380D01*
X91683486Y-140112380D02*
X91731105Y-140017142D01*
X91731105Y-140017142D02*
X91778724Y-139969523D01*
X91778724Y-139969523D02*
X91873962Y-139921904D01*
X91873962Y-139921904D02*
X91969200Y-139921904D01*
X91969200Y-139921904D02*
X92112057Y-139969523D01*
X92112057Y-139969523D02*
X92683486Y-140540951D01*
X92683486Y-140540951D02*
X92683486Y-139921904D01*
X112731104Y-142398094D02*
X112731104Y-141921904D01*
X113016819Y-142493332D02*
X112016819Y-142159999D01*
X112016819Y-142159999D02*
X113016819Y-141826666D01*
X113016819Y-141493332D02*
X112016819Y-141493332D01*
X112016819Y-141493332D02*
X113016819Y-140921904D01*
X113016819Y-140921904D02*
X112016819Y-140921904D01*
X112350152Y-140017142D02*
X113016819Y-140017142D01*
X111969200Y-140255237D02*
X112683485Y-140493332D01*
X112683485Y-140493332D02*
X112683485Y-139874285D01*
X64952380Y-81154819D02*
X64619047Y-80678628D01*
X64380952Y-81154819D02*
X64380952Y-80154819D01*
X64380952Y-80154819D02*
X64761904Y-80154819D01*
X64761904Y-80154819D02*
X64857142Y-80202438D01*
X64857142Y-80202438D02*
X64904761Y-80250057D01*
X64904761Y-80250057D02*
X64952380Y-80345295D01*
X64952380Y-80345295D02*
X64952380Y-80488152D01*
X64952380Y-80488152D02*
X64904761Y-80583390D01*
X64904761Y-80583390D02*
X64857142Y-80631009D01*
X64857142Y-80631009D02*
X64761904Y-80678628D01*
X64761904Y-80678628D02*
X64380952Y-80678628D01*
X65380952Y-80631009D02*
X65714285Y-80631009D01*
X65857142Y-81154819D02*
X65380952Y-81154819D01*
X65380952Y-81154819D02*
X65380952Y-80154819D01*
X65380952Y-80154819D02*
X65857142Y-80154819D01*
X66761904Y-81154819D02*
X66285714Y-81154819D01*
X66285714Y-81154819D02*
X66285714Y-80154819D01*
X67047619Y-80869104D02*
X67523809Y-80869104D01*
X66952381Y-81154819D02*
X67285714Y-80154819D01*
X67285714Y-80154819D02*
X67619047Y-81154819D01*
X68142857Y-80678628D02*
X68142857Y-81154819D01*
X67809524Y-80154819D02*
X68142857Y-80678628D01*
X68142857Y-80678628D02*
X68476190Y-80154819D01*
X68761905Y-80250057D02*
X68809524Y-80202438D01*
X68809524Y-80202438D02*
X68904762Y-80154819D01*
X68904762Y-80154819D02*
X69142857Y-80154819D01*
X69142857Y-80154819D02*
X69238095Y-80202438D01*
X69238095Y-80202438D02*
X69285714Y-80250057D01*
X69285714Y-80250057D02*
X69333333Y-80345295D01*
X69333333Y-80345295D02*
X69333333Y-80440533D01*
X69333333Y-80440533D02*
X69285714Y-80583390D01*
X69285714Y-80583390D02*
X68714286Y-81154819D01*
X68714286Y-81154819D02*
X69333333Y-81154819D01*
D13*
%TO.C,U3*%
X75842000Y-111280000D02*
X75842000Y-126740000D01*
X75842000Y-111280000D02*
X88980908Y-111280000D01*
X75842000Y-126740000D02*
X88980908Y-126740000D01*
X88980908Y-111280000D02*
X88980908Y-126740000D01*
%TO.C,U1*%
X93782000Y-126040000D02*
X93782000Y-124660000D01*
X95162000Y-126040000D02*
X93782000Y-126040000D01*
X96432000Y-123280000D02*
X119402000Y-123280000D01*
X96432000Y-126040000D02*
X96432000Y-123280000D01*
X96432000Y-126040000D02*
X119402000Y-126040000D01*
X119402000Y-126040000D02*
X119402000Y-123280000D01*
%TO.C,OPT3*%
X56190000Y-118714074D02*
G75*
G02*
X54190000Y-118714074I-1000000J0D01*
G01*
X57840000Y-123914074D02*
X57840000Y-118714074D01*
X57840000Y-118714074D02*
X56190000Y-118714074D01*
X54190000Y-118714074D02*
X52540000Y-118714074D01*
X52540000Y-123914074D02*
X57840000Y-123914074D01*
X52540000Y-118714074D02*
X52540000Y-123914074D01*
%TO.C,J2*%
X129460000Y-92400000D02*
X129460000Y-97600000D01*
X81140000Y-97600000D02*
X129460000Y-97600000D01*
X81140000Y-95000000D02*
X81140000Y-97600000D01*
X78540000Y-97600000D02*
X79870000Y-97600000D01*
X78540000Y-96270000D02*
X78540000Y-97600000D01*
X78540000Y-95000000D02*
X81140000Y-95000000D01*
X78540000Y-92400000D02*
X129460000Y-92400000D01*
X78540000Y-92400000D02*
X78540000Y-95000000D01*
%TO.C,D1*%
X130970000Y-62030000D02*
X136410000Y-62030000D01*
X130970000Y-62160000D02*
X130970000Y-62030000D01*
X130970000Y-64840000D02*
X130970000Y-64970000D01*
X130970000Y-64970000D02*
X136410000Y-64970000D01*
X131750000Y-62030000D02*
X131750000Y-64970000D01*
X131870000Y-62030000D02*
X131870000Y-64970000D01*
X131990000Y-62030000D02*
X131990000Y-64970000D01*
X136410000Y-62030000D02*
X136410000Y-62160000D01*
X136410000Y-64970000D02*
X136410000Y-64840000D01*
%TO.C,CP2*%
X135813748Y-88090000D02*
X137236252Y-88090000D01*
X135813748Y-89910000D02*
X137236252Y-89910000D01*
%TO.C,CP1*%
X121840302Y-78685000D02*
X122640302Y-78685000D01*
X122240302Y-78285000D02*
X122240302Y-79085000D01*
X126250000Y-76920000D02*
X126250000Y-85080000D01*
X126290000Y-76920000D02*
X126290000Y-85080000D01*
X126330000Y-76921000D02*
X126330000Y-85079000D01*
X126370000Y-76922000D02*
X126370000Y-85078000D01*
X126410000Y-76923000D02*
X126410000Y-85077000D01*
X126450000Y-76925000D02*
X126450000Y-85075000D01*
X126490000Y-76927000D02*
X126490000Y-85073000D01*
X126530000Y-76930000D02*
X126530000Y-85070000D01*
X126570000Y-76932000D02*
X126570000Y-85068000D01*
X126610000Y-76936000D02*
X126610000Y-85064000D01*
X126650000Y-76939000D02*
X126650000Y-85061000D01*
X126690000Y-76944000D02*
X126690000Y-85056000D01*
X126730000Y-76948000D02*
X126730000Y-85052000D01*
X126770000Y-76953000D02*
X126770000Y-85047000D01*
X126810000Y-76958000D02*
X126810000Y-85042000D01*
X126850000Y-76964000D02*
X126850000Y-85036000D01*
X126890000Y-76970000D02*
X126890000Y-85030000D01*
X126930000Y-76977000D02*
X126930000Y-85023000D01*
X126970000Y-76983000D02*
X126970000Y-79960000D01*
X126970000Y-82040000D02*
X126970000Y-85017000D01*
X127010000Y-76991000D02*
X127010000Y-79960000D01*
X127010000Y-82040000D02*
X127010000Y-85009000D01*
X127050000Y-76998000D02*
X127050000Y-79960000D01*
X127050000Y-82040000D02*
X127050000Y-85002000D01*
X127090000Y-77007000D02*
X127090000Y-79960000D01*
X127090000Y-82040000D02*
X127090000Y-84993000D01*
X127130000Y-77015000D02*
X127130000Y-79960000D01*
X127130000Y-82040000D02*
X127130000Y-84985000D01*
X127170000Y-77024000D02*
X127170000Y-79960000D01*
X127170000Y-82040000D02*
X127170000Y-84976000D01*
X127210000Y-77033000D02*
X127210000Y-79960000D01*
X127210000Y-82040000D02*
X127210000Y-84967000D01*
X127250000Y-77043000D02*
X127250000Y-79960000D01*
X127250000Y-82040000D02*
X127250000Y-84957000D01*
X127290000Y-77053000D02*
X127290000Y-79960000D01*
X127290000Y-82040000D02*
X127290000Y-84947000D01*
X127330000Y-77064000D02*
X127330000Y-79960000D01*
X127330000Y-82040000D02*
X127330000Y-84936000D01*
X127370000Y-77075000D02*
X127370000Y-79960000D01*
X127370000Y-82040000D02*
X127370000Y-84925000D01*
X127410000Y-77087000D02*
X127410000Y-79960000D01*
X127410000Y-82040000D02*
X127410000Y-84913000D01*
X127450000Y-77099000D02*
X127450000Y-79960000D01*
X127450000Y-82040000D02*
X127450000Y-84901000D01*
X127490000Y-77111000D02*
X127490000Y-79960000D01*
X127490000Y-82040000D02*
X127490000Y-84889000D01*
X127530000Y-77124000D02*
X127530000Y-79960000D01*
X127530000Y-82040000D02*
X127530000Y-84876000D01*
X127570000Y-77137000D02*
X127570000Y-79960000D01*
X127570000Y-82040000D02*
X127570000Y-84863000D01*
X127610000Y-77151000D02*
X127610000Y-79960000D01*
X127610000Y-82040000D02*
X127610000Y-84849000D01*
X127650000Y-77165000D02*
X127650000Y-79960000D01*
X127650000Y-82040000D02*
X127650000Y-84835000D01*
X127690000Y-77180000D02*
X127690000Y-79960000D01*
X127690000Y-82040000D02*
X127690000Y-84820000D01*
X127730000Y-77195000D02*
X127730000Y-79960000D01*
X127730000Y-82040000D02*
X127730000Y-84805000D01*
X127770000Y-77211000D02*
X127770000Y-79960000D01*
X127770000Y-82040000D02*
X127770000Y-84789000D01*
X127810000Y-77227000D02*
X127810000Y-79960000D01*
X127810000Y-82040000D02*
X127810000Y-84773000D01*
X127850000Y-77243000D02*
X127850000Y-79960000D01*
X127850000Y-82040000D02*
X127850000Y-84757000D01*
X127890000Y-77260000D02*
X127890000Y-79960000D01*
X127890000Y-82040000D02*
X127890000Y-84740000D01*
X127930000Y-77278000D02*
X127930000Y-79960000D01*
X127930000Y-82040000D02*
X127930000Y-84722000D01*
X127970000Y-77296000D02*
X127970000Y-79960000D01*
X127970000Y-82040000D02*
X127970000Y-84704000D01*
X128010000Y-77315000D02*
X128010000Y-79960000D01*
X128010000Y-82040000D02*
X128010000Y-84685000D01*
X128050000Y-77334000D02*
X128050000Y-79960000D01*
X128050000Y-82040000D02*
X128050000Y-84666000D01*
X128090000Y-77354000D02*
X128090000Y-79960000D01*
X128090000Y-82040000D02*
X128090000Y-84646000D01*
X128130000Y-77374000D02*
X128130000Y-79960000D01*
X128130000Y-82040000D02*
X128130000Y-84626000D01*
X128170000Y-77395000D02*
X128170000Y-79960000D01*
X128170000Y-82040000D02*
X128170000Y-84605000D01*
X128210000Y-77416000D02*
X128210000Y-79960000D01*
X128210000Y-82040000D02*
X128210000Y-84584000D01*
X128250000Y-77438000D02*
X128250000Y-79960000D01*
X128250000Y-82040000D02*
X128250000Y-84562000D01*
X128290000Y-77461000D02*
X128290000Y-79960000D01*
X128290000Y-82040000D02*
X128290000Y-84539000D01*
X128330000Y-77484000D02*
X128330000Y-79960000D01*
X128330000Y-82040000D02*
X128330000Y-84516000D01*
X128370000Y-77507000D02*
X128370000Y-79960000D01*
X128370000Y-82040000D02*
X128370000Y-84493000D01*
X128410000Y-77532000D02*
X128410000Y-79960000D01*
X128410000Y-82040000D02*
X128410000Y-84468000D01*
X128450000Y-77557000D02*
X128450000Y-79960000D01*
X128450000Y-82040000D02*
X128450000Y-84443000D01*
X128490000Y-77582000D02*
X128490000Y-79960000D01*
X128490000Y-82040000D02*
X128490000Y-84418000D01*
X128530000Y-77608000D02*
X128530000Y-79960000D01*
X128530000Y-82040000D02*
X128530000Y-84392000D01*
X128570000Y-77635000D02*
X128570000Y-79960000D01*
X128570000Y-82040000D02*
X128570000Y-84365000D01*
X128610000Y-77663000D02*
X128610000Y-79960000D01*
X128610000Y-82040000D02*
X128610000Y-84337000D01*
X128650000Y-77691000D02*
X128650000Y-79960000D01*
X128650000Y-82040000D02*
X128650000Y-84309000D01*
X128690000Y-77720000D02*
X128690000Y-79960000D01*
X128690000Y-82040000D02*
X128690000Y-84280000D01*
X128730000Y-77750000D02*
X128730000Y-79960000D01*
X128730000Y-82040000D02*
X128730000Y-84250000D01*
X128770000Y-77781000D02*
X128770000Y-79960000D01*
X128770000Y-82040000D02*
X128770000Y-84219000D01*
X128810000Y-77812000D02*
X128810000Y-79960000D01*
X128810000Y-82040000D02*
X128810000Y-84188000D01*
X128850000Y-77844000D02*
X128850000Y-79960000D01*
X128850000Y-82040000D02*
X128850000Y-84156000D01*
X128890000Y-77877000D02*
X128890000Y-79960000D01*
X128890000Y-82040000D02*
X128890000Y-84123000D01*
X128930000Y-77911000D02*
X128930000Y-79960000D01*
X128930000Y-82040000D02*
X128930000Y-84089000D01*
X128970000Y-77945000D02*
X128970000Y-79960000D01*
X128970000Y-82040000D02*
X128970000Y-84055000D01*
X129010000Y-77981000D02*
X129010000Y-79960000D01*
X129010000Y-82040000D02*
X129010000Y-84019000D01*
X129050000Y-78018000D02*
X129050000Y-83982000D01*
X129090000Y-78055000D02*
X129090000Y-83945000D01*
X129130000Y-78094000D02*
X129130000Y-83906000D01*
X129170000Y-78133000D02*
X129170000Y-83867000D01*
X129210000Y-78174000D02*
X129210000Y-83826000D01*
X129250000Y-78216000D02*
X129250000Y-83784000D01*
X129290000Y-78259000D02*
X129290000Y-83741000D01*
X129330000Y-78304000D02*
X129330000Y-83696000D01*
X129370000Y-78349000D02*
X129370000Y-83651000D01*
X129410000Y-78396000D02*
X129410000Y-83604000D01*
X129450000Y-78445000D02*
X129450000Y-83555000D01*
X129490000Y-78495000D02*
X129490000Y-83505000D01*
X129530000Y-78547000D02*
X129530000Y-83453000D01*
X129570000Y-78600000D02*
X129570000Y-83400000D01*
X129610000Y-78656000D02*
X129610000Y-83344000D01*
X129650000Y-78713000D02*
X129650000Y-83287000D01*
X129690000Y-78773000D02*
X129690000Y-83227000D01*
X129730000Y-78835000D02*
X129730000Y-83165000D01*
X129770000Y-78899000D02*
X129770000Y-83101000D01*
X129810000Y-78966000D02*
X129810000Y-83034000D01*
X129850000Y-79036000D02*
X129850000Y-82964000D01*
X129890000Y-79110000D02*
X129890000Y-82890000D01*
X129930000Y-79187000D02*
X129930000Y-82813000D01*
X129970000Y-79269000D02*
X129970000Y-82731000D01*
X130010000Y-79356000D02*
X130010000Y-82644000D01*
X130050000Y-79448000D02*
X130050000Y-82552000D01*
X130090000Y-79547000D02*
X130090000Y-82453000D01*
X130130000Y-79654000D02*
X130130000Y-82346000D01*
X130170000Y-79772000D02*
X130170000Y-82228000D01*
X130210000Y-79903000D02*
X130210000Y-82097000D01*
X130250000Y-80053000D02*
X130250000Y-81947000D01*
X130290000Y-80232000D02*
X130290000Y-81768000D01*
X130330000Y-80467000D02*
X130330000Y-81533000D01*
X130370000Y-81000000D02*
G75*
G02*
X122130000Y-81000000I-4120000J0D01*
G01*
X122130000Y-81000000D02*
G75*
G02*
X130370000Y-81000000I4120000J0D01*
G01*
%TO.C,J1*%
X88695000Y-108695000D02*
X88695000Y-103395000D01*
X86045000Y-108695000D02*
X88695000Y-108695000D01*
X86045000Y-108695000D02*
X86045000Y-106045000D01*
X86045000Y-106045000D02*
X83395000Y-106045000D01*
X84775000Y-108695000D02*
X83395000Y-108695000D01*
X83395000Y-108695000D02*
X83395000Y-107315000D01*
X83395000Y-106045000D02*
X83395000Y-103395000D01*
X83395000Y-103395000D02*
X88695000Y-103395000D01*
%TO.C,RP2*%
X128244936Y-103250000D02*
X129699064Y-103250000D01*
X128244936Y-105070000D02*
X129699064Y-105070000D01*
%TO.C,OPT4*%
X52540000Y-125670000D02*
X52540000Y-130870000D01*
X52540000Y-130870000D02*
X57840000Y-130870000D01*
X54190000Y-125670000D02*
X52540000Y-125670000D01*
X57840000Y-125670000D02*
X56190000Y-125670000D01*
X57840000Y-130870000D02*
X57840000Y-125670000D01*
X56190000Y-125670000D02*
G75*
G02*
X54190000Y-125670000I-1000000J0D01*
G01*
%TO.C,PWR-OP1*%
X127434500Y-109295000D02*
X131494500Y-109295000D01*
X131494500Y-107025000D02*
X127434500Y-107025000D01*
X131494500Y-109295000D02*
X131494500Y-107025000D01*
%TO.C,CH3*%
X118365000Y-52887500D02*
X118365000Y-56947500D01*
X118365000Y-56947500D02*
X120635000Y-56947500D01*
X120635000Y-56947500D02*
X120635000Y-52887500D01*
%TO.C,P3*%
X75880000Y-49607500D02*
X88200000Y-49607500D01*
X75880000Y-59647500D02*
X75880000Y-49607500D01*
X88800000Y-49607500D02*
X91120000Y-49607500D01*
X91120000Y-49607500D02*
X91120000Y-59647500D01*
X91120000Y-50227500D02*
X75880000Y-50227500D01*
X91120000Y-51727500D02*
X75880000Y-51727500D01*
X91120000Y-56627500D02*
X75880000Y-56627500D01*
X91120000Y-59647500D02*
X75880000Y-59647500D01*
X88500000Y-49607500D02*
X88060000Y-48997500D01*
X88940000Y-48997500D01*
X88500000Y-49607500D01*
G36*
X88500000Y-49607500D02*
G01*
X88060000Y-48997500D01*
X88940000Y-48997500D01*
X88500000Y-49607500D01*
G37*
%TO.C,OPT2*%
X52540000Y-111758149D02*
X52540000Y-116958149D01*
X52540000Y-116958149D02*
X57840000Y-116958149D01*
X54190000Y-111758149D02*
X52540000Y-111758149D01*
X57840000Y-111758149D02*
X56190000Y-111758149D01*
X57840000Y-116958149D02*
X57840000Y-111758149D01*
X56190000Y-111758149D02*
G75*
G02*
X54190000Y-111758149I-1000000J0D01*
G01*
%TO.C,PP1*%
X128880000Y-50180000D02*
X139120000Y-50180000D01*
X128880000Y-53200000D02*
X139120000Y-53200000D01*
X128880000Y-58100000D02*
X139120000Y-58100000D01*
X128880000Y-59600000D02*
X139120000Y-59600000D01*
X128880000Y-60220000D02*
X128880000Y-50180000D01*
X131200000Y-60220000D02*
X128880000Y-60220000D01*
X139120000Y-50180000D02*
X139120000Y-60220000D01*
X139120000Y-60220000D02*
X131800000Y-60220000D01*
X131940000Y-60830000D02*
X131060000Y-60830000D01*
X131500000Y-60220000D01*
X131940000Y-60830000D01*
G36*
X131940000Y-60830000D02*
G01*
X131060000Y-60830000D01*
X131500000Y-60220000D01*
X131940000Y-60830000D01*
G37*
%TO.C,RA4*%
X123050000Y-59170000D02*
X120950000Y-59170000D01*
X123050000Y-64510000D02*
X120950000Y-64510000D01*
%TO.C,RA2*%
X113930000Y-86950000D02*
X113930000Y-84850000D01*
X119270000Y-86950000D02*
X119270000Y-84850000D01*
%TO.C,P2*%
X58380000Y-49607500D02*
X70700000Y-49607500D01*
X58380000Y-59647500D02*
X58380000Y-49607500D01*
X71300000Y-49607500D02*
X73620000Y-49607500D01*
X73620000Y-49607500D02*
X73620000Y-59647500D01*
X73620000Y-50227500D02*
X58380000Y-50227500D01*
X73620000Y-51727500D02*
X58380000Y-51727500D01*
X73620000Y-56627500D02*
X58380000Y-56627500D01*
X73620000Y-59647500D02*
X58380000Y-59647500D01*
X71000000Y-49607500D02*
X70560000Y-48997500D01*
X71440000Y-48997500D01*
X71000000Y-49607500D01*
G36*
X71000000Y-49607500D02*
G01*
X70560000Y-48997500D01*
X71440000Y-48997500D01*
X71000000Y-49607500D01*
G37*
%TO.C,RN2-1*%
X51490000Y-133450000D02*
X51490000Y-135550000D01*
X56830000Y-133450000D02*
X56830000Y-135550000D01*
%TO.C,PWM1*%
X128642000Y-127280000D02*
X130022000Y-127280000D01*
X128642000Y-128660000D02*
X128642000Y-127280000D01*
X128642000Y-129930000D02*
X128642000Y-135120000D01*
X128642000Y-129930000D02*
X131402000Y-129930000D01*
X128642000Y-135120000D02*
X131402000Y-135120000D01*
X131402000Y-129930000D02*
X131402000Y-135120000D01*
%TO.C,CH2*%
X114865000Y-52887500D02*
X114865000Y-56947500D01*
X114865000Y-56947500D02*
X117135000Y-56947500D01*
X117135000Y-56947500D02*
X117135000Y-52887500D01*
%TO.C,CH1*%
X111365000Y-52887500D02*
X111365000Y-56947500D01*
X111365000Y-56947500D02*
X113635000Y-56947500D01*
X113635000Y-56947500D02*
X113635000Y-52887500D01*
%TO.C,J3*%
X42335000Y-138940000D02*
X42335000Y-82950000D01*
X48905000Y-82950000D02*
X42335000Y-82950000D01*
X48905000Y-138940000D02*
X42335000Y-138940000D01*
X48905000Y-138940000D02*
X48905000Y-82950000D01*
X48905000Y-141480000D02*
X48905000Y-144130000D01*
X48905000Y-144130000D02*
X45620000Y-144130000D01*
%TO.C,RELAY1*%
X42290000Y-60790000D02*
X57710000Y-60790000D01*
X42290000Y-79810000D02*
X42290000Y-60790000D01*
X42290000Y-79810000D02*
X48800000Y-79810000D01*
X44000000Y-72500000D02*
X44000000Y-74800000D01*
X44000000Y-72500000D02*
X48500000Y-72500000D01*
X45700000Y-64300000D02*
X48000000Y-64300000D01*
X48500000Y-70000000D02*
X51500000Y-70000000D01*
X48500000Y-75000000D02*
X48500000Y-70000000D01*
X50000000Y-67500000D02*
X47300000Y-63000000D01*
X50000000Y-69000000D02*
X50000000Y-67500000D01*
X50000000Y-69000000D02*
X53700000Y-69000000D01*
X50000000Y-75900000D02*
X50000000Y-76800000D01*
X50000000Y-75900000D02*
X53700000Y-75900000D01*
X51200000Y-79810000D02*
X57710000Y-79810000D01*
X51500000Y-70000000D02*
X48500000Y-75000000D01*
X51500000Y-70000000D02*
X51500000Y-75000000D01*
X51500000Y-72500000D02*
X56000000Y-72500000D01*
X51500000Y-75000000D02*
X48500000Y-75000000D01*
X53700000Y-69000000D02*
X53700000Y-75900000D01*
X54300000Y-64300000D02*
X52000000Y-64300000D01*
X56000000Y-74800000D02*
X56000000Y-72500000D01*
X57710000Y-60800000D02*
X57710000Y-79810000D01*
X57950000Y-77650000D02*
X57950000Y-75350000D01*
%TO.C,P4*%
X92885000Y-49607500D02*
X105205000Y-49607500D01*
X92885000Y-59647500D02*
X92885000Y-49607500D01*
X105805000Y-49607500D02*
X108125000Y-49607500D01*
X108125000Y-49607500D02*
X108125000Y-59647500D01*
X108125000Y-50227500D02*
X92885000Y-50227500D01*
X108125000Y-51727500D02*
X92885000Y-51727500D01*
X108125000Y-56627500D02*
X92885000Y-56627500D01*
X108125000Y-59647500D02*
X92885000Y-59647500D01*
X105505000Y-49607500D02*
X105065000Y-48997500D01*
X105945000Y-48997500D01*
X105505000Y-49607500D01*
G36*
X105505000Y-49607500D02*
G01*
X105065000Y-48997500D01*
X105945000Y-48997500D01*
X105505000Y-49607500D01*
G37*
%TO.C,RN1-1*%
X64450000Y-83670000D02*
X66550000Y-83670000D01*
X64450000Y-89010000D02*
X66550000Y-89010000D01*
%TO.C,IN2*%
X55065000Y-140362500D02*
X55065000Y-144422500D01*
X55065000Y-144422500D02*
X57335000Y-144422500D01*
X57335000Y-144422500D02*
X57335000Y-140362500D01*
%TO.C,CH5*%
X125365000Y-52887500D02*
X125365000Y-56947500D01*
X125365000Y-56947500D02*
X127635000Y-56947500D01*
X127635000Y-56947500D02*
X127635000Y-52887500D01*
%TO.C,CH4*%
X121865000Y-52887500D02*
X121865000Y-56947500D01*
X121865000Y-56947500D02*
X124135000Y-56947500D01*
X124135000Y-56947500D02*
X124135000Y-52887500D01*
%TO.C,RELAY4*%
X92790000Y-60790000D02*
X108210000Y-60790000D01*
X92790000Y-79810000D02*
X92790000Y-60790000D01*
X92790000Y-79810000D02*
X99300000Y-79810000D01*
X94500000Y-72500000D02*
X94500000Y-74800000D01*
X94500000Y-72500000D02*
X99000000Y-72500000D01*
X96200000Y-64300000D02*
X98500000Y-64300000D01*
X99000000Y-70000000D02*
X102000000Y-70000000D01*
X99000000Y-75000000D02*
X99000000Y-70000000D01*
X100500000Y-67500000D02*
X97800000Y-63000000D01*
X100500000Y-69000000D02*
X100500000Y-67500000D01*
X100500000Y-69000000D02*
X104200000Y-69000000D01*
X100500000Y-75900000D02*
X100500000Y-76800000D01*
X100500000Y-75900000D02*
X104200000Y-75900000D01*
X101700000Y-79810000D02*
X108210000Y-79810000D01*
X102000000Y-70000000D02*
X99000000Y-75000000D01*
X102000000Y-70000000D02*
X102000000Y-75000000D01*
X102000000Y-72500000D02*
X106500000Y-72500000D01*
X102000000Y-75000000D02*
X99000000Y-75000000D01*
X104200000Y-69000000D02*
X104200000Y-75900000D01*
X104800000Y-64300000D02*
X102500000Y-64300000D01*
X106500000Y-74800000D02*
X106500000Y-72500000D01*
X108210000Y-60800000D02*
X108210000Y-79810000D01*
X108450000Y-77650000D02*
X108450000Y-75350000D01*
%TO.C,F3*%
X135397936Y-72090000D02*
X136602064Y-72090000D01*
X135397936Y-73910000D02*
X136602064Y-73910000D01*
%TO.C,J4*%
X101412000Y-104270000D02*
X101412000Y-103160000D01*
X102522000Y-104270000D02*
X101412000Y-104270000D01*
X103522000Y-102050000D02*
X111632000Y-102050000D01*
X103522000Y-104270000D02*
X103522000Y-102050000D01*
X103522000Y-104270000D02*
X111632000Y-104270000D01*
X111632000Y-104270000D02*
X111632000Y-102050000D01*
%TO.C,IN1*%
X50865000Y-140362500D02*
X50865000Y-144422500D01*
X50865000Y-144422500D02*
X53135000Y-144422500D01*
X53135000Y-144422500D02*
X53135000Y-140362500D01*
%TO.C,CP3*%
X130840302Y-78685000D02*
X131640302Y-78685000D01*
X131240302Y-78285000D02*
X131240302Y-79085000D01*
X135250000Y-76920000D02*
X135250000Y-85080000D01*
X135290000Y-76920000D02*
X135290000Y-85080000D01*
X135330000Y-76921000D02*
X135330000Y-85079000D01*
X135370000Y-76922000D02*
X135370000Y-85078000D01*
X135410000Y-76923000D02*
X135410000Y-85077000D01*
X135450000Y-76925000D02*
X135450000Y-85075000D01*
X135490000Y-76927000D02*
X135490000Y-85073000D01*
X135530000Y-76930000D02*
X135530000Y-85070000D01*
X135570000Y-76932000D02*
X135570000Y-85068000D01*
X135610000Y-76936000D02*
X135610000Y-85064000D01*
X135650000Y-76939000D02*
X135650000Y-85061000D01*
X135690000Y-76944000D02*
X135690000Y-85056000D01*
X135730000Y-76948000D02*
X135730000Y-85052000D01*
X135770000Y-76953000D02*
X135770000Y-85047000D01*
X135810000Y-76958000D02*
X135810000Y-85042000D01*
X135850000Y-76964000D02*
X135850000Y-85036000D01*
X135890000Y-76970000D02*
X135890000Y-85030000D01*
X135930000Y-76977000D02*
X135930000Y-85023000D01*
X135970000Y-76983000D02*
X135970000Y-79960000D01*
X135970000Y-82040000D02*
X135970000Y-85017000D01*
X136010000Y-76991000D02*
X136010000Y-79960000D01*
X136010000Y-82040000D02*
X136010000Y-85009000D01*
X136050000Y-76998000D02*
X136050000Y-79960000D01*
X136050000Y-82040000D02*
X136050000Y-85002000D01*
X136090000Y-77007000D02*
X136090000Y-79960000D01*
X136090000Y-82040000D02*
X136090000Y-84993000D01*
X136130000Y-77015000D02*
X136130000Y-79960000D01*
X136130000Y-82040000D02*
X136130000Y-84985000D01*
X136170000Y-77024000D02*
X136170000Y-79960000D01*
X136170000Y-82040000D02*
X136170000Y-84976000D01*
X136210000Y-77033000D02*
X136210000Y-79960000D01*
X136210000Y-82040000D02*
X136210000Y-84967000D01*
X136250000Y-77043000D02*
X136250000Y-79960000D01*
X136250000Y-82040000D02*
X136250000Y-84957000D01*
X136290000Y-77053000D02*
X136290000Y-79960000D01*
X136290000Y-82040000D02*
X136290000Y-84947000D01*
X136330000Y-77064000D02*
X136330000Y-79960000D01*
X136330000Y-82040000D02*
X136330000Y-84936000D01*
X136370000Y-77075000D02*
X136370000Y-79960000D01*
X136370000Y-82040000D02*
X136370000Y-84925000D01*
X136410000Y-77087000D02*
X136410000Y-79960000D01*
X136410000Y-82040000D02*
X136410000Y-84913000D01*
X136450000Y-77099000D02*
X136450000Y-79960000D01*
X136450000Y-82040000D02*
X136450000Y-84901000D01*
X136490000Y-77111000D02*
X136490000Y-79960000D01*
X136490000Y-82040000D02*
X136490000Y-84889000D01*
X136530000Y-77124000D02*
X136530000Y-79960000D01*
X136530000Y-82040000D02*
X136530000Y-84876000D01*
X136570000Y-77137000D02*
X136570000Y-79960000D01*
X136570000Y-82040000D02*
X136570000Y-84863000D01*
X136610000Y-77151000D02*
X136610000Y-79960000D01*
X136610000Y-82040000D02*
X136610000Y-84849000D01*
X136650000Y-77165000D02*
X136650000Y-79960000D01*
X136650000Y-82040000D02*
X136650000Y-84835000D01*
X136690000Y-77180000D02*
X136690000Y-79960000D01*
X136690000Y-82040000D02*
X136690000Y-84820000D01*
X136730000Y-77195000D02*
X136730000Y-79960000D01*
X136730000Y-82040000D02*
X136730000Y-84805000D01*
X136770000Y-77211000D02*
X136770000Y-79960000D01*
X136770000Y-82040000D02*
X136770000Y-84789000D01*
X136810000Y-77227000D02*
X136810000Y-79960000D01*
X136810000Y-82040000D02*
X136810000Y-84773000D01*
X136850000Y-77243000D02*
X136850000Y-79960000D01*
X136850000Y-82040000D02*
X136850000Y-84757000D01*
X136890000Y-77260000D02*
X136890000Y-79960000D01*
X136890000Y-82040000D02*
X136890000Y-84740000D01*
X136930000Y-77278000D02*
X136930000Y-79960000D01*
X136930000Y-82040000D02*
X136930000Y-84722000D01*
X136970000Y-77296000D02*
X136970000Y-79960000D01*
X136970000Y-82040000D02*
X136970000Y-84704000D01*
X137010000Y-77315000D02*
X137010000Y-79960000D01*
X137010000Y-82040000D02*
X137010000Y-84685000D01*
X137050000Y-77334000D02*
X137050000Y-79960000D01*
X137050000Y-82040000D02*
X137050000Y-84666000D01*
X137090000Y-77354000D02*
X137090000Y-79960000D01*
X137090000Y-82040000D02*
X137090000Y-84646000D01*
X137130000Y-77374000D02*
X137130000Y-79960000D01*
X137130000Y-82040000D02*
X137130000Y-84626000D01*
X137170000Y-77395000D02*
X137170000Y-79960000D01*
X137170000Y-82040000D02*
X137170000Y-84605000D01*
X137210000Y-77416000D02*
X137210000Y-79960000D01*
X137210000Y-82040000D02*
X137210000Y-84584000D01*
X137250000Y-77438000D02*
X137250000Y-79960000D01*
X137250000Y-82040000D02*
X137250000Y-84562000D01*
X137290000Y-77461000D02*
X137290000Y-79960000D01*
X137290000Y-82040000D02*
X137290000Y-84539000D01*
X137330000Y-77484000D02*
X137330000Y-79960000D01*
X137330000Y-82040000D02*
X137330000Y-84516000D01*
X137370000Y-77507000D02*
X137370000Y-79960000D01*
X137370000Y-82040000D02*
X137370000Y-84493000D01*
X137410000Y-77532000D02*
X137410000Y-79960000D01*
X137410000Y-82040000D02*
X137410000Y-84468000D01*
X137450000Y-77557000D02*
X137450000Y-79960000D01*
X137450000Y-82040000D02*
X137450000Y-84443000D01*
X137490000Y-77582000D02*
X137490000Y-79960000D01*
X137490000Y-82040000D02*
X137490000Y-84418000D01*
X137530000Y-77608000D02*
X137530000Y-79960000D01*
X137530000Y-82040000D02*
X137530000Y-84392000D01*
X137570000Y-77635000D02*
X137570000Y-79960000D01*
X137570000Y-82040000D02*
X137570000Y-84365000D01*
X137610000Y-77663000D02*
X137610000Y-79960000D01*
X137610000Y-82040000D02*
X137610000Y-84337000D01*
X137650000Y-77691000D02*
X137650000Y-79960000D01*
X137650000Y-82040000D02*
X137650000Y-84309000D01*
X137690000Y-77720000D02*
X137690000Y-79960000D01*
X137690000Y-82040000D02*
X137690000Y-84280000D01*
X137730000Y-77750000D02*
X137730000Y-79960000D01*
X137730000Y-82040000D02*
X137730000Y-84250000D01*
X137770000Y-77781000D02*
X137770000Y-79960000D01*
X137770000Y-82040000D02*
X137770000Y-84219000D01*
X137810000Y-77812000D02*
X137810000Y-79960000D01*
X137810000Y-82040000D02*
X137810000Y-84188000D01*
X137850000Y-77844000D02*
X137850000Y-79960000D01*
X137850000Y-82040000D02*
X137850000Y-84156000D01*
X137890000Y-77877000D02*
X137890000Y-79960000D01*
X137890000Y-82040000D02*
X137890000Y-84123000D01*
X137930000Y-77911000D02*
X137930000Y-79960000D01*
X137930000Y-82040000D02*
X137930000Y-84089000D01*
X137970000Y-77945000D02*
X137970000Y-79960000D01*
X137970000Y-82040000D02*
X137970000Y-84055000D01*
X138010000Y-77981000D02*
X138010000Y-79960000D01*
X138010000Y-82040000D02*
X138010000Y-84019000D01*
X138050000Y-78018000D02*
X138050000Y-83982000D01*
X138090000Y-78055000D02*
X138090000Y-83945000D01*
X138130000Y-78094000D02*
X138130000Y-83906000D01*
X138170000Y-78133000D02*
X138170000Y-83867000D01*
X138210000Y-78174000D02*
X138210000Y-83826000D01*
X138250000Y-78216000D02*
X138250000Y-83784000D01*
X138290000Y-78259000D02*
X138290000Y-83741000D01*
X138330000Y-78304000D02*
X138330000Y-83696000D01*
X138370000Y-78349000D02*
X138370000Y-83651000D01*
X138410000Y-78396000D02*
X138410000Y-83604000D01*
X138450000Y-78445000D02*
X138450000Y-83555000D01*
X138490000Y-78495000D02*
X138490000Y-83505000D01*
X138530000Y-78547000D02*
X138530000Y-83453000D01*
X138570000Y-78600000D02*
X138570000Y-83400000D01*
X138610000Y-78656000D02*
X138610000Y-83344000D01*
X138650000Y-78713000D02*
X138650000Y-83287000D01*
X138690000Y-78773000D02*
X138690000Y-83227000D01*
X138730000Y-78835000D02*
X138730000Y-83165000D01*
X138770000Y-78899000D02*
X138770000Y-83101000D01*
X138810000Y-78966000D02*
X138810000Y-83034000D01*
X138850000Y-79036000D02*
X138850000Y-82964000D01*
X138890000Y-79110000D02*
X138890000Y-82890000D01*
X138930000Y-79187000D02*
X138930000Y-82813000D01*
X138970000Y-79269000D02*
X138970000Y-82731000D01*
X139010000Y-79356000D02*
X139010000Y-82644000D01*
X139050000Y-79448000D02*
X139050000Y-82552000D01*
X139090000Y-79547000D02*
X139090000Y-82453000D01*
X139130000Y-79654000D02*
X139130000Y-82346000D01*
X139170000Y-79772000D02*
X139170000Y-82228000D01*
X139210000Y-79903000D02*
X139210000Y-82097000D01*
X139250000Y-80053000D02*
X139250000Y-81947000D01*
X139290000Y-80232000D02*
X139290000Y-81768000D01*
X139330000Y-80467000D02*
X139330000Y-81533000D01*
X139370000Y-81000000D02*
G75*
G02*
X131130000Y-81000000I-4120000J0D01*
G01*
X131130000Y-81000000D02*
G75*
G02*
X139370000Y-81000000I4120000J0D01*
G01*
%TO.C,CP4*%
X131886252Y-88090000D02*
X130463748Y-88090000D01*
X131886252Y-89910000D02*
X130463748Y-89910000D01*
%TO.C,AN1*%
X83062000Y-142540000D02*
X83062000Y-141160000D01*
X84442000Y-142540000D02*
X83062000Y-142540000D01*
X85712000Y-139780000D02*
X90902000Y-139780000D01*
X85712000Y-142540000D02*
X85712000Y-139780000D01*
X85712000Y-142540000D02*
X90902000Y-142540000D01*
X90902000Y-142540000D02*
X90902000Y-139780000D01*
%TO.C,RP1*%
X131177064Y-67590000D02*
X129722936Y-67590000D01*
X131177064Y-69410000D02*
X129722936Y-69410000D01*
%TO.C,F4*%
X135974721Y-101740000D02*
X136300279Y-101740000D01*
X135974721Y-102760000D02*
X136300279Y-102760000D01*
%TO.C,P1*%
X42380000Y-49607500D02*
X54700000Y-49607500D01*
X42380000Y-59647500D02*
X42380000Y-49607500D01*
X55300000Y-49607500D02*
X57620000Y-49607500D01*
X57620000Y-49607500D02*
X57620000Y-59647500D01*
X57620000Y-50227500D02*
X42380000Y-50227500D01*
X57620000Y-51727500D02*
X42380000Y-51727500D01*
X57620000Y-56627500D02*
X42380000Y-56627500D01*
X57620000Y-59647500D02*
X42380000Y-59647500D01*
X55000000Y-49607500D02*
X54560000Y-48997500D01*
X55440000Y-48997500D01*
X55000000Y-49607500D01*
G36*
X55000000Y-49607500D02*
G01*
X54560000Y-48997500D01*
X55440000Y-48997500D01*
X55000000Y-49607500D01*
G37*
%TO.C,AN3*%
X103395333Y-142540000D02*
X103395333Y-141160000D01*
X104775333Y-142540000D02*
X103395333Y-142540000D01*
X106045333Y-139780000D02*
X111235333Y-139780000D01*
X106045333Y-142540000D02*
X106045333Y-139780000D01*
X106045333Y-142540000D02*
X111235333Y-142540000D01*
X111235333Y-142540000D02*
X111235333Y-139780000D01*
%TO.C,PWR-IN1*%
X134412500Y-69635000D02*
X138472500Y-69635000D01*
X138472500Y-67365000D02*
X134412500Y-67365000D01*
X138472500Y-69635000D02*
X138472500Y-67365000D01*
%TO.C,RA1*%
X107730000Y-86950000D02*
X107730000Y-84850000D01*
X113070000Y-86950000D02*
X113070000Y-84850000D01*
%TO.C,RPwr1*%
X125322936Y-88090000D02*
X126777064Y-88090000D01*
X125322936Y-89910000D02*
X126777064Y-89910000D01*
%TO.C,ON/OFF1*%
X128642000Y-114200000D02*
X130022000Y-114200000D01*
X128642000Y-115580000D02*
X128642000Y-114200000D01*
X128642000Y-116850000D02*
X128642000Y-122040000D01*
X128642000Y-116850000D02*
X131402000Y-116850000D01*
X128642000Y-122040000D02*
X131402000Y-122040000D01*
X131402000Y-116850000D02*
X131402000Y-122040000D01*
%TO.C,F1*%
X124549721Y-137990000D02*
X124875279Y-137990000D01*
X124549721Y-139010000D02*
X124875279Y-139010000D01*
%TO.C,Bomba1*%
X54620000Y-84120000D02*
X56000000Y-84120000D01*
X54620000Y-85500000D02*
X54620000Y-84120000D01*
X54620000Y-86770000D02*
X54620000Y-91960000D01*
X54620000Y-86770000D02*
X57380000Y-86770000D01*
X54620000Y-91960000D02*
X57380000Y-91960000D01*
X57380000Y-86770000D02*
X57380000Y-91960000D01*
%TO.C,IN3*%
X59265000Y-140362500D02*
X59265000Y-144422500D01*
X59265000Y-144422500D02*
X61535000Y-144422500D01*
X61535000Y-144422500D02*
X61535000Y-140362500D01*
%TO.C,OPT1*%
X52540000Y-104802223D02*
X52540000Y-110002223D01*
X52540000Y-110002223D02*
X57840000Y-110002223D01*
X54190000Y-104802223D02*
X52540000Y-104802223D01*
X57840000Y-104802223D02*
X56190000Y-104802223D01*
X57840000Y-110002223D02*
X57840000Y-104802223D01*
X56190000Y-104802223D02*
G75*
G02*
X54190000Y-104802223I-1000000J0D01*
G01*
%TO.C,RA3*%
X116550000Y-59170000D02*
X114450000Y-59170000D01*
X116550000Y-64510000D02*
X114450000Y-64510000D01*
%TO.C,U2*%
X109845000Y-68490000D02*
X110050000Y-68490000D01*
X109845000Y-74010000D02*
X109845000Y-68490000D01*
X110050000Y-74010000D02*
X109845000Y-74010000D01*
X120060000Y-68490000D02*
X120265000Y-68490000D01*
X120265000Y-68490000D02*
X120265000Y-74010000D01*
X120265000Y-74010000D02*
X120060000Y-74010000D01*
X110045000Y-74650000D02*
X109575000Y-74990000D01*
X109575000Y-74310000D01*
X110045000Y-74650000D01*
G36*
X110045000Y-74650000D02*
G01*
X109575000Y-74990000D01*
X109575000Y-74310000D01*
X110045000Y-74650000D01*
G37*
%TO.C,IN4*%
X63465000Y-140362500D02*
X63465000Y-144422500D01*
X63465000Y-144422500D02*
X65735000Y-144422500D01*
X65735000Y-144422500D02*
X65735000Y-140362500D01*
%TO.C,UART1*%
X75890000Y-88610000D02*
X75890000Y-87500000D01*
X77000000Y-88610000D02*
X75890000Y-88610000D01*
X78000000Y-86390000D02*
X86110000Y-86390000D01*
X78000000Y-88610000D02*
X78000000Y-86390000D01*
X78000000Y-88610000D02*
X86110000Y-88610000D01*
X86110000Y-88610000D02*
X86110000Y-86390000D01*
%TO.C,RELAY3*%
X75956667Y-60790000D02*
X91376667Y-60790000D01*
X75956667Y-79810000D02*
X75956667Y-60790000D01*
X75956667Y-79810000D02*
X82466667Y-79810000D01*
X77666667Y-72500000D02*
X77666667Y-74800000D01*
X77666667Y-72500000D02*
X82166667Y-72500000D01*
X79366667Y-64300000D02*
X81666667Y-64300000D01*
X82166667Y-70000000D02*
X85166667Y-70000000D01*
X82166667Y-75000000D02*
X82166667Y-70000000D01*
X83666667Y-67500000D02*
X80966667Y-63000000D01*
X83666667Y-69000000D02*
X83666667Y-67500000D01*
X83666667Y-69000000D02*
X87366667Y-69000000D01*
X83666667Y-75900000D02*
X83666667Y-76800000D01*
X83666667Y-75900000D02*
X87366667Y-75900000D01*
X84866667Y-79810000D02*
X91376667Y-79810000D01*
X85166667Y-70000000D02*
X82166667Y-75000000D01*
X85166667Y-70000000D02*
X85166667Y-75000000D01*
X85166667Y-72500000D02*
X89666667Y-72500000D01*
X85166667Y-75000000D02*
X82166667Y-75000000D01*
X87366667Y-69000000D02*
X87366667Y-75900000D01*
X87966667Y-64300000D02*
X85666667Y-64300000D01*
X89666667Y-74800000D02*
X89666667Y-72500000D01*
X91376667Y-60800000D02*
X91376667Y-79810000D01*
X91616667Y-77650000D02*
X91616667Y-75350000D01*
%TO.C,AN2*%
X93228667Y-142540000D02*
X93228667Y-141160000D01*
X94608667Y-142540000D02*
X93228667Y-142540000D01*
X95878667Y-139780000D02*
X101068667Y-139780000D01*
X95878667Y-142540000D02*
X95878667Y-139780000D01*
X95878667Y-142540000D02*
X101068667Y-142540000D01*
X101068667Y-142540000D02*
X101068667Y-139780000D01*
%TO.C,AN4*%
X113562000Y-142540000D02*
X113562000Y-141160000D01*
X114942000Y-142540000D02*
X113562000Y-142540000D01*
X116212000Y-139780000D02*
X121402000Y-139780000D01*
X116212000Y-142540000D02*
X116212000Y-139780000D01*
X116212000Y-142540000D02*
X121402000Y-142540000D01*
X121402000Y-142540000D02*
X121402000Y-139780000D01*
%TO.C,RELAY2*%
X59123333Y-60790000D02*
X74543333Y-60790000D01*
X59123333Y-79810000D02*
X59123333Y-60790000D01*
X59123333Y-79810000D02*
X65633333Y-79810000D01*
X60833333Y-72500000D02*
X60833333Y-74800000D01*
X60833333Y-72500000D02*
X65333333Y-72500000D01*
X62533333Y-64300000D02*
X64833333Y-64300000D01*
X65333333Y-70000000D02*
X68333333Y-70000000D01*
X65333333Y-75000000D02*
X65333333Y-70000000D01*
X66833333Y-67500000D02*
X64133333Y-63000000D01*
X66833333Y-69000000D02*
X66833333Y-67500000D01*
X66833333Y-69000000D02*
X70533333Y-69000000D01*
X66833333Y-75900000D02*
X66833333Y-76800000D01*
X66833333Y-75900000D02*
X70533333Y-75900000D01*
X68033333Y-79810000D02*
X74543333Y-79810000D01*
X68333333Y-70000000D02*
X65333333Y-75000000D01*
X68333333Y-70000000D02*
X68333333Y-75000000D01*
X68333333Y-72500000D02*
X72833333Y-72500000D01*
X68333333Y-75000000D02*
X65333333Y-75000000D01*
X70533333Y-69000000D02*
X70533333Y-75900000D01*
X71133333Y-64300000D02*
X68833333Y-64300000D01*
X72833333Y-74800000D02*
X72833333Y-72500000D01*
X74543333Y-60800000D02*
X74543333Y-79810000D01*
X74783333Y-77650000D02*
X74783333Y-75350000D01*
%TD*%
D14*
%TO.C,J2*%
X133044000Y-144000000D03*
X133000000Y-95000000D03*
X75044000Y-144000000D03*
X75000000Y-95000000D03*
%TD*%
M02*
