%TF.GenerationSoftware,KiCad,Pcbnew,9.0.6*%
%TF.CreationDate,2025-12-26T20:10:20-07:00*%
%TF.ProjectId,electronica,656c6563-7472-46f6-9e69-63612e6b6963,rev?*%
%TF.SameCoordinates,Original*%
%TF.FileFunction,Soldermask,Bot*%
%TF.FilePolarity,Negative*%
%FSLAX46Y46*%
G04 Gerber Fmt 4.6, Leading zero omitted, Abs format (unit mm)*
G04 Created by KiCad (PCBNEW 9.0.6) date 2025-12-26 20:10:20*
%MOMM*%
%LPD*%
G01*
G04 APERTURE LIST*
G04 Aperture macros list*
%AMRoundRect*
0 Rectangle with rounded corners*
0 $1 Rounding radius*
0 $2 $3 $4 $5 $6 $7 $8 $9 X,Y pos of 4 corners*
0 Add a 4 corners polygon primitive as box body*
4,1,4,$2,$3,$4,$5,$6,$7,$8,$9,$2,$3,0*
0 Add four circle primitives for the rounded corners*
1,1,$1+$1,$2,$3*
1,1,$1+$1,$4,$5*
1,1,$1+$1,$6,$7*
1,1,$1+$1,$8,$9*
0 Add four rect primitives between the rounded corners*
20,1,$1+$1,$2,$3,$4,$5,0*
20,1,$1+$1,$4,$5,$6,$7,0*
20,1,$1+$1,$6,$7,$8,$9,0*
20,1,$1+$1,$8,$9,$2,$3,0*%
G04 Aperture macros list end*
%ADD10R,1.700000X1.700000*%
%ADD11C,1.700000*%
%ADD12C,1.600000*%
%ADD13C,1.500000*%
%ADD14RoundRect,0.250000X-0.550000X-0.550000X0.550000X-0.550000X0.550000X0.550000X-0.550000X0.550000X0*%
%ADD15O,1.700000X1.700000*%
%ADD16RoundRect,0.249999X-0.850001X-0.850001X0.850001X-0.850001X0.850001X0.850001X-0.850001X0.850001X0*%
%ADD17C,2.200000*%
%ADD18RoundRect,0.250000X1.050000X1.050000X-1.050000X1.050000X-1.050000X-1.050000X1.050000X-1.050000X0*%
%ADD19C,2.600000*%
%ADD20RoundRect,0.250000X-1.050000X-1.050000X1.050000X-1.050000X1.050000X1.050000X-1.050000X1.050000X0*%
%ADD21R,2.800000X2.800000*%
%ADD22C,2.800000*%
%ADD23C,2.400000*%
%ADD24RoundRect,0.250000X1.000000X1.000000X-1.000000X1.000000X-1.000000X-1.000000X1.000000X-1.000000X0*%
%ADD25R,1.350000X1.350000*%
%ADD26C,1.350000*%
G04 APERTURE END LIST*
D10*
%TO.C,U3*%
X77222000Y-112660000D03*
D11*
X88022000Y-112660000D03*
X77222000Y-115200000D03*
X88022000Y-115200000D03*
X77222000Y-117740000D03*
X88022000Y-117740000D03*
X77222000Y-120280000D03*
X88022000Y-120280000D03*
X77222000Y-122820000D03*
X88022000Y-122820000D03*
X77222000Y-125360000D03*
X88022000Y-125360000D03*
%TD*%
%TO.C,U1*%
X100242000Y-124660000D03*
D10*
X95162000Y-124660000D03*
D11*
X112942000Y-124660000D03*
X97702000Y-124660000D03*
X105322000Y-124660000D03*
X110402000Y-124660000D03*
X102782000Y-124660000D03*
X107862000Y-124660000D03*
X118022000Y-124660000D03*
X115482000Y-124660000D03*
%TD*%
D12*
%TO.C,OPT3*%
X59000000Y-120044074D03*
D13*
X59000000Y-122584074D03*
D12*
X51380000Y-122584074D03*
D14*
X51380000Y-120044074D03*
%TD*%
D15*
%TO.C,J2*%
X128130000Y-93730000D03*
X128130000Y-96270000D03*
X125590000Y-93730000D03*
X125590000Y-96270000D03*
X123050000Y-93730000D03*
X123050000Y-96270000D03*
X120510000Y-93730000D03*
X120510000Y-96270000D03*
X117970000Y-93730000D03*
X117970000Y-96270000D03*
X115430000Y-93730000D03*
X115430000Y-96270000D03*
X112890000Y-93730000D03*
X112890000Y-96270000D03*
X110350000Y-93730000D03*
X110350000Y-96270000D03*
X107810000Y-93730000D03*
X107810000Y-96270000D03*
X105270000Y-93730000D03*
X105270000Y-96270000D03*
X102730000Y-93730000D03*
X102730000Y-96270000D03*
X100190000Y-93730000D03*
X100190000Y-96270000D03*
X97650000Y-93730000D03*
X97650000Y-96270000D03*
X95110000Y-93730000D03*
X95110000Y-96270000D03*
X92570000Y-93730000D03*
X92570000Y-96270000D03*
X90030000Y-93730000D03*
X90030000Y-96270000D03*
X87490000Y-93730000D03*
X87490000Y-96270000D03*
X84950000Y-96270000D03*
X82410000Y-93730000D03*
X82410000Y-96270000D03*
X79870000Y-93730000D03*
D10*
X79870000Y-96270000D03*
D13*
X84950000Y-93730000D03*
%TD*%
D16*
%TO.C,D1*%
X129880000Y-63500000D03*
D17*
X137500000Y-63500000D03*
%TD*%
D14*
%TO.C,CP1*%
X124500000Y-81000000D03*
D12*
X128000000Y-81000000D03*
%TD*%
D10*
%TO.C,J1*%
X84775000Y-107315000D03*
D11*
X84775000Y-104775000D03*
X87315000Y-107315000D03*
X87315000Y-104775000D03*
%TD*%
D14*
%TO.C,OPT4*%
X51380000Y-127000000D03*
D12*
X51380000Y-129540000D03*
X59000000Y-129540000D03*
X59000000Y-127000000D03*
%TD*%
D18*
%TO.C,P3*%
X88500000Y-54327500D03*
D19*
X83500000Y-54327500D03*
X78500000Y-54327500D03*
%TD*%
D14*
%TO.C,OPT2*%
X51380000Y-113088149D03*
D12*
X51380000Y-115628149D03*
X59000000Y-115628149D03*
X59000000Y-113088149D03*
%TD*%
D20*
%TO.C,PP1*%
X131500000Y-55500000D03*
D19*
X136500000Y-55500000D03*
%TD*%
D18*
%TO.C,P2*%
X71000000Y-54327500D03*
D19*
X66000000Y-54327500D03*
X61000000Y-54327500D03*
%TD*%
D10*
%TO.C,PWM1*%
X130022000Y-128660000D03*
D11*
X130022000Y-131200000D03*
X130022000Y-133740000D03*
%TD*%
D21*
%TO.C,J3*%
X45620000Y-141480000D03*
D22*
X45620000Y-136400000D03*
X45620000Y-131320000D03*
X45620000Y-126240000D03*
X45620000Y-121160000D03*
X45620000Y-116080000D03*
X45620000Y-111000000D03*
X45620000Y-105920000D03*
X45620000Y-100840000D03*
X45620000Y-95760000D03*
X45620000Y-90680000D03*
X45620000Y-85600000D03*
%TD*%
D23*
%TO.C,RELAY1*%
X50000000Y-78500000D03*
X44000000Y-64300000D03*
X56000000Y-64300000D03*
D24*
X56000000Y-76500000D03*
D23*
X44000000Y-76500000D03*
%TD*%
D18*
%TO.C,P4*%
X105505000Y-54327500D03*
D19*
X100505000Y-54327500D03*
X95505000Y-54327500D03*
%TD*%
D23*
%TO.C,RELAY4*%
X100500000Y-78500000D03*
X94500000Y-64300000D03*
X106500000Y-64300000D03*
D24*
X106500000Y-76500000D03*
D23*
X94500000Y-76500000D03*
%TD*%
D25*
%TO.C,J4*%
X102522000Y-103160000D03*
D26*
X104522000Y-103160000D03*
X106522000Y-103160000D03*
X108522000Y-103160000D03*
X110522000Y-103160000D03*
%TD*%
D14*
%TO.C,CP3*%
X133500000Y-81000000D03*
D12*
X137000000Y-81000000D03*
%TD*%
D10*
%TO.C,AN1*%
X84442000Y-141160000D03*
D11*
X86982000Y-141160000D03*
X89522000Y-141160000D03*
%TD*%
D18*
%TO.C,P1*%
X55000000Y-54327500D03*
D19*
X50000000Y-54327500D03*
X45000000Y-54327500D03*
%TD*%
D10*
%TO.C,AN3*%
X104775333Y-141160000D03*
D11*
X107315333Y-141160000D03*
X109855333Y-141160000D03*
%TD*%
D10*
%TO.C,ON/OFF1*%
X130022000Y-115580000D03*
D11*
X130022000Y-118120000D03*
X130022000Y-120660000D03*
%TD*%
D10*
%TO.C,Bomba1*%
X56000000Y-85500000D03*
D11*
X56000000Y-88040000D03*
X56000000Y-90580000D03*
%TD*%
D14*
%TO.C,OPT1*%
X51380000Y-106132223D03*
D12*
X51380000Y-108672223D03*
X59000000Y-108672223D03*
X59000000Y-106132223D03*
%TD*%
D25*
%TO.C,UART1*%
X77000000Y-87500000D03*
D26*
X79000000Y-87500000D03*
X81000000Y-87500000D03*
X83000000Y-87500000D03*
X85000000Y-87500000D03*
%TD*%
D23*
%TO.C,RELAY3*%
X83666667Y-78500000D03*
X77666667Y-64300000D03*
X89666667Y-64300000D03*
D24*
X89666667Y-76500000D03*
D23*
X77666667Y-76500000D03*
%TD*%
D10*
%TO.C,AN2*%
X94608667Y-141160000D03*
D11*
X97148667Y-141160000D03*
X99688667Y-141160000D03*
%TD*%
D10*
%TO.C,AN4*%
X114942000Y-141160000D03*
D11*
X117482000Y-141160000D03*
X120022000Y-141160000D03*
%TD*%
D23*
%TO.C,RELAY2*%
X66833333Y-78500000D03*
X60833333Y-64300000D03*
X72833333Y-64300000D03*
D24*
X72833333Y-76500000D03*
D23*
X60833333Y-76500000D03*
%TD*%
M02*
